<svg width="1608" height="1008" viewBox="0 0 1608 1008" fill="none" xmlns="http://www.w3.org/2000/svg">
<path d="M1515.29 796.004C1427.75 890.334 1298.43 915.499 1188.83 957.951C972.39 1037.02 746.54 1007.18 501.706 970.502C405.15 956.037 297.173 938.177 192.698 864.428C148.47 833.209 70.077 771.527 36.914 695.698C9.22187 632.379 5.68602 586.163 1.83352 526.89C-11.3135 324.614 63.9397 198.781 164.748 158.732C336.44 90.5204 526.114 67.3696 709.671 34.3324C759.172 25.4231 803.901 4.12331 855.391 1.15939C928.223 -3.0331 1005.6 11.3224 1082.51 24.0497C1180.93 40.3387 1278.51 46.3719 1384.65 118.146C1433.93 151.473 1536.1 262.934 1569.71 374.567C1653.14 651.725 1580.19 726.07 1515.29 796.004Z" fill="white" fill-opacity="0.5"/>
</svg>
