<svg width="1440" height="1009" viewBox="0 0 1440 1009" fill="none" xmlns="http://www.w3.org/2000/svg">
<path d="M1424.33 796.24C1336.79 890.57 1207.46 915.735 1097.87 958.188C881.422 1037.25 655.573 1007.41 410.738 970.738C314.182 956.274 206.205 938.413 101.73 864.665C57.5027 833.445 -20.8907 771.763 -54.0538 695.935C-81.7459 632.615 -85.2817 586.399 -89.1343 527.126C-102.281 324.851 -27.0281 199.018 73.7799 158.968C245.473 90.7568 435.146 67.6061 618.704 34.5688C668.204 25.6596 712.934 4.35976 764.423 1.39584C837.255 -2.79665 914.636 11.5588 991.541 24.2862C1089.97 40.5751 1187.55 46.6084 1293.68 118.383C1342.96 151.709 1445.14 263.17 1478.74 374.804C1562.17 651.962 1489.22 726.307 1424.33 796.24Z" fill="white" fill-opacity="0.5"/>
</svg>
