<svg width="118" height="117" viewBox="0 0 118 117" fill="none" xmlns="http://www.w3.org/2000/svg">
<path d="M74.6481 7.72693C52.8412 -0.101739 56.0595 9.5196 42.1057 9.89981C28.152 10.28 23.9757 28.4516 9.18748 38.8044C-5.60073 49.1573 4.26122 55.5038 2.29225 68.7086C7.8797 99.4971 13.2601 99.8085 28.334 107.934C43.408 116.059 80.876 125.977 100.284 95.9174C134.095 66.4419 108.258 38.5935 101.828 26.5641C96.6082 16.7997 84.7335 11.3476 74.6481 7.72693Z" fill="#BF6E52"/>
<path d="M22.3805 96.5675C36.1977 114.501 38.0653 104.419 49.3937 111.161C60.7221 117.902 72.4457 104.06 89.0431 102.466C105.641 100.872 100.687 90.2974 108.354 79.6981C118.096 49.8236 113.939 46.8218 105.641 32.0415C97.3418 17.2613 71.9711 -10.4487 42.587 6.1111C1.96024 14.8541 9.76047 52.4146 9.34901 66.2407C9.01502 77.4634 15.9903 88.2734 22.3805 96.5675Z" stroke="white" stroke-width="2"/>
<path d="M42.3745 40.82H58.6945V42.72H42.3745V40.82ZM41.4945 52.98H59.5345V54.88H41.4945V52.98ZM45.0345 44.04L46.9145 43.58C47.7145 46.22 48.5145 49.52 48.8545 51.76L46.8345 52.28C46.5545 50.06 45.7545 46.62 45.0345 44.04ZM54.1145 43.62L56.2345 44C55.3545 47.32 54.0745 51.3 52.9945 53.78L51.1345 53.34C52.2345 50.84 53.4745 46.64 54.1145 43.62ZM48.8745 37.44L50.7345 36.96C51.1545 37.98 51.5945 39.3 51.8145 40.16L49.8545 40.74C49.6745 39.86 49.2545 38.48 48.8745 37.44ZM65.1745 42.06H71.3545V43.76H65.1745V42.06ZM65.1345 38.16H72.5545V47.82H65.1345V46.12H70.6545V39.86H65.1345V38.16ZM64.3945 55.16L64.2145 53.46L64.9945 52.76L70.7745 50.98C70.9145 51.5 71.1545 52.18 71.3145 52.58C65.6945 54.48 64.8945 54.78 64.3945 55.16ZM68.6745 49.4L70.2945 48.62C71.3145 50.24 72.5545 52.44 73.0945 53.8L71.3545 54.74C70.8545 53.36 69.6745 51.1 68.6745 49.4ZM64.3945 55.16C64.2745 54.62 63.9345 53.7 63.6145 53.24C64.0145 53.04 64.5145 52.66 64.5145 51.9V38.16H66.4345V53.6C66.4345 53.6 64.3945 54.42 64.3945 55.16ZM79.0545 38.3H80.9145V49.84C80.9145 50.78 80.7545 51.3 80.1545 51.62C79.5545 51.92 78.6345 51.94 77.2545 51.94C77.1945 51.42 76.9545 50.64 76.7145 50.14C77.5945 50.18 78.4545 50.18 78.7145 50.16C78.9745 50.14 79.0545 50.08 79.0545 49.82V38.3ZM74.0745 38.3H80.0145V40.04H75.9545V55.7H74.0745V38.3ZM41.6145 68.04H48.0545V69.7H41.6145V68.04ZM41.1545 74.42H48.7745V76.12H41.1545V74.42ZM44.3145 75.3H46.1345V83.58C46.1345 84.52 45.9745 85.04 45.3145 85.32C44.6745 85.62 43.7345 85.64 42.3745 85.64C42.2945 85.12 42.0345 84.36 41.7945 83.84C42.7345 83.86 43.6745 83.86 43.9545 83.86C44.2345 83.84 44.3145 83.78 44.3145 83.54V75.3ZM47.4745 68.04H47.8945L48.2345 67.94L49.4145 68.76C48.4345 70.32 47.0145 72.08 45.7345 73.18C45.4745 72.84 44.9745 72.32 44.6545 72.06C45.7145 71.12 46.9145 69.5 47.4745 68.4V68.04ZM48.2345 74.42H48.4945L48.7545 74.36L49.9345 74.66C49.4545 76.26 48.8545 78.06 48.3545 79.2L46.9345 78.86C47.3745 77.82 47.8945 76.08 48.2345 74.68V74.42ZM42.0745 71.9L43.0545 70.66C44.7145 71.48 46.7745 72.78 47.7745 73.76L46.7145 75.16C45.7745 74.14 43.7545 72.76 42.0745 71.9ZM49.4345 68H59.6345V69.6H49.4345V68ZM51.9145 75.68V77.34H57.1745V75.68H51.9145ZM51.9145 78.68V80.36H57.1745V78.68H51.9145ZM51.9145 72.68V74.34H57.1745V72.68H51.9145ZM50.1745 71.26H58.9945V81.78H50.1745V71.26ZM53.5745 68.82L55.7145 69.08C55.3745 70.28 54.9745 71.54 54.6545 72.4L52.9945 72.08C53.2145 71.16 53.4745 69.78 53.5745 68.82ZM52.1545 82L53.7545 83C52.6545 84.06 50.7545 85.16 49.1745 85.76C48.8945 85.4 48.3145 84.82 47.9145 84.5C49.4945 83.94 51.2945 82.88 52.1545 82ZM55.1745 83.08L56.5745 82.12C57.7545 82.84 59.2945 83.92 60.0945 84.68L58.5945 85.74C57.8745 85 56.3545 83.86 55.1745 83.08ZM73.0545 70.78H80.0345V72.56H73.0545V70.78ZM79.2745 70.78H81.1945C81.1945 70.78 81.1745 71.48 81.1745 71.72C80.9345 80.54 80.6945 83.6 79.9345 84.58C79.4345 85.24 78.9345 85.44 78.1745 85.54C77.4545 85.64 76.2545 85.62 75.1345 85.56C75.0945 85.02 74.8345 84.2 74.4945 83.66C75.7545 83.76 76.8745 83.76 77.3745 83.76C77.7545 83.78 77.9945 83.72 78.1945 83.46C78.8145 82.78 79.0745 79.5 79.2745 71.18V70.78ZM73.7945 67.12L75.6545 67.5C74.9145 70.5 73.7145 73.48 72.3345 75.38C71.9745 75.1 71.1545 74.56 70.7145 74.3C72.0945 72.58 73.1745 69.84 73.7945 67.12ZM72.8945 76L74.2145 75.04C75.5545 76.3 77.1145 78.08 77.7745 79.3L76.3745 80.4C75.7545 79.16 74.2545 77.32 72.8945 76ZM69.0145 74.98L70.5145 74.6C71.0745 75.94 71.6745 77.7 71.8745 78.78L70.2745 79.26C70.0945 78.16 69.5345 76.36 69.0145 74.98ZM66.9545 80.36L68.4545 79.98C68.7745 81.42 69.0545 83.22 69.1345 84.44L67.5545 84.84C67.4945 83.64 67.2345 81.78 66.9545 80.36ZM64.5145 80.14L66.1745 80.48C65.8745 82.18 65.3345 84.1 64.8545 85.32C64.4745 85.12 63.6745 84.86 63.2345 84.74C63.7945 83.56 64.2545 81.74 64.5145 80.14ZM63.8345 74.82C63.7545 74.44 63.4745 73.58 63.2545 73.12C63.6345 73.02 64.0145 72.64 64.4945 72.04C64.9745 71.46 66.5145 69.22 67.4745 67.06L69.2145 67.82C68.0145 70.02 66.4545 72.3 64.9745 73.86V73.9C64.9745 73.9 63.8345 74.46 63.8345 74.82ZM63.8345 74.82L63.7945 73.48L64.6345 72.94L68.4545 72.64C68.3545 73.1 68.2945 73.76 68.2945 74.14C64.8345 74.5 64.2145 74.64 63.8345 74.82ZM63.9345 79.38C63.8345 79.02 63.5345 78.12 63.3345 77.62C63.8145 77.52 64.3145 77.08 65.0145 76.36C65.7545 75.64 68.0745 72.9 69.6145 70.18L71.2145 71.22C69.4745 73.88 67.2545 76.52 65.1545 78.42V78.48C65.1545 78.48 63.9345 79.02 63.9345 79.38ZM63.9345 79.38L63.8345 77.96L64.7145 77.38L70.6745 76.54C70.6145 77.02 70.5745 77.72 70.5945 78.1C65.1745 78.94 64.3945 79.14 63.9345 79.38ZM69.4145 80L70.7945 79.52C71.3145 80.72 71.8545 82.28 72.0945 83.3L70.6345 83.84C70.4145 82.82 69.8745 81.22 69.4145 80Z" fill="white"/>
</svg>
