<svg width="32" height="31" viewBox="0 0 32 31" fill="none" xmlns="http://www.w3.org/2000/svg">
<path fill-rule="evenodd" clip-rule="evenodd" d="M16.1323 0.0018034C19.5287 0.034234 22.9704 0.596902 25.7291 2.53376C28.4969 4.47711 30.2856 7.44801 31.2771 10.6351C32.2541 13.776 32.2405 17.1095 31.2379 20.2427C30.2269 23.4025 28.4355 26.3669 25.6435 28.2413C22.8944 30.0869 19.4656 30.4927 16.1323 30.3836C12.8927 30.2776 9.78433 29.3697 7.07282 27.6336C4.25029 25.8264 1.61793 23.5225 0.536796 20.3983C-0.551179 17.2542 0.188305 13.871 1.21566 10.7075C2.2494 7.52442 3.6444 4.32571 6.39837 2.34918C9.15973 0.367339 12.7067 -0.0309066 16.1323 0.0018034Z" fill="#D4B86F"/>
</svg>
