<svg width="35" height="24" viewBox="0 0 35 24" fill="none" xmlns="http://www.w3.org/2000/svg">
<rect x="0.5" y="0.5" width="34" height="23" rx="3.5" fill="white" stroke="#D9D9D9"/>
<path d="M14.7999 3.50078H14.0149C13.8943 3.50078 13.7966 3.5985 13.7966 3.71905V8.60544C13.7966 8.72599 13.8943 8.82371 14.0149 8.82371H14.7999C14.9205 8.82371 15.0182 8.72599 15.0182 8.60544V3.71905C15.0182 3.5985 14.9205 3.50078 14.7999 3.50078Z" fill="black"/>
<path d="M12.9024 7.60387H10.7849V3.71905C10.7849 3.59935 10.6881 3.50078 10.5666 3.50078H9.78154C9.66184 3.50078 9.56327 3.59935 9.56327 3.71905V8.6072C9.56327 8.7269 9.66008 8.82547 9.78154 8.82547H12.9024C13.0221 8.82547 13.1207 8.72866 13.1207 8.6072V7.82214C13.1207 7.70245 13.0239 7.60387 12.9024 7.60387Z" fill="black"/>
<path d="M24.5745 4.72414C24.6942 4.72414 24.7927 4.62733 24.7927 4.50587V3.71905C24.7927 3.59935 24.6942 3.50078 24.5745 3.50078H21.4536C21.3339 3.50078 21.2353 3.59759 21.2353 3.71905V8.6072C21.2353 8.7269 21.3321 8.82547 21.4536 8.82547H24.5745C24.6942 8.82547 24.7927 8.72866 24.7927 8.6072V7.82214C24.7927 7.70245 24.6942 7.60387 24.5745 7.60387H22.4587V6.77481H24.5745C24.6942 6.77481 24.7927 6.67799 24.7927 6.55654V5.77148C24.7927 5.65178 24.6942 5.55321 24.5745 5.55321H22.4587V4.72414H24.5745Z" fill="black"/>
<path d="M19.4047 3.50078C19.285 3.50078 19.1864 3.59759 19.1864 3.71905V6.54774L17.1305 3.60816C17.0724 3.52543 16.9861 3.50078 16.8893 3.50078C16.877 3.49902 16.8647 3.50078 16.8524 3.50078H16.0673C15.9476 3.50078 15.849 3.59759 15.849 3.71905V8.6072C15.849 8.7269 15.9458 8.82547 16.0673 8.82547H16.8524C16.9721 8.82547 17.0706 8.72866 17.0706 8.6072V5.65354L19.2146 8.7181C19.2216 8.72866 19.2304 8.73922 19.2392 8.74802C19.2762 8.79203 19.329 8.82019 19.3906 8.82547H20.1915C20.3112 8.82547 20.4098 8.72866 20.4098 8.6072V3.71905C20.4098 3.59936 20.3112 3.50078 20.1915 3.50078H19.4047Z" fill="black"/>
<path d="M24.8385 10.6086H9.59848C9.26795 10.6086 9 10.8765 9 11.2071V20.3215C9 20.6521 9.26795 20.92 9.59848 20.92H24.8385C25.169 20.92 25.437 20.6521 25.437 20.3215V11.2071C25.437 10.8765 25.169 10.6086 24.8385 10.6086Z" fill="#08BF5B"/>
<path d="M14.9267 14.6289C14.9267 15.5355 14.1979 16.2642 13.258 16.2642H12.5433V17.602C12.5433 17.69 12.4712 17.7621 12.3832 17.7621H11.6139C11.5259 17.7621 11.4538 17.69 11.4538 17.602V13.1556C11.4538 13.0676 11.5259 12.9955 11.6139 12.9955H13.258C14.1979 12.9955 14.9267 13.7242 14.9267 14.6307V14.6289ZM13.8371 14.6289C13.8371 14.2822 13.5924 14.0164 13.258 14.0164H12.5433V15.2415H13.258C13.5924 15.2415 13.8371 14.9757 13.8371 14.6289Z" fill="white"/>
<path d="M18.9717 14.4406V17.6777C18.9717 17.7234 18.9347 17.7621 18.8872 17.7621H18.0352C17.9895 17.7621 17.9507 17.7252 17.9507 17.6777V17.4418C17.7254 17.7005 17.3928 17.8572 16.9369 17.8572C16.0444 17.8572 15.3086 17.0739 15.3086 16.06C15.3086 15.0461 16.0444 14.2628 16.9369 14.2628C17.3928 14.2628 17.7272 14.4195 17.9507 14.6782V14.4424C17.9507 14.3966 17.9877 14.3579 18.0352 14.3579H18.8872C18.933 14.3579 18.9717 14.3948 18.9717 14.4424V14.4406ZM17.9507 16.0582C17.9507 15.5478 17.611 15.2274 17.141 15.2274C16.6711 15.2274 16.3313 15.5478 16.3313 16.0582C16.3313 16.5687 16.6711 16.8891 17.141 16.8891C17.611 16.8891 17.9507 16.5687 17.9507 16.0582Z" fill="white"/>
<path d="M22.3724 14.4441L21.5891 16.4191L20.7777 14.4424C20.7565 14.3896 20.7037 14.3544 20.6474 14.3544H19.7779C19.718 14.3544 19.6775 14.416 19.7004 14.4705L21.0523 17.7674L20.5594 19.0084C20.5365 19.063 20.5788 19.1246 20.6386 19.1246H21.5082C21.5662 19.1246 21.6173 19.0894 21.6384 19.0366L23.4515 14.4705C23.4743 14.416 23.4321 14.3544 23.3722 14.3544H22.5027C22.4446 14.3544 22.3936 14.3896 22.3724 14.4424V14.4441Z" fill="white"/>
</svg>
