<svg width="35" height="24" viewBox="0 0 35 24" fill="none" xmlns="http://www.w3.org/2000/svg">
<rect x="0.5" y="0.5" width="34" height="23" rx="3.5" fill="white" stroke="#D9D9D9"/>
<path fill-rule="evenodd" clip-rule="evenodd" d="M9.90001 15.241H8.34439C8.23794 15.241 8.1474 15.3183 8.1308 15.4234L7.50163 19.4125C7.48913 19.4912 7.55009 19.5621 7.62993 19.5621H8.37259C8.47905 19.5621 8.56958 19.4848 8.58618 19.3795L8.75588 18.3036C8.77225 18.1982 8.863 18.121 8.96924 18.121H9.46169C10.4864 18.121 11.0778 17.6251 11.2323 16.6424C11.3019 16.2125 11.2353 15.8748 11.0339 15.6381C10.8129 15.3784 10.4206 15.241 9.90001 15.241ZM10.0795 16.6979C9.99443 17.2561 9.56792 17.2561 9.15553 17.2561H8.92078L9.08547 16.2136C9.09525 16.1507 9.14984 16.1042 9.21353 16.1042H9.32112C9.60204 16.1042 9.86706 16.1042 10.004 16.2643C10.0856 16.3599 10.1106 16.5018 10.0795 16.6979ZM14.5501 16.68H13.8052C13.7417 16.68 13.6869 16.7264 13.6771 16.7895L13.6441 16.9978L13.592 16.9223C13.4308 16.6882 13.0712 16.61 12.7122 16.61C11.889 16.61 11.1859 17.2335 11.049 18.1081C10.9778 18.5443 11.079 18.9615 11.3264 19.2524C11.5535 19.5199 11.8783 19.6314 12.2647 19.6314C12.928 19.6314 13.2959 19.2049 13.2959 19.2049L13.2626 19.4119C13.2501 19.4911 13.3111 19.562 13.3904 19.562H14.0615C14.1682 19.562 14.2582 19.4847 14.2751 19.3794L14.6777 16.8297C14.6904 16.7513 14.6297 16.68 14.5501 16.68ZM13.5117 18.1299C13.4398 18.5555 13.102 18.8412 12.6713 18.8412C12.455 18.8412 12.282 18.7718 12.1711 18.6403C12.061 18.5098 12.0191 18.3239 12.0541 18.117C12.1213 17.695 12.4647 17.4 12.889 17.4C13.1004 17.4 13.2724 17.4702 13.3857 17.6029C13.4992 17.7369 13.5442 17.9238 13.5117 18.1299ZM17.769 16.6799H18.5176C18.6224 16.6799 18.6836 16.7975 18.624 16.8835L16.1342 20.4774C16.0939 20.5356 16.0275 20.5702 15.9565 20.5702H15.2089C15.1036 20.5702 15.0421 20.4517 15.1031 20.3655L15.8783 19.2712L15.0538 16.8514C15.0253 16.7673 15.0874 16.6799 15.1769 16.6799H15.9124C16.008 16.6799 16.0923 16.7427 16.1199 16.8341L16.5575 18.2956L17.59 16.7748C17.6304 16.7154 17.6976 16.6799 17.769 16.6799Z" fill="#253B80"/>
<path fill-rule="evenodd" clip-rule="evenodd" d="M25.8851 19.4124L26.5236 15.3504C26.5334 15.2874 26.588 15.2409 26.6515 15.2407H27.3702C27.4496 15.2407 27.5105 15.3119 27.498 15.3906L26.8684 19.3795C26.852 19.4847 26.7615 19.5621 26.6548 19.5621H26.0129C25.9336 19.5621 25.8726 19.4912 25.8851 19.4124ZM20.9958 15.2409H19.4399C19.3337 15.2409 19.2431 15.3183 19.2265 15.4234L18.5973 19.4124C18.5848 19.4912 18.6458 19.5621 18.7252 19.5621H19.5236C19.5978 19.5621 19.6612 19.508 19.6728 19.4343L19.8513 18.3036C19.8678 18.1982 19.9585 18.1209 20.0647 18.1209H20.5569C21.5819 18.1209 22.1731 17.625 22.3278 16.6424C22.3976 16.2125 22.3305 15.8747 22.1292 15.6381C21.9083 15.3784 21.5164 15.2409 20.9958 15.2409ZM21.1752 16.6979C21.0904 17.2561 20.6639 17.2561 20.2512 17.2561H20.0167L20.1817 16.2136C20.1914 16.1506 20.2456 16.1042 20.3094 16.1042H20.417C20.6978 16.1042 20.963 16.1042 21.0999 16.2643C21.1816 16.3599 21.2064 16.5018 21.1752 16.6979ZM25.6455 16.68H24.901C24.837 16.68 24.7827 16.7264 24.7731 16.7895L24.7402 16.9978L24.6879 16.9223C24.5266 16.6882 24.1672 16.61 23.8083 16.61C22.985 16.61 22.2822 17.2335 22.1452 18.1081C22.0743 18.5443 22.175 18.9615 22.4225 19.2524C22.65 19.5199 22.9744 19.6314 23.3608 19.6314C24.0241 19.6314 24.3919 19.2048 24.3919 19.2048L24.3587 19.4119C24.3462 19.491 24.4071 19.562 24.487 19.562H25.1578C25.264 19.562 25.3545 19.4846 25.3711 19.3794L25.774 16.8297C25.7863 16.7513 25.7254 16.68 25.6455 16.68ZM24.6071 18.1299C24.5357 18.5555 24.1975 18.8412 23.7666 18.8412C23.5507 18.8412 23.3775 18.7718 23.2664 18.6403C23.1563 18.5098 23.1149 18.3239 23.1496 18.1169C23.217 17.6949 23.5601 17.4 23.9843 17.4C24.1959 17.4 24.3678 17.4702 24.4811 17.6028C24.595 17.7368 24.6401 17.9238 24.6071 18.1299Z" fill="#179BD7"/>
<path d="M15.6566 13.8138L15.8479 12.5991L15.4219 12.5892H13.3877L14.8014 3.62534C14.8057 3.59828 14.82 3.57305 14.8409 3.55513C14.8617 3.53722 14.8884 3.52734 14.9162 3.52734H18.3462C19.485 3.52734 20.2708 3.7643 20.6811 4.232C20.8734 4.45141 20.9959 4.68068 21.0552 4.933C21.1173 5.19776 21.1184 5.51406 21.0577 5.89985L21.0533 5.92801V6.1752L21.2457 6.28418C21.4077 6.37011 21.5363 6.46848 21.6351 6.58111C21.7997 6.7687 21.9061 7.00712 21.9511 7.28978C21.9975 7.5805 21.9821 7.92643 21.9061 8.31807C21.8183 8.76859 21.6765 9.16096 21.4849 9.48202C21.3086 9.77785 21.084 10.0232 20.8175 10.2134C20.563 10.394 20.2606 10.5312 19.9187 10.619C19.5873 10.7052 19.2096 10.7488 18.7953 10.7488H18.5283C18.3375 10.7488 18.152 10.8175 18.0065 10.9408C17.8607 11.0665 17.764 11.2383 17.7344 11.4263L17.7143 11.5357L17.3764 13.6767L17.3611 13.7553C17.3571 13.7802 17.3501 13.7927 17.3399 13.8011C17.3308 13.8087 17.3176 13.8138 17.3048 13.8138H15.6566Z" fill="#253B80"/>
<path d="M21.4279 5.95654C21.4177 6.022 21.406 6.08891 21.3928 6.15766C20.9404 8.48007 19.3929 9.28237 17.4164 9.28237H16.4101C16.1684 9.28237 15.9647 9.45789 15.927 9.69631L15.4118 12.964L15.2659 13.8902C15.2413 14.0468 15.3621 14.1879 15.52 14.1879H17.3049C17.5163 14.1879 17.6958 14.0344 17.729 13.8259L17.7466 13.7352L18.0827 11.6026L18.1043 11.4856C18.1371 11.2764 18.317 11.1229 18.5284 11.1229H18.7954C20.5246 11.1229 21.8784 10.4208 22.2741 8.38902C22.4394 7.54028 22.3538 6.83161 21.9164 6.33319C21.7841 6.18289 21.6199 6.0582 21.4279 5.95654Z" fill="#179BD7"/>
<path d="M20.9545 5.76807C20.8854 5.74796 20.814 5.72967 20.7409 5.71322C20.6674 5.69713 20.592 5.68287 20.5146 5.67044C20.2432 5.62656 19.9459 5.60571 19.6274 5.60571H16.939C16.8728 5.60571 16.8099 5.6207 16.7536 5.64777C16.6296 5.70737 16.5375 5.82476 16.5152 5.96846L15.9432 9.59086L15.9268 9.69653C15.9644 9.45811 16.1681 9.28258 16.4098 9.28258H17.4161C19.3927 9.28258 20.9402 8.47993 21.3926 6.15788C21.406 6.08914 21.4174 6.02222 21.4276 5.95677C21.3132 5.89606 21.1892 5.84413 21.0557 5.79988C21.0229 5.78891 20.9889 5.77831 20.9545 5.76807Z" fill="#222D65"/>
<path d="M16.5156 5.96842C16.5379 5.8247 16.6301 5.70732 16.754 5.64808C16.8107 5.62102 16.8733 5.60603 16.9394 5.60603H19.6279C19.9464 5.60603 20.2437 5.62687 20.5149 5.67076C20.5925 5.68319 20.6679 5.69745 20.7414 5.71354C20.8145 5.73 20.8858 5.74828 20.9549 5.76839C20.9893 5.77863 21.0233 5.78923 21.0565 5.79984C21.19 5.84408 21.314 5.89638 21.4284 5.95672C21.5631 5.09847 21.4274 4.51412 20.9634 3.98498C20.4518 3.40247 19.5284 3.15308 18.3469 3.15308H14.9168C14.6755 3.15308 14.4697 3.32859 14.4323 3.56738L13.0037 12.6234C12.9755 12.8025 13.1137 12.9642 13.2943 12.9642H15.412L15.9437 9.59081L16.5156 5.96842Z" fill="#253B80"/>
</svg>
