<svg width="135" height="44" viewBox="0 0 135 44" fill="none" xmlns="http://www.w3.org/2000/svg">
<path fill-rule="evenodd" clip-rule="evenodd" d="M7.24276 17.6782C3.53367 22.0659 -1.12949 26.7432 0.246733 31.9459C1.65637 37.2749 5.74647 40.587 13.9571 43.0613C22.1678 45.5357 108.401 42.4418 114.164 41.5034C120.643 40.4485 128.62 41.6541 132.525 37.3275C136.558 32.8584 134.979 25.521 132.609 22.2628C128.879 17.1338 125.802 14.1359 120.568 10.3634C93.8807 -8.87365 30.6849 3.5005 18.5643 9.17282C12.8429 11.8504 10.5583 13.7561 7.24276 17.6782Z" fill="#F3D075"/>
<path d="M34.75 31.25L32.1251 28.625M34 24.125C34 27.6458 31.1458 30.5 27.625 30.5C24.1042 30.5 21.25 27.6458 21.25 24.125C21.25 20.6042 24.1042 17.75 27.625 17.75C31.1458 17.75 34 20.6042 34 24.125Z" stroke="#222222" stroke-width="2" stroke-linecap="round" stroke-linejoin="round"/>
<path d="M52.364 17.512H53.804V26.76H52.364V17.512ZM48.476 26.12H56.396V27.4H48.476V26.12ZM54.412 21.256H56.924V22.504H54.412V21.256ZM49.356 21.256H51.788V22.504H49.356V21.256ZM48.652 23.816H51.868V25.096H48.652V23.816ZM48.652 19.112L49.996 19.544V24.696H48.652V19.112ZM51.148 17.944L52.076 19.032C51.148 19.432 50.108 19.784 49.324 19.976L48.652 19.112C49.404 18.856 50.524 18.312 51.148 17.944ZM55.98 26.12H56.284L56.54 26.072L57.5 26.504C55.964 30.056 52.332 31.688 48.252 32.376C48.124 31.992 47.82 31.368 47.564 31.032C51.356 30.552 54.764 29.112 55.98 26.328V26.12ZM50.908 27.144C52.284 29.176 55.164 30.536 58.636 31.016C58.3 31.336 57.9 31.96 57.692 32.344C54.108 31.72 51.244 30.104 49.612 27.608L50.908 27.144ZM54.332 18.664H57.644V25.112H54.332V23.832H56.332V19.928H54.332V18.664ZM43.612 25.864C44.764 25.528 46.46 24.936 48.108 24.344L48.364 25.704C46.876 26.264 45.276 26.856 43.996 27.32L43.612 25.864ZM43.804 20.648H48.156V22.04H43.804V20.648ZM45.484 17.528H46.892V30.536C46.892 31.272 46.732 31.672 46.316 31.912C45.884 32.152 45.244 32.2 44.268 32.2C44.236 31.816 44.06 31.192 43.868 30.776C44.476 30.808 45.036 30.808 45.228 30.792C45.42 30.792 45.484 30.744 45.484 30.536V17.528ZM63.564 18.264H73.804V22.984H63.468V21.96H72.316V19.304H63.564V18.264ZM70.364 24.696V26.056H73.612V24.696H70.364ZM68.94 23.672H75.1V27.064H68.94V23.672ZM61.548 20.12H73.036V21.128H61.548V20.12ZM73.004 20.024H75.932V21.208H73.004V20.024ZM61.996 23.672H67.964V24.76H61.996V23.672ZM61.404 27.928H75.996V29.176H61.404V27.928ZM71.244 26.904H72.748V30.904C72.748 31.64 72.572 31.976 71.996 32.168C71.42 32.36 70.556 32.36 69.244 32.36C69.164 31.992 68.956 31.48 68.764 31.128C69.692 31.176 70.652 31.16 70.908 31.16C71.18 31.144 71.244 31.08 71.244 30.856V26.904ZM64.22 24.072H65.644V26.376H64.22V24.072ZM61.708 26.232C63.356 26.168 65.852 26.008 68.252 25.848V26.952C65.932 27.128 63.532 27.288 61.804 27.416L61.708 26.232ZM64.092 29.752L65.116 28.888C65.98 29.384 67.036 30.184 67.548 30.776L66.46 31.72C65.996 31.112 64.972 30.296 64.092 29.752ZM84.796 25.688H93.468V27.032H84.796V25.688ZM90.236 26.472C91.036 27.976 92.556 29.608 93.916 30.44C93.58 30.712 93.1 31.224 92.876 31.592C91.5 30.552 89.996 28.648 89.148 26.888L90.236 26.472ZM86.684 21.912V23.304H91.628V21.912H86.684ZM86.684 19.352V20.728H91.628V19.352H86.684ZM85.34 18.136H93.036V24.52H85.34V18.136ZM88.092 26.376L89.228 26.776C88.364 28.744 86.812 30.68 85.212 31.688C84.988 31.336 84.524 30.792 84.204 30.52C85.74 29.704 87.292 28.024 88.092 26.376ZM88.476 18.76H89.788V23.944H89.868V32.344H88.396V23.944H88.476V18.76ZM79.548 22.36H84.348V23.528H79.548V22.36ZM79.548 24.488H84.348V25.656H79.548V24.488ZM78.876 20.184H84.876V21.416H78.876V20.184ZM80.204 26.664H84.46V31.416H80.204V30.184H83.132V27.896H80.204V26.664ZM79.532 26.664H80.844V32.136H79.532V26.664ZM80.652 18.008L81.82 17.432C82.284 18.088 82.78 18.952 83.036 19.528L81.82 20.216C81.596 19.624 81.084 18.68 80.652 18.008ZM105.98 25.08H107.484V31.544H105.98V25.08ZM102.124 30.648H111.212V31.976H102.124V30.648ZM102.972 27.496H110.556V28.776H102.972V27.496ZM104.524 19.544V22.248H108.972V19.544H104.524ZM103.116 18.264H110.428V23.544H103.116V18.264ZM109.804 23.96L110.748 25.096C108.668 25.64 105.532 25.944 102.956 26.04C102.908 25.72 102.748 25.208 102.604 24.888C105.116 24.744 108.092 24.44 109.804 23.96ZM99.1 18.904H100.572V32.328H99.1V18.904ZM96.62 22.008H102.444V23.416H96.62V22.008ZM99.18 22.568L100.092 22.952C99.468 25.224 98.252 28.056 97.02 29.576C96.876 29.144 96.54 28.52 96.284 28.152C97.42 26.872 98.636 24.456 99.18 22.568ZM101.596 17.704L102.636 18.872C101.052 19.496 98.812 19.928 96.924 20.168C96.844 19.848 96.652 19.336 96.476 19.016C98.3 18.712 100.38 18.248 101.596 17.704ZM100.524 24.136C100.924 24.472 102.38 25.976 102.7 26.344L101.82 27.544C101.436 26.84 100.332 25.336 99.836 24.744L100.524 24.136Z" fill="#222222"/>
</svg>
