<svg width="77" height="38" viewBox="0 0 77 38" fill="none" xmlns="http://www.w3.org/2000/svg">
<path fill-rule="evenodd" clip-rule="evenodd" d="M22.2189 6.73185C27.1156 4.90373 46.7428 0.186806 51.9628 0.519006C58.1754 0.91437 64.0243 3.83527 68.0138 8.62798C72.8089 14.3885 78.7488 22.1125 75.5802 28.8911C72.4021 35.6901 62.4861 34.4302 55.1733 36.0977C50.8516 37.0832 30.8144 36.6115 26.3821 36.4612C19.4304 36.2255 11.4414 39.7537 6.36163 34.9853C0.759583 29.7267 -2.04014 19.9942 1.71401 13.3053C5.36799 6.7949 15.2289 9.34147 22.2189 6.73185Z" fill="#938588"/>
<path d="M20.632 16.7343H26.248V17.7183H20.632V16.7343ZM20.464 20.2023C21.232 19.9503 22.372 19.5183 23.5 19.0863L23.68 20.0103C22.696 20.4423 21.664 20.8863 20.8 21.2463L20.464 20.2023ZM22.924 13.5783L23.764 14.3943C22.936 14.8023 21.844 15.1263 20.92 15.3423C20.86 15.1143 20.704 14.7543 20.584 14.5143C21.424 14.2863 22.372 13.9263 22.924 13.5783ZM21.784 14.8143H22.756V23.4063C22.756 23.9103 22.66 24.1863 22.372 24.3423C22.072 24.5103 21.628 24.5343 21.004 24.5343C20.968 24.2823 20.848 23.8503 20.716 23.5743C21.112 23.5863 21.496 23.5743 21.616 23.5743C21.748 23.5743 21.784 23.5383 21.784 23.4063V14.8143ZM24.82 14.2503L25.6 14.0103C25.924 14.6823 26.224 15.5463 26.32 16.0983L25.48 16.3863C25.408 15.8343 25.132 14.9343 24.82 14.2503ZM23.692 13.5423H24.604C24.532 18.9543 24.724 23.0343 25.264 23.0583C25.396 23.0583 25.516 22.5183 25.564 21.6783C25.708 21.9063 26.056 22.1703 26.212 22.2663C25.972 23.8503 25.552 24.2463 25.216 24.2343C23.8 24.2103 23.704 19.8423 23.692 13.5423ZM27.088 14.4903H30.964V18.1143H27.088V17.3223H29.968V15.2823H27.088V14.4903ZM26.62 14.4903H27.616V20.5383H26.62V14.4903ZM27.1 18.7023H31.744V19.5183H27.1V18.7023ZM26.62 20.1303H30.928V20.9703H26.62V20.1303ZM27.124 15.9303H30.412V16.6503H27.124V15.9303ZM30.7 20.1303H31.588C31.588 20.1303 31.588 20.3703 31.576 20.5023C31.444 22.9623 31.324 23.8623 31.048 24.1983C30.868 24.4023 30.676 24.4863 30.388 24.5103C30.16 24.5343 29.74 24.5463 29.332 24.5223C29.308 24.2823 29.224 23.9463 29.116 23.7303C29.488 23.7663 29.824 23.7783 29.968 23.7783C30.124 23.7783 30.208 23.7663 30.292 23.6583C30.472 23.4423 30.592 22.5903 30.7 20.2743V20.1303ZM28.336 13.3743L29.464 13.5303C29.26 14.0823 29.032 14.6343 28.84 15.0063L27.976 14.8383C28.108 14.4063 28.276 13.7943 28.336 13.3743ZM26.44 21.4023L27.196 21.5943C27.1 22.5183 26.944 23.5503 26.524 24.1623L25.816 23.7783C26.188 23.2023 26.368 22.2663 26.44 21.4023ZM27.46 21.7863L28.096 21.6903C28.228 22.3263 28.3 23.1303 28.288 23.6463L27.604 23.7543C27.628 23.2263 27.568 22.4103 27.46 21.7863ZM28.48 21.6783L29.068 21.5343C29.272 22.0503 29.464 22.7103 29.524 23.1423L28.9 23.3103C28.84 22.8663 28.672 22.1943 28.48 21.6783ZM29.452 21.4623L29.992 21.2823C30.232 21.6663 30.472 22.1943 30.58 22.5303L30.016 22.7463C29.92 22.3983 29.692 21.8583 29.452 21.4623ZM25.48 18.1143L26.308 18.6303C25.66 20.5863 24.628 22.3623 23.236 23.6343C23.092 23.4423 22.792 23.1543 22.564 22.9983C23.908 21.7983 24.916 19.9623 25.48 18.1143ZM36.988 15.7263H38.08V18.6663C38.08 20.8743 37.648 23.2023 34.084 24.6063C33.94 24.3663 33.592 23.9583 33.352 23.7543C36.616 22.5063 36.988 20.5263 36.988 18.6663V15.7263ZM34.972 16.8903L35.824 16.5903C36.196 17.2863 36.568 18.1983 36.688 18.7743L35.788 19.1223C35.668 18.5463 35.332 17.6103 34.972 16.8903ZM40.264 17.1183L41.128 16.7823C41.584 17.5263 42.04 18.5103 42.208 19.1463L41.272 19.5303C41.128 18.8943 40.696 17.8743 40.264 17.1183ZM42.436 14.2983H43.54V21.2823C43.54 21.8943 43.444 22.2423 43.036 22.4343C42.652 22.6263 42.064 22.6383 41.128 22.6383C41.104 22.3143 40.972 21.7983 40.828 21.4743C41.428 21.4983 42.028 21.4983 42.196 21.4983C42.376 21.4863 42.436 21.4383 42.436 21.2703V14.2983ZM39.064 14.2983H42.964V15.3303H40.168V24.5223H39.064V14.2983ZM37.66 13.3983L38.308 14.3583C37.12 14.8503 35.464 15.3063 34.276 15.5703L33.724 14.6583C34.9 14.4063 36.604 13.8543 37.66 13.3983ZM33.712 22.0503L33.628 21.0543L34.144 20.6463L37.432 19.8303C37.42 20.1423 37.444 20.5863 37.468 20.8263C34.444 21.6663 34 21.8463 33.712 22.0503ZM33.712 22.0503C33.64 21.7863 33.4 21.3543 33.232 21.1503C33.448 21.0303 33.724 20.7783 33.724 20.2623V14.6583H34.84V21.0063C34.84 21.0063 33.712 21.6543 33.712 22.0503ZM45.604 14.2503H56.128V15.3663H45.604V14.2503ZM48.208 22.6383H54.94V23.7303H48.208V22.6383ZM47.728 18.2943H55.42V24.4863H54.208V19.3863H48.868V24.5223H47.728V18.2943ZM49.096 14.8263L50.308 15.1383C49.444 17.6103 48.004 20.1783 45.892 21.7503C45.7 21.4983 45.328 21.0903 45.088 20.8743C47.068 19.4583 48.448 17.0223 49.096 14.8263Z" fill="white"/>
</svg>
