<svg width="246" height="97" viewBox="0 0 246 97" fill="none" xmlns="http://www.w3.org/2000/svg">
<path d="M229.187 92.293L228.801 91.1328L229.012 90.7461H229.398L229.574 90.1836H229.961V89.5859H228.801L228.238 89.0234L227.852 90.3594H227.465V90.7461H227.078L226.902 91.3438L225.566 91.5195C224.301 91.1445 223.094 90.6289 221.945 89.9727L221.77 89.0234H222.156L222.332 87.2656L222.508 86.8789L222.156 86.1055L220.996 85.9297L220.609 87.0898C219.719 86.832 219.027 87.0898 218.535 87.8633L218.324 88.25C217.434 88.625 216.543 88.9414 215.652 89.1992L214.703 89.0234V89.7969C213.578 89.9141 212.57 90.2305 211.68 90.7461L211.469 91.3438L209.395 91.9062L208.621 91.7305L207.848 91.9062L206.898 90.7461C208.68 88.8242 209.629 86.5039 209.746 83.7852C209.77 82.3555 209.652 80.9375 209.395 79.5312L211.082 79.1445L211.469 80.1289L213.016 80.5156L213.965 81.2891C213.824 80.5156 213.941 79.8711 214.316 79.3555C214.246 77.9961 214.187 76.6367 214.141 75.2773L214.527 74.5039L214.316 73.9062H214.703L215.477 74.1172L216.039 73.1328H215.477V73.5195H215.09L213.367 72.957L212.629 73.3438L211.082 72.957L210.73 73.5195H210.344V73.9062H208.797C207.273 71.5859 206.453 68.9492 206.336 65.9961L205.562 65.3984V64.625H205V61.7422H205.773C206.781 62.1172 207.789 62.5625 208.797 63.0781L209.957 62.6914L210.133 63.0781H210.52V62.6914L211.082 62.1289L212.242 61.7422H212.629L213.578 62.3047L214.141 61.918V62.3047H214.703L215.652 62.1289L216.25 62.3047L217.586 61.5312V61.918H218.148H219.273L220.434 61.3555L220.82 61.1445L221.77 61.3555L222.508 61.1445V62.3047L223.105 62.5156V63.2891L222.719 64.2383L222.895 64.8359L222.156 65.9961H221.77C221.512 67.543 221.066 68.8906 220.434 70.0391L220.82 70.4258H220.434L220.047 70.25L219.273 71.7969L217.375 72.3594V74.1172C217.375 75.1484 217.117 75.9805 216.602 76.6133L217.375 77L217.586 77.5977H219.098C221.629 76.6836 224.23 76.0977 226.902 75.8398V76.4375L225.953 77.5977L224.793 77.9844L224.055 77.7734L223.844 78.582L222.895 78.3711C220.996 79.0273 219.027 79.6133 216.988 80.1289L216.812 81.4648L217.199 83.6094L216.988 84.1719L218.711 84.9453C219.719 84.3125 220.867 84.0547 222.156 84.1719V83.7852H223.281L223.492 83.0117H224.23V81.6758L224.055 81.0781L225.391 80.3047V79.5312L225.953 80.5156H226.727L227.289 79.3555L228.238 79.1445L229.012 79.3555C229.504 78.4414 229.75 77.3984 229.75 76.2266H229.187V75.6641L230.348 75.0664L230.523 74.293C230.148 73.1445 230.02 71.9258 230.137 70.6367L229.574 70.4258L229.398 69.8633L228.625 69.6523V69.2656L227.465 69.0898L227.289 68.4922L225.953 68.1055V68.4922L226.129 69.0898H225.566L225.18 68.1055L225.391 67.332L231.473 65.9961V65.6094L231.297 65.2227L231.473 65.6094H231.859L232.246 64.8359L231.859 64.625V63.8516H231.297V63.4648L231.473 62.6914L231.086 61.5312C231.484 61.0156 231.613 60.4297 231.473 59.7734H232.035L232.633 59.9844L232.809 59.3867L232.633 59L232.984 59.2109L234.145 59.3867L234.531 60.3711L235.867 60.9688V61.3555L235.656 62.3047L235.867 63.0781L236.043 63.6758L235.867 64.2383H236.254L236.816 65.0117H237.941L239.488 64.8359L240.227 65.2227L241.176 64.625L242.512 65.0117V65.3984L243.461 65.6094V66.7695L243.109 67.9297L243.461 68.3164H242.336L241.562 67.7188L241 67.9297L240.227 67.543L240.051 69.4766C240.051 70.5078 240.496 71.3398 241.387 71.9727L240.824 71.7969L240.437 72.5703L240.824 72.7461V73.1328L239.84 73.7305V74.1172L241 75.0664L241.562 74.1172C241.445 74.8906 241.703 75.3359 242.336 75.4531L242.512 74.8906L242.16 73.5195L244.234 72.5703L245.395 72.957L245.57 80.1289H245.008L244.797 79.5312L243.109 78.9688V80.1289L243.672 80.3047L243.848 81.0781L243.461 81.8516L243.672 82.625L243.461 83.2227H243.848V83.9961C243.848 84.8867 243.602 85.5312 243.109 85.9297L242.723 85.332H242.16V85.7188L242.898 87.4766L242.336 88.25L241.387 87.8633V88.25L241.773 89.1992L241.176 89.4102L240.051 90.5703L238.891 90.7461L238.715 89.7969L239.84 89.4102V88.8125H238.715V88.25L238.891 85.9297H238.328V85.543L238.715 84.7695H238.328V84.1719H238.715L238.891 81.4648H238.152V81.0781L238.539 80.1289H237.555C237.695 78.8164 237.578 77.5859 237.203 76.4375L237.379 75.8398H236.605L236.43 72.957L237.203 72.3594V71.5859L236.43 71.1992L235.867 70.0391H236.43V69.6523C235.023 69.0195 233.5 68.7031 231.859 68.7031V69.4766L232.035 70.0391L232.984 70.25C233.5 70.8828 233.699 71.5859 233.582 72.3594C233.184 73.1328 233.055 74.0352 233.195 75.0664L233.969 76.2266L233.582 76.4375V76.8242C234.074 77.1992 234.262 77.7148 234.145 78.3711L233.969 79.5312L234.531 82.625L234.32 83.2227L234.707 85.7188L234.531 87.2656L233.582 88.25L233.371 90.1836H232.633C232.75 90.957 232.434 91.4023 231.684 91.5195C230.793 91.6602 229.961 91.918 229.187 92.293ZM229.75 91.5195L229.187 91.3438V91.7305L229.75 91.5195ZM226.727 91.1328V90.7461H226.34V91.1328H226.727ZM229.574 88.6367L229.75 88.0391L228.414 87.0898V87.4766L228.801 88.6367H229.574ZM230.523 87.8633L230.699 87.2656L229.75 87.0898V87.4766L230.523 87.8633ZM241.387 87.8633V87.0898H241L240.613 87.8633H241.387ZM214.914 86.3164L214.316 83.9961H213.578V84.5586L213.754 85.1562H213.367L213.191 86.4922L214.914 86.3164ZM229.961 85.543L230.137 84.9453L229.75 84.7695V84.3828L229.398 85.7188L229.961 85.543ZM243.109 84.5586L242.512 83.9961V84.3828L243.109 84.5586ZM239.102 84.3828V83.9961H238.715V84.3828H239.102ZM229.75 83.7852V83.2227H229.187V83.7852H229.75ZM214.527 83.6094V83.2227L214.141 82.4492L214.316 81.6758H213.367L213.191 82.4492L213.367 83.6094H214.527ZM243.285 83.3984V83.0117H242.898V83.3984H243.285ZM229.012 82.2383L229.574 82.0625V81.6758L228.801 81.4648L228.414 82.4492L229.012 82.2383ZM243.109 81.4648L242.512 80.6914V81.2891L243.109 81.4648ZM210.344 80.6914L209.746 80.3047V80.9023L210.344 80.6914ZM243.285 78.7578V78.3711H242.723L242.336 79.1445H243.285V78.7578ZM244.445 78.582V78.1602H244.059V78.582H244.445ZM240.227 78.3711V77.5977H239.664L239.277 78.3711H240.227ZM244.059 77.9844V77.5977H243.285V77.9844L244.059 78.3711V77.9844ZM238.539 77.2109L238.891 76.4375L237.941 77.3867L238.539 77.2109ZM237.766 74.6797L237.555 73.5195L236.992 74.293L237.766 74.6797ZM211.855 74.5039L212.242 74.1172V74.5039H211.855ZM215.301 70.4258V70.0391C216.168 69.1719 217.117 68.3984 218.148 67.7188L218.324 66.9453L219.484 66.3828L220.047 64.2383L218.148 63.6758C216.25 63.5352 214.539 63.793 213.016 64.4492L211.293 64.2383C210.52 64.7539 209.688 65.082 208.797 65.2227V65.7852H209.184L209.395 66.5586L209.184 66.9453C209.441 67.4609 209.629 68.1055 209.746 68.8789C210.145 69.3945 210.473 69.9805 210.73 70.6367L211.293 70.8125C212.441 70.5547 213.449 70.168 214.316 69.6523L215.301 70.4258ZM231.473 69.8633L231.684 68.7031H231.086V69.8633H231.473ZM235.867 68.3164L234.918 67.543V68.1055L235.867 68.3164ZM241.387 66.7695L240.613 66.5586V66.9453L241.387 66.7695ZM220.434 64.2383V63.8516L219.871 63.6758V64.2383H220.434ZM217.586 63.4648L216.988 63.2891V63.6758L217.586 63.4648ZM232.809 63.0781L232.984 62.3047H232.422L231.859 62.5156V63.0781H232.809ZM234.707 62.6914V62.3047H234.32V62.6914H234.707Z" fill="#1A1A1A"/>
<path d="M185.359 96.3867L184.973 95.6133H184.41L183.848 95.7891V95.4023L181.738 95.2266C180.871 94.9688 180.051 94.6406 179.277 94.2422L178.715 94.4531L176.641 93.6797V93.082H175.867C173.852 92.5664 172.023 91.6641 170.383 90.375L170.207 89.4258C169.316 89.2852 168.555 88.8984 167.922 88.2656C167.172 90.4453 166.48 92.6367 165.848 94.8398L164.125 95.4023L163 94.2422L163.176 93.293L163 92.5195H163.562V91.9219L163.387 91.1484L163.562 90.7617L164.336 90.5859V89.9883H163.738V89.4258C164.254 88.3945 164.641 87.293 164.898 86.1211L165.461 85.9453C165.484 85.4531 165.355 84.9961 165.074 84.5742L165.637 83.625L165.285 83.0273L166.797 80.707H168.484L169.047 83.2383L170.77 84.1875L171.719 85.9453L172.105 86.1211L172.668 87.4922H173.055L173.406 87.2812L174.18 87.8789V88.8281H174.742L176.641 89.6016V90.5859H177.203L178.328 90.375L180.824 91.5352L181.562 91.9219L182.125 91.7461L182.336 92.5195H183.848L185.148 92.3086L186.098 92.6953C187.035 92.6484 187.984 92.5898 188.945 92.5195L189.719 92.9062L190.457 92.5195L191.406 92.6953L192.355 92.5195L192.566 94.6289L191.793 95.4023L190.668 95.6133L190.105 95.4023L188.559 95.7891L187.996 95.4023L187.82 96H187.047L186.695 95.7891L186.098 95.4023L185.922 96.1758L185.359 96.3867ZM191.617 94.4531L191.055 94.2422V94.6289L191.617 94.4531ZM184.586 93.082L184.023 92.5195L183.637 93.293L184.586 93.082ZM174.918 90.1992L174.355 89.6016V89.9883L174.918 90.1992ZM180.227 89.0391C179.594 88.3828 178.844 88.0547 177.977 88.0547L177.766 87.1055L177.414 85.9453H177.027V85.3477L177.414 83.8008H177.027C177.52 83.0273 177.836 82.1953 177.977 81.3047H177.414L177.027 81.8672L176.816 81.0938L177.59 80.707L177.766 79.5469H176.816V78.5625L177.977 78.3867V77.7891L177.203 77.6133V76.2422H177.59V75.4688L176.641 73.9219L175.305 74.3086L177.59 73.3594L177.766 72.9727H179.102V72.5859L177.766 72.375L176.641 72.7617L177.027 72.5859V71.9883L176.078 71.2148V72.1992L174.355 72.375L173.793 73.9219H174.18L173.406 73.5352L173.23 72.7617L173.793 72.5859L173.969 71.9883H172.844L172.457 73.1484L172.668 74.1328L171.508 74.6953L171.332 75.293H170.383V76.2422H169.82L169.434 75.293L168.871 75.082V74.5195H168.484V73.7461H168.098L167.922 72.5859L168.695 72.375L168.871 71.6016H168.098L167.922 71.0391L168.309 69.1055L167.922 68.8945L167.746 67.5586L168.695 67.3477V66.9609H168.309V66.5742L168.695 66.0117H167.746V65.0273L169.645 63.6914L169.996 62.3203C170.887 61.6875 171.965 61.4297 173.23 61.5469V61.1602H173.793V61.5469L173.617 62.3203L174.742 60.9844H175.516V61.3711C176.266 61.418 176.957 61.2188 177.59 60.7734V61.1602H178.152V61.5469L177.977 62.1445L178.926 62.5312L179.102 61.5469L180.051 61.1602L180.438 61.9336L181 62.1445V61.7578L180.824 61.1602L181.387 60.5625H182.125L182.512 61.3711H183.461L183.637 60.5625L184.797 60.3867V60H185.359C185.359 60.9141 185.676 61.6289 186.309 62.1445C185.793 62.5195 185.219 62.6484 184.586 62.5312V63.0938L186.309 63.3047L185.746 65.625C186.238 66 186.426 66.5742 186.309 67.3477H186.695L187.258 68.7188L188.207 69.2812L188.559 70.6523L187.434 70.4414L186.871 71.9883L186.695 72.7617L185.922 72.9727L185.746 73.3594L183.848 73.5352V73.1484L182.688 72.7617V72.375L183.074 71.6016L182.512 71.4258L181.738 71.9883V72.5859L182.336 73.7461L182.125 74.3086L182.336 74.9062H181.738V75.293L182.336 75.6797L182.512 77.0156L183.637 78H184.586V79.1602L183.285 80.1445L182.336 79.3711L181.949 81.0938H182.336V81.8672H183.074L183.285 81.0938L184.234 80.918L184.41 80.5312L184.797 79.9336L185.922 79.7578V79.3711H186.309L187.047 79.7578V78.9844H187.82V79.7578H188.383L188.945 80.3203L189.156 79.7578L188.945 79.3711L189.156 78.9844C189.156 79.6172 189.402 80.0039 189.895 80.1445L190.281 78.5625H190.668L191.055 80.3203L190.844 80.707L189.508 80.918L188.945 80.707L188.77 81.3047L189.895 81.6914V82.0781L188.945 82.2539V81.8672H188.383V82.2539L186.871 81.0938L186.098 82.0781H186.484V82.4648L185.148 82.8516L184.797 82.6406L185.148 82.4648L185.746 80.707H185.359L184.023 81.6914L183.637 82.2539L182.512 82.6406L180.824 82.2539V82.6406L181.738 83.4141V83.8008L180.438 84.7852L180.227 85.3477H180.613L181.176 85.1719L181.738 85.3477L180.438 85.9453L180.227 86.7188H180.613L182.125 86.5078L182.336 87.1055L181.949 87.2812L181.387 88.0547H180.613V87.4922H180.227L179.875 88.2656L180.227 89.0391ZM170.559 85.9453L170.77 85.1719H170.207L169.645 85.3477V85.9453H170.559ZM179.277 86.1211V85.5586H178.328V86.1211H179.277ZM169.258 85.5586V85.1719H168.871V85.5586H169.258ZM178.926 84.9609V84.5742L178.152 84.1875V84.5742L178.926 84.9609ZM180.438 80.3203V79.7578H179.488V80.1445L180.438 80.3203ZM180.227 79.5469V78.7734H179.488V79.3711L180.227 79.5469ZM178.328 78.9844V78.3867H177.766V78.7734L178.328 78.9844ZM182.336 79.1602V78.7734L182.898 78.5625L183.074 77.6133H182.688L182.336 78.3867H181.738V79.1602H182.336ZM184.234 78.7734L183.461 78.3867L183.285 78.9844L183.848 78.7734H184.234ZM179.664 78V77.4023H179.102V78H179.664ZM178.926 77.0156L178.328 76.8398V77.2266L178.926 77.0156ZM179.277 76.4531L179.664 75.4688H178.539L178.328 75.8555L178.152 76.2422H178.715V76.6289L179.277 76.4531ZM169.645 73.7461L169.82 73.1484H169.434L169.047 73.9219L169.645 73.7461ZM184.234 72.5859L183.637 72.1992V72.5859H184.234ZM174.355 71.9883L174.566 70.6523L174.355 70.2656H173.969L173.617 71.2148L174.355 71.9883ZM179.875 71.9883V71.4258L180.438 70.8281H180.824L181.562 70.4414V70.0547L181.387 69.668L182.336 69.8789L182.898 68.8945L182.336 68.7188L182.125 68.1211L182.898 67.1719H182.125L181.949 66.3984L182.336 65.625H183.637V65.2383L182.125 64.8516V63.0938L180.613 62.918C179.98 63.293 179.289 63.4805 178.539 63.4805L177.59 62.3203L176.816 61.5469V62.1445L177.203 63.0938L177.766 63.4805L177.027 63.3047V62.918H176.641C176.125 63.293 175.492 63.4219 174.742 63.3047L174.566 63.6914H174.18L173.617 62.918L172.281 62.5312L172.105 66.0117L171.508 66.1875V67.9453L172.105 69.1055L171.508 70.2656L172.457 70.4414L172.668 71.0391H173.406L173.617 70.2656L173.969 69.8789H174.566L175.516 70.2656V69.668L176.641 70.0547V70.6523L177.59 70.8281L177.977 69.668L178.539 70.2656H179.488V70.6523H179.102L178.926 71.6016L179.875 71.9883ZM182.125 71.4258L182.898 70.2656H181.949L181.562 71.6016L182.125 71.4258ZM178.926 71.0391V70.2656H177.977V70.6523L178.926 71.0391ZM176.254 70.4414V69.8789H175.516V70.4414H176.254ZM183.637 68.332L183.074 67.9453V68.332H183.637ZM169.047 68.1211L168.484 67.9453V68.332L169.047 68.1211ZM170.77 67.5586V66.9609H170.207V67.5586H170.77ZM185.359 66.3984V66.0117H184.973V66.3984H185.359ZM184.797 65.625L184.41 64.8516H183.848V65.4141L184.797 65.625ZM173.055 65.0273L172.668 63.8672L172.844 63.4805H173.406L173.617 64.8516L173.055 65.0273ZM185.148 64.8516L185.359 64.0781L184.023 63.6914V64.0781L184.586 64.4648V65.0273L185.148 64.8516ZM182.898 64.8516V64.2539H182.336V64.8516H182.898ZM182.688 62.918L182.125 62.1445V62.707L182.688 62.918ZM184.586 61.1602V60.5625H184.023V61.1602H184.586Z" fill="#1A1A1A"/>
<path d="M132.945 96.6957L133.156 95.9222L132.77 93.9886L133.719 93.6019C133.531 92.8285 133.344 92.055 133.156 91.2816L133.543 90.6839L132.77 90.5082L132.207 90.6839L128.973 89.9105V89.5238H128.41V90.2972H128.023L127.848 89.5238L127.285 89.348V88.5746H126.898L126.336 89.5238L125.773 89.7347L125.176 88.5746L125.387 87.9769H124.438L123.875 88.1878L123.664 87.5902C123.172 87.473 122.984 87.0863 123.102 86.43L123.875 85.6566C126.898 86.8285 129.805 88.1175 132.594 89.5238L133.156 87.5902L133.543 87.2035V86.8167L132.594 84.8832L133.543 84.7074V84.1097H133.156V84.4964H132.77L132.594 84.1097L132.945 83.723L131.258 82.1761H130.484L129.535 82.3871C128.785 81.6136 127.906 81.2269 126.898 81.2269L126.512 81.7894L126.125 82.5628H125.176L125 80.0667L125.387 79.4691L127.637 79.2933L128.234 79.68C128.352 79.1644 128.727 78.9652 129.359 79.0824V79.4691H130.133V78.6957H130.695L131.434 78.9066L132.207 78.4847L133.156 79.0824L133.332 78.098L132.383 77.9222V77.3246L134.668 76.5511L134.844 75.7777H133.895V75.2152L134.281 74.055L133.719 73.8441V74.2308H133.332L133.156 73.6683H132.594L131.434 74.055L129.922 73.0707L129.535 71.7347L127.848 73.4574H127.285L127.074 72.5082H126.512L126.898 70.9613H127.637L130.309 71.348L130.871 71.1371L131.047 71.9105H131.645V71.5238H134.457L135.23 72.2972V71.5238H135.617L138.254 72.2972L139.027 71.9105L140.363 72.6839C140.598 73.0824 140.973 73.2816 141.488 73.2816V73.8441H142.051V73.2816H142.438L143.562 73.8441V74.2308H144.125L144.512 74.055V74.8285H143.773V75.2152L144.336 76.1644H143.562V76.5511H143V76.1644H142.438C141.664 76.5628 140.844 76.7621 139.977 76.7621L138.465 77.7113L138.254 78.4847C138.887 78.8832 139.145 79.4105 139.027 80.0667L139.203 80.4535L139.977 80.6292L141.875 79.8558L142.051 80.4535H142.438L143.773 80.2425L143.949 80.6292H144.512L145.074 82.3871H144.336V82.7738L145.074 82.9496V83.3363L144.512 83.5472L144.336 84.1097L143.949 82.9496H143.176L142.824 84.4964H142.227L141.875 83.9339H140.715L140.539 84.7074H140.152L139.203 84.4964L138.816 85.2699L139.027 86.641C138.395 86.5003 138.008 86.6878 137.867 87.2035V87.9769L138.465 88.3636V89.5238L138.816 89.9105L138.465 91.0707H137.691L137.516 91.8441L137.691 92.4417L136.355 92.6175V93.391H137.516L138.078 93.0042L137.691 94.1644L136.953 94.3753L136.742 95.5355C135.477 96.0511 134.211 96.4378 132.945 96.6957ZM135.793 95.3246L136.004 94.7621H135.406V95.3246H135.793ZM116.281 92.055C116.164 91.2816 115.719 90.9535 114.945 91.0707L114.594 89.7347L113.996 89.5238V88.7503L114.77 86.0433L114.594 84.8832L114.945 83.3363L114.77 82.5628H115.156V82.0003L114.77 80.8402L115.156 80.0667H114.77V79.4691L115.156 77.1488L114.77 76.1644L113.996 75.9886L113.645 76.7621H112.309V76.3753H111.746C111.746 77.5238 111.488 78.3675 110.973 78.9066L110.586 77.5355H110.023L108.336 78.098C107.562 77.8402 107.117 77.3246 107 76.5511L113.047 69.8011L113.434 69.2035L114.594 68.43L114.945 67.6566C115.578 66.8832 116.398 66.3675 117.406 66.1097L117.617 64.9496H120.641L121.203 65.723H121.977V66.7074L121.414 66.8832L120.816 68.43H120.254L119.305 68.2542L119.129 68.8167L120.078 69.0277V69.8011H119.691L118.953 69.4144L118.742 69.9769H119.129V70.3636L118.355 72.2972L118.953 75.6019L118.566 76.9378L118.953 77.7113L118.742 79.2933L118.355 80.0667L118.742 80.2425L118.953 81.2269H118.18V81.7894H118.953V82.1761L118.566 83.1605H118.18L118.004 84.3207L118.953 85.0941L118.355 85.2699V85.6566L118.566 86.2542H117.793V86.641L118.355 87.4144L117.617 87.5902V87.9769L118.18 88.3636L118.355 88.9613H117.617L117.406 90.5082L117.055 89.7347H116.457V90.2972H116.844V90.6839L116.281 92.055ZM137.516 90.5082L137.129 90.1214V90.5082H137.516ZM134.281 90.2972L134.457 89.7347L133.156 89.5238V90.1214L134.281 90.2972ZM126.512 87.8011L125.949 87.5902V87.9769L126.512 87.8011ZM142.227 83.5472L141.664 82.9496V83.723L142.227 83.5472ZM141.102 83.3363L141.277 82.7738L140.363 82.0003V82.3871L141.102 83.3363ZM127.074 82.5628V82.0003L127.637 81.7894V82.3871L127.074 82.5628ZM139.027 82.5628L138.641 82.1761V82.5628H139.027ZM130.871 81.6136L131.047 81.016L130.484 80.8402V81.6136H130.871ZM126.512 81.4027L126.723 80.6292H125.949V81.4027H126.512ZM142.227 81.6136V81.2269L141.488 80.8402V81.2269L142.227 81.6136ZM125.773 80.8402L125.949 80.2425H125.387L125.176 81.016L125.773 80.8402ZM138.465 76.7621L138.641 76.1644H138.254L137.867 76.9378L138.465 76.7621ZM139.977 76.5511L140.363 76.3753V75.7777H139.977L139.59 76.7621L139.977 76.5511ZM141.875 76.1644V75.6019L141.102 75.2152V75.7777L141.875 76.1644ZM136.742 75.7777L137.129 74.8285H136.742L135.23 75.2152V75.9886L136.18 76.1644L136.742 75.7777ZM138.816 75.6019V75.2152L138.641 74.055H138.254L137.691 74.2308V74.8285L138.816 75.6019ZM143.387 74.6175L142.824 74.2308V74.8285L143.387 74.6175ZM137.691 70.1878L136.742 69.5902C136.883 68.9574 136.695 68.641 136.18 68.641L135.055 69.2035L134.844 68.43H134.105V68.8167H133.719L133.543 68.0433L131.996 67.4808V67.8675L132.207 68.43L131.258 68.641L130.309 67.4808L128.973 67.0941V66.4964L129.359 65.3363L128.797 65.1605V64.7738H127.637V64.3871C127.895 61.6683 128.469 59.0199 129.359 56.4417L130.484 56.055L132.207 56.4417L133.156 56.2308L134.105 56.6175V57.0042H134.668L135.055 56.055H141.664V56.4417H142.051C142.309 56.0433 142.754 55.9144 143.387 56.055L143.773 57.6019L143.387 59.1488L143.562 59.7113L143.387 60.3089H143.949L142.824 63.2269L142.227 63.6136L142.051 64.1761L139.977 65.3363L139.766 65.9339L138.465 65.5472V65.1605L139.59 65.3363V64.7738L138.641 64.5628V64.1761L139.203 63.6136L138.641 63.4027V62.8402L139.027 61.4691L138.816 60.9066L137.691 62.4535L136.953 62.6292L134.844 62.0667L134.105 62.2425V62.8402L131.82 63.2269V63.7894L130.133 64.0003V64.7738C132.523 65.9222 135.102 66.4964 137.867 66.4964V66.8832H138.254L138.816 66.7074C140.34 67.223 141.863 67.6683 143.387 68.0433V69.0277L141.488 69.5902L141.102 69.4144L139.027 69.9769L138.816 68.8167H138.254V69.4144L137.691 69.5902V70.1878ZM118.742 69.2035L118.355 68.8167V69.2035H118.742ZM117.793 67.8675L118.004 67.2699L117.406 67.0941L117.23 67.6566L117.793 67.8675ZM111.746 67.2699V66.3207L110.797 65.9339L110.41 65.1605L109.848 64.9496L109.637 65.723L109.848 66.3207L109.285 66.4964L109.074 65.9339L109.285 64.7738C110.035 64.6332 110.727 64.305 111.359 63.7894L112.309 64.1761V63.7894L111.746 62.8402H112.309V62.4535H111.535L112.695 62.0667L113.258 62.4535C113.75 61.5394 113.938 60.4964 113.82 59.3246L115.332 59.1488L115.719 58.1644L116.457 57.7777L116.668 57.391H117.23L117.793 57.6019L118.742 57.2152L120.078 58.1644V58.5511H120.465V58.9378H121.203V59.5355L120.641 60.6957L118.18 61.0824V61.4691H118.742C118.625 62.1253 118.25 62.3832 117.617 62.2425L117.406 63.4027C116.914 64.1058 116.293 64.6214 115.543 64.9496L114.945 63.7894H114.383L113.996 66.3207L112.133 66.4964L111.746 67.2699ZM113.434 65.3363V64.7738L111.746 64.3871L111.359 65.3363L112.871 65.5472L113.434 65.3363ZM129.535 64.3871V64.0003L129.184 64.3871H129.535ZM133.719 62.2425L133.332 61.8558V62.2425H133.719ZM137.516 62.0667L136.953 61.8558V62.2425L137.516 62.0667ZM133.332 61.4691V61.0824H132.945V61.4691H133.332ZM118.004 61.0824L117.617 60.3089L118.18 60.098L118.742 60.3089L119.129 59.9222L120.078 60.4847L120.254 59.5355L120.078 58.5511L118.004 57.9886L117.793 58.3753L116.105 58.5511L115.895 59.3246L116.281 60.3089H117.055L117.23 61.4691H118.004V61.0824ZM138.078 60.9066L137.691 60.4847L137.516 61.0824L138.078 60.9066ZM115.332 60.6957L115.719 59.7113H115.332L114.77 60.6957H115.332ZM139.414 59.3246V58.9378C138.641 58.4222 137.82 58.1058 136.953 57.9886L137.516 57.2152H136.18L135.793 57.391L135.617 57.0042H135.23L134.668 57.391L133.719 57.0042L133.543 58.1644C134.668 58.8207 135.863 59.2074 137.129 59.3246L137.691 59.1488L139.414 59.3246ZM142.613 58.3753L142.051 58.1644V58.5511L142.613 58.3753ZM138.816 57.7777L137.867 57.2152V57.7777H138.816ZM139.59 57.7777V57.391L139.027 57.2152V57.6019L139.59 57.7777ZM143 57.391V56.8285H142.613V57.391H143ZM132.594 57.2152L131.996 57.0042V57.391L132.594 57.2152Z" fill="#1A1A1A"/>
<path d="M80.5469 88.75L80.3359 88.1875L80.8984 87.9766V87.2031H79.9492L79.7734 87.9766L79.9492 88.3633H79.5625C78.2969 88.1055 77.0195 87.918 75.7305 87.8008L75.5547 87.0273H74.9922L74.7812 85.2695L75.3438 84.4961L74.7812 84.3203L73.832 85.8672L73.6211 85.2695L73.832 84.4961L73.0586 83.9336L72.8828 83.3359L73.0586 82.3867H72.4961L72.1094 82.5625C71.9688 81.2734 71.7109 80.0547 71.3359 78.9062L72.1094 79.6797L72.2852 79.082L71.7227 78.4844V76.9375L71.1602 76.7617V76.375L70.9492 75.9883L71.7227 75.7773L71.8984 75.2148L71.3359 74.8281V73.457L71.7227 72.6836H72.4961L72.6719 71.9102L74.6055 71.5234L74.9922 72.6836H75.5547V73.0703L74.9922 73.2812L74.6055 72.6836H74.2188L74.0078 73.2812L74.2188 73.8438L75.168 74.0547V75.0039L74.6055 77.1484L74.7812 77.7109H75.9414L76.1172 78.6953C76.6328 78.8359 76.832 79.2227 76.7148 79.8555L76.5039 80.2422L77.0664 80.4531L76.7148 81.2266L77.2773 81.4023L77.4531 82.5625V82.1758H77.0664L76.3281 82.3867V82.9492L76.5039 83.5469H76.8906L78.2266 83.1602L79.1758 83.5469L79.3867 84.1094L80.5469 84.8828L80.1602 85.8672H80.7227L82.0586 85.6562C83.582 85.3984 84.9883 84.9531 86.2773 84.3203V84.8828H85.5039L85.3281 85.8672L84.5547 86.043L84.3438 86.6406L84.5547 87.2031H83.2188L82.6211 87.0273L82.2695 87.8008L81.6719 87.9766L81.2852 88.5742L80.8984 88.3633L80.5469 88.75ZM82.6211 88.3633V87.9766H83.2188V88.3633H82.6211ZM63.1094 87.5898C62.4766 87.2148 61.7734 86.957 61 86.8164L61.7734 86.6406V86.043H61.1758V84.8828L61.5625 83.5469L61 83.3359V82.3867L61.5625 82.1758V81.7891C61.1875 81.1562 61.0586 80.4531 61.1758 79.6797C61.0586 78.1094 61.5742 76.8086 62.7227 75.7773L64.4453 74.8281L64.2695 75.3906L64.832 77.1484L64.0586 77.3242V77.7109L64.2695 78.4844L64.0586 79.082L65.0078 79.293L65.2188 81.4023H63.4961V81.7891L64.6211 82.7734L64.4453 83.3359H64.832L64.6211 84.1094H65.2188L65.3945 84.4961L64.2695 84.8828L63.8828 85.4805H64.4453L64.2695 86.043L63.1094 86.2539L62.8984 87.0273L63.4961 87.2031L63.1094 87.5898ZM77.0664 87.2031L76.1172 86.6406V85.8672H75.5547V86.8164L75.7305 87.5898H76.1172L77.0664 87.2031ZM82.0586 86.6406L81.2852 85.8672V86.4297L82.0586 86.6406ZM77.8398 86.2539L77.2773 85.8672V86.2539H77.8398ZM80.3359 86.4297V86.043H79.9492V86.4297H80.3359ZM79.1758 86.043L79.3867 85.4805H79.7734V84.707H79.1758L78.6133 85.8672L79.1758 86.043ZM79.1758 84.4961V83.9336L78.6133 84.4961H79.1758ZM64.0586 83.7227L63.4961 83.5469V83.9336L64.0586 83.7227ZM75.3438 83.5469V82.5625H74.7812L74.6055 83.3359L75.3438 83.5469ZM73.832 82.9492L74.0078 82.3867H73.4453V83.1602L73.832 82.9492ZM75.7305 82.1758V81.6133H75.168V82L75.7305 82.1758ZM74.2188 80.6289L73.2695 79.8555V80.4531L74.2188 80.6289ZM64.2695 80.6289V80.0664H63.6719V80.4531L64.2695 80.6289ZM76.3281 79.293L75.7305 79.082V79.4688L76.3281 79.293ZM75.7305 78.6953V78.3086L75.168 78.0977V78.4844L75.7305 78.6953ZM74.3945 77.1484V76.5508H73.832V77.1484H74.3945ZM80.3359 75.3906L79.3867 74.2305L79.1758 72.8945L78.6133 72.6836C77.7227 71.0195 77.207 69.2148 77.0664 67.2695L77.4531 66.3203L78.0508 66.1094L78.8242 66.4961L79.7734 66.3203V66.707L78.0508 66.8828V67.2695C78.9414 67.4102 79.5156 67.7383 79.7734 68.2539L79.5625 68.8164L81.4961 69.8008V70.1875H80.1602L79.5625 69.9766V69.5898H79V69.9766L79.5625 70.75H80.1602L80.7227 71.5234H82.0586L82.4453 72.5078H82.832V72.8945L82.2695 73.0703L82.0586 74.0547H82.6211V74.4414L82.2695 75.0039L80.3359 75.3906ZM72.2852 74.8281V74.2305H71.7227V74.8281H72.2852ZM81.4961 73.457L81.1094 73.0703V73.457H81.4961ZM87.6133 73.0703L87.8242 72.2969H87.0508C86.6523 69.9766 86.2656 67.6562 85.8906 65.3359L86.4531 63.6133H86.8398L87.4375 64L87.6133 63.6133H88V64.5625L87.6133 65.9336H88V65.5469H88.3867L88.7734 65.7227L88.9492 67.2695L89.5469 68.043H89.1602L88.3867 67.4805V67.8672L89.3359 69.0273L88.9492 69.8008H89.5469V70.75C89.0312 70.8906 88.7031 71.2773 88.5625 71.9102L88 73.0703H87.6133Z" fill="#1A1A1A"/>
<path d="M117.582 40.5469L116.984 40.3359V39.3867L117.195 38.0156L116.809 36.6797L117.195 35.5195L116.984 33.9727C117.242 32.2852 117.43 30.6445 117.547 29.0508C117.688 27.4336 117.887 25.7812 118.145 24.0938L117.934 23.1094L118.531 22.9336V22.3359H117.758V21.9492L117.934 21.1758C117.699 20.6602 117.254 20.4727 116.598 20.6133L115.859 19.0664L116.809 18.8555V18.4688L115.297 18.082L114.91 18.8555L113.75 19.6289L113.574 20.4023H114.312V20.7891L112.625 21.1758V21.7734L112.801 22.1602H113.188V21.5625H113.574L113.75 22.3359H113.188L113.012 23.3203L113.363 23.707L112.238 24.4805V24.8672L112.625 25.6406L112.414 26.8008H112.801V27.1875L113.363 27.7852L113.012 28.3477L113.188 28.9453L112.238 28.7344L112.027 29.5078H112.414L113.363 30.4922V31.2656L112.801 31.4414L111.852 31.2656L110.727 31.6523V32.0391L110.129 33.1992H109.742V33.5859V32.9883V31.8281H109.18V30.2812H109.566L109.742 31.6523H110.516V31.2656L110.34 30.668L110.516 30.1055L109.391 29.5078V28.7344L110.34 28.1719V27.3984H109.953L109.566 27.5742V27.1875L110.34 26.8008L110.516 26.2383H109.391L110.129 25.4297V24.8672L109.18 23.3203H109.566L109.742 22.7227L110.902 22.3359V21.7734L110.516 20.4023H109.742V19.4531L110.727 18.082L109.953 16.3594L110.516 16.1484L112.027 16.7461L112.238 17.3086H113.012L113.188 16.3594L112.625 15.9727L111.852 15.375V14.9883H111.078V15.375H110.516V14.9883H111.289L111.465 13.8281L111.289 12.8789L111.852 12.1055H112.238L113.574 12.668V11.8945H112.801V11.1211L112.238 10.9453L111.852 9.78516L112.414 9.57422V9.01172L113.012 9.01172L114.137 9.39844L114.699 9.1875L116.598 9.78516L117.195 9.57422L118.145 9.96094L118.707 9.78516V10.5586H119.094L119.48 9.78516H120.43L121.766 10.3477L121.555 11.1211H122.152V11.5078L122.715 10.7344L122.504 10.1719L123.664 9.96094V10.3477L123.277 11.1211H123.664L123.277 12.4922H123.84L124.438 11.5078L124.613 12.668H123.84L123.664 14.9883H122.504L122.328 14.4258H121.941L120.992 14.6016L120.816 14.0391H120.219L119.656 14.2148L117.934 13.6523V14.8125C117.301 14.4141 116.609 14.2852 115.859 14.4258L115.473 13.6523L114.699 13.4414V13.0547L114.91 12.4922L114.699 11.8945H114.137C113.855 12.6914 113.914 13.4648 114.312 14.2148L112.801 14.4258L112.238 14.2148V14.6016C112.613 15.2578 113.117 15.5156 113.75 15.375V16.1484L113.574 16.9219L114.91 17.1328V16.7461L115.297 17.1328L115.859 16.5352H116.246L116.422 17.5195H116.809L117.582 16.5352H118.145V16.9219H117.582V17.3086L117.934 18.6797H118.32L118.883 17.3086H119.48V16.7461L121.379 16.5352L121.555 17.3086H122.152L122.328 16.5352L123.277 16.9219L123.664 16.7461L124.051 17.3086L124.613 17.9062L124.227 19.0664L124.613 20.0156L123.488 20.2266V20.7891L123.84 21.5625L122.504 20.7891V20.0156L121.941 19.8398C122.082 19.1836 121.895 18.7969 121.379 18.6797L121.203 19.8398L121.379 20.2266L120.992 20.2266V20.6133L121.203 21.7734L120.816 22.3359L121.203 22.5469L120.605 23.1094V22.3359H119.867L119.656 24.2695H120.605L121.203 24.0938V24.6563L120.219 24.6562V25.043L120.992 26.8008L120.43 26.0273L119.867 25.8516L119.27 23.4961L118.707 23.3203L118.32 24.0938C118.695 24.6094 118.953 25.2539 119.094 26.0273L120.043 26.625V27.0117H119.656V27.3984L120.43 29.1211L119.656 29.332V29.8945L120.605 32.4258L120.219 33.1992L120.816 33.375L120.992 34.7461L120.605 35.5195H120.219V36.082C120.617 36.7383 120.746 37.4531 120.605 38.2266L120.219 39.5625C119.211 39.5625 118.332 39.8906 117.582 40.5469ZM98.9141 39.1758L98.7031 38.4023H98.3164L98.1406 37.0664L98.5273 36.082H97.9648V35.3086L98.3164 34.3594H97.7539V33.7617L98.5273 33.5859V32.8125L99.4766 32.2148L99.6523 31.6523H99.2656L98.3164 31.8281L97.9648 30.8789L98.5273 29.8945L97.3672 29.7188V29.332L97.9648 28.3477L97.5781 28.1719V27.3984H97.9648V27.0117L97.1914 26.8008L96.8047 27.7852H95.4688L94.3438 27.5742L93.7461 28.7344L94.1328 29.5078L93.957 30.2812L95.082 30.4922L95.4688 29.7188V31.0547L93.7461 31.4414L93.1836 32.4258L92.0586 32.6016L91.0742 31.0547H90.3359C90.0781 30.6797 89.6328 30.4922 89 30.4922V29.7188L89.3867 28.7344C90.1367 28.2188 91.0273 27.9023 92.0586 27.7852V27.3984H92.7969L93.3594 26.8008L94.5195 27.3984V26.625H94.9062V25.8516H95.4688L96.0312 26.0273L96.6289 24.6562L97.9648 24.8672L98.1406 24.2695L97.5781 23.3203L96.8047 23.1094V22.3359H96.418L95.4688 22.9336L94.5195 22.7227L93.7461 23.1094L92.4102 22.7227L91.8477 22.9336V23.3203H91.2852L90.5117 22.9336L90.125 21.7734L89.5625 21.5625L89.3867 22.7227H89V22.3359L89.1758 21.3867H89.5625V20.6133H90.3359V20.2266H90.7227L91.2852 20.6133L91.4609 19.8398H92.0586L92.6211 20.0156L92.7969 19.4531H93.1836L93.0078 19.8398L93.957 20.4023L94.6953 19.4531L95.8555 19.6289L96.2422 19.4531L96.418 20.2266H96.8047L98.1406 19.6289L98.7031 17.5195L97.9648 15.9727L97.3672 15.7617L97.1914 14.9883H96.8047L95.8555 16.1484H96.9805L96.0312 16.5352L94.9062 16.3594L93.957 16.5352L93.3594 16.3594L92.6211 15.7617L92.0586 15.9727L91.2852 15.7617V15.375H93.0078V14.6016L92.4102 14.4258L91.8477 14.6016V14.2148H91.4609L91.0742 14.8125H90.5117L90.125 14.2148H89.5625L90.3359 13.8281L90.8984 13.2656L91.6719 13.4414L93.3594 12.8789L93.7461 11.7188L94.5195 11.1211L93.5703 10.9453L93.1836 11.1211L93.7461 10.9453V10.5586H94.3438L96.2422 11.8945V11.332L96.418 12.668L96.9805 12.8789L97.5781 13.2656L100.039 13.0547L100.25 13.8281H100.988L101.199 12.668L101.762 12.4922V11.7188H101.375V10.9453L101.551 10.3477L100.812 8.80078L99.6523 8.41406V9.1875H98.3164L97.7539 9.01172V8.625L96.418 8.41406V9.57422H94.9062L94.3438 8.41406L93.3594 8.23828V9.01172L91.8477 8.80078L91.0742 9.1875L90.8984 8.41406L90.3359 8.23828L90.125 8.625H89.5625V8.23828L90.3359 7.85156L90.7227 7.25391L91.4609 7.64062L92.0586 8.23828L92.6211 6.86719L91.2852 6.48047L92.4102 6.26953L93.3594 7.04297L95.4688 6.09375L96.6289 6.48047V6.09375L96.418 5.49609L96.8047 4.72266L97.9648 3.94922L98.1406 3.5625H98.5273V3.94922H99.2656L99.4766 3L101.762 3V3.77344L101.551 4.93359L101.938 6.26953L102.535 6.65625H103.098V5.70703L104.434 6.09375V5.70703H105.383L105.559 8.02734H105.945L106.121 9.39844H105.172L104.434 10.3477L103.484 10.5586L103.273 11.1211L104.047 11.5078L103.484 11.7188V12.1055L104.609 12.4922V13.2656L105.77 13.2656L106.895 12.8789L107.457 14.0391L107.281 14.6016L107.457 15.5859L106.508 15.7617L105.945 15.5859L104.996 15.7617V16.1484L104.047 15.7617L103.66 16.3594L102.711 15.7617L101.938 16.1484L101.199 16.9219L99.2656 15.9727L98.9141 17.5195H99.6523V18.082H100.039V18.4688L99.8633 19.0664L100.039 19.6289H100.602L100.988 18.8555L100.812 18.4688L101.938 20.0156H102.887V19.6289H103.836V19.0664H104.223C104.223 19.957 104.48 20.5312 104.996 20.7891V19.8398H105.559V20.2266L106.508 20.6133L108.055 21L108.441 21.9492H107.844V22.3359L108.441 22.7227V23.3203L107.844 23.4961L107.668 23.8828L106.508 24.4805L105.559 24.0938L105.172 22.9336L105.945 21H105.559C105.066 21.6328 104.82 22.3359 104.82 23.1094H104.047L103.484 22.7227V23.4961L102.535 23.8828L102.324 23.1094H101.938L101.199 24.6562L103.098 27.3984L102.887 27.7852L104.996 27.9609L105.559 28.9453L105.945 29.1211L106.121 29.8945L106.895 30.1055L107.281 31.4414L106.508 31.2656V32.4258H106.121V31.6523L105.383 32.4258H104.82L104.609 31.8281L103.836 31.6523L103.66 30.668L103.098 30.4922L102.148 30.668V31.0547L101.551 30.2812L101.762 29.5078L100.988 29.332L100.25 30.2812L99.0898 30.668V31.0547L100.25 31.4414V31.8281L99.8633 32.6016L100.812 33.5859V34.5352L100.426 36.293L101.199 37.2422H100.426L99.8633 37.0664V37.4531L100.039 38.0156H99.6523V38.4023L99.8633 39L98.9141 39.1758ZM99.6523 38.2266V37.6289H99.0898V38.2266H99.6523ZM119.867 37.4531V37.0664H119.48V37.4531H119.867ZM119.27 36.6797L118.707 36.4688V36.8555L119.27 36.6797ZM119.867 35.5195L119.48 35.1328V35.5195H119.867ZM117.582 35.3086L117.195 34.9219V35.3086H117.582ZM99.0898 35.3086V34.7461H98.3164V35.3086H99.0898ZM100.039 34.7461L99.4766 34.1484V34.5352L100.039 34.7461ZM120.219 33.5859L119.656 32.9883V33.375L120.219 33.5859ZM111.465 33.1992L111.289 32.4258L112.625 32.0391V32.4258L111.465 33.1992ZM119.656 32.6016V32.0391H119.094V32.4258L119.656 32.6016ZM93.1836 31.8281V31.2656H92.6211V31.8281H93.1836ZM105.559 31.6523V31.2656L106.508 30.1055L105.945 29.8945L105.77 30.2812L104.996 30.668L104.82 31.4414L105.559 31.6523ZM112.027 30.1055V29.1211H111.465V29.8945L112.027 30.1055ZM100.25 29.5078L100.602 28.5586H99.4766V29.1211L99.6523 29.7188L100.25 29.5078ZM98.5273 28.9453V28.5586H98.1406V28.9453H98.5273ZM111.852 28.9453L112.238 27.7852L112.801 27.1875H112.238L111.465 27.7852L111.289 29.1211L111.852 28.9453ZM93.5703 28.7344L93.1836 27.9609L91.8477 27.7852V28.1719L93.5703 28.7344ZM97.9648 26.4141L97.3672 25.2539H96.8047V25.6406L97.1914 26.4141H97.9648ZM111.289 26.0273V25.2539H110.727V26.0273H111.289ZM110.902 24.0938L111.289 23.3203H110.902L110.516 24.0938H110.902ZM107.281 23.8828V22.9336H106.895L106.719 23.8828H107.281ZM100.812 22.9336V22.3359H100.25V22.9336H100.812ZM103.66 22.3359V21.5625H103.098V22.3359L103.484 22.7227L103.66 22.3359ZM119.656 21L119.867 20.4023L118.883 20.0156L118.707 21H119.656ZM101.199 21V20.2266L100.602 20.0156L100.426 21H101.199ZM120.605 20.6133V20.0156H120.043V20.6133H120.605ZM112.027 20.2266L113.012 19.4531H112.414L111.852 19.6289L111.289 18.8555H110.34V19.4531L110.516 20.0156L112.027 20.2266ZM117.582 19.8398L117.758 18.6797H117.195V19.8398H117.582ZM112.414 18.8555L112.625 17.6953L111.078 17.5195V18.082L112.414 18.8555ZM113.363 18.8555L113.574 18.293H113.188L113.012 18.8555H113.363ZM99.6523 18.8555V18.082H99.2656L99.0898 18.6797L99.6523 18.8555ZM119.656 18.082V17.5195H119.27V18.082H119.656ZM99.0898 16.3594V15.7617L98.1406 14.9883V15.375L98.5273 16.3594H99.0898ZM98.9141 14.6016V13.8281H98.1406V14.2148L98.9141 14.6016ZM106.508 14.6016V14.0391L106.895 13.2656H106.332L105.383 14.0391L105.77 14.2148V14.6016H106.508ZM113.75 14.4258V13.6523C113.258 13.5117 112.754 13.3125 112.238 13.0547V13.4414L112.414 13.8281H112.801V14.2148L113.75 14.4258ZM102.887 13.8281L103.273 13.0547H102.535L102.148 13.2656L102.887 13.8281ZM116.598 13.8281C117.113 13.3125 117.371 12.6094 117.371 11.7188L116.598 11.5078C116.48 12.2813 116.234 12.9961 115.859 13.6523L116.598 13.8281ZM122.504 13.8281L122.715 13.2656H122.152V13.8281H122.504ZM120.605 13.6523L120.219 13.2656V13.6523H120.605ZM119.656 13.2656L120.43 12.668V11.5078L119.867 11.332L119.48 12.8789L118.883 13.4414L119.656 13.2656ZM94.5195 13.0547L94.6953 12.4922L93.957 12.2812V12.8789L94.5195 13.0547ZM95.6445 13.0547L95.8555 12.2812L95.293 11.5078H94.6953V11.8945L95.6445 13.0547ZM112.027 13.0547L111.465 12.8789V13.4414H112.027V13.0547ZM121.379 12.8789L120.816 12.668V13.0547L121.379 12.8789ZM115.648 12.4922L115.086 12.2813V12.668L115.648 12.4922ZM113.961 11.8945V11.332H113.574V11.8945H113.961ZM113.188 10.3477L112.801 9.96094V10.3477L113.188 10.3477ZM104.609 9.57422L104.223 9.1875V9.57422H104.609ZM105.77 9.1875L105.945 8.625H105.383V9.1875H105.77ZM101.762 8.23828L100.988 7.85156V8.41406L101.762 8.23828ZM99.8633 8.02734L99.0898 7.25391V7.64063L99.8633 8.02734ZM106.332 8.02734V7.64063L106.121 7.25391L106.895 6.48047V7.25391L106.719 8.02734H106.332ZM104.996 7.64063V7.25391H104.609V7.64063H104.996ZM104.047 6.86719V6.48047L103.273 6.09375V6.48047L104.047 6.86719ZM101.199 5.70703L101.551 4.93359H100.602V5.88281L101.199 5.70703ZM99.2656 4.72266V3.94922L98.1406 3.77344V4.16016L99.2656 4.72266Z" fill="#1A1A1A"/>
<path d="M49.9443 40.6055L49.7686 40.2188L50.1553 38.6719H49.5576V37.8984L50.5068 37.3359V36.5625H49.9443L49.7686 35.4023L50.1553 33.6797H49.3818V33.293L49.5576 32.6953H48.7842V33.082H48.3975L47.4482 32.6953L46.8857 32.9062L46.6748 33.4688H45.9365L45.3389 32.9062L44.7764 33.082V33.4688H44.3896L43.6162 33.293C42.7256 33.668 41.7764 33.7969 40.7686 33.6797L39.0459 33.293L38.4482 33.4688L37.499 33.082V32.6953H38.2725L40.1709 31.957L40.5576 32.1328C41.4482 31.875 42.2217 31.4883 42.8779 30.9727L44.3896 31.1836L44.7764 29.6367L44.2139 28.3008L44.3896 27.5273H45.1631V27.1406L44.6006 26.9297L44.2139 25.7695L44.9521 25.3828V24.8203L44.0029 24.2578V24.8203L43.8271 23.6602L44.0029 22.7109H44.7764V22.3242L44.0029 21.9375L43.8271 21.1641H44.6006V20.6016H44.2139V18.8438L44.7764 18.668V18.0703L44.0029 17.5078V17.1211L43.0537 16.9102L42.4912 17.1211L41.8936 16.9102L40.1709 17.8945V17.5078L40.3818 16.9102L40.9443 16.7344V15.3984L40.7686 15.0117H40.1709L39.7842 15.7852L39.3975 17.5078L39.2217 16.7344H38.4482L38.0615 17.1211V16.5586L39.3975 15.7852L40.1709 14.0273H41.3311V14.4141H42.1045V15.0117H42.667C43.6982 14.2383 44.8467 13.9102 46.1123 14.0273L46.6748 14.2383V14.625L46.499 15.3984H46.8857L47.4482 14.4141L48.0459 14.2383L48.2217 14.8008L48.7842 15.0117V14.4141L51.4912 13.8516L54.5498 14.2383L55.499 13.8516L57.7842 14.4141V14.0273L57.3975 12.8672H57.7842V13.4648H58.1709L58.5576 12.5156L56.6592 12.1289L56.2725 12.8672L55.1123 12.1289L54.5498 13.2539L53.6006 12.8672L52.6162 13.2539L51.8779 12.1289L50.5068 11.5312V12.3047L50.1553 11.7422L49.5576 11.5312L49.1709 12.3047L47.835 11.5312L47.6592 10.582H48.7842V10.1953L46.8857 9.42188L47.2725 9.21094L47.835 9.42188V8.64844L47.2725 7.69922H47.6592V7.3125C47.1436 6.39844 46.9443 5.4375 47.0615 4.42969L48.0459 0C54.2334 0.492188 60.4795 0.492188 66.7842 0L67.1709 2.28516H66.6084V2.67188L66.9951 3.44531L66.3975 3.65625V4.21875L66.6084 5.37891L67.1709 5.55469V8.08594L66.7842 8.64844L67.1709 9.42188L66.9951 9.80859H66.3975V9.03516H65.4482L65.2725 10.1953H64.6748L64.3232 9.98438L65.0615 9.80859V9.21094L64.3232 9.03516V8.08594L64.6748 6.32813L64.499 5.55469L65.4482 0.386719H65.0615L64.499 0.738281L63.7256 0.5625L63.5498 0.949219H63.1631L61.6162 0.175781C61.2412 0.691406 60.7373 0.878906 60.1045 0.738281L59.1553 0.386719L56.0615 0.949219L55.6748 0.738281L54.7256 0.175781V0.5625L53.0029 0.949219L50.7178 0.738281C49.9443 1.39453 49.6279 2.16797 49.7686 3.05859L51.1045 3.83203V4.21875H51.667L52.4404 4.04297L52.8271 4.60547L54.1631 4.78125L56.2725 4.21875L56.6592 4.42969L57.3975 4.04297L58.1709 4.21875L58.7686 4.04297V4.42969H59.5068V3.83203H61.4404L61.8272 4.60547H62.3897L62.6006 3.44531H63.3389V4.04297L63.9365 4.60547L62.2139 5.37891L62.0029 5.76563H61.6162L60.8779 4.99219L60.2803 5.16797V5.94141H59.7178L58.3818 6.53906L56.2725 5.94141V6.32813C55.6631 6.77344 55.0186 6.84375 54.3389 6.53906L53.7764 7.10156L53.2139 6.92578V6.53906H52.4404L51.667 6.15234V5.76563H51.1045L49.5576 5.94141V7.3125L49.9443 8.64844L49.5576 10.1953C51.1748 9.65625 52.7686 9.71484 54.3389 10.3711L55.499 10.1953L56.0615 10.3711L58.7686 9.98438C59.917 10.125 60.9951 10.3828 62.0029 10.7578V10.1953L62.9522 9.98438L63.1631 10.582L63.3389 10.9688H62.9522L62.7764 12.6914H62.0029L60.8779 12.3047V12.8672L60.4912 12.3047H60.1045L59.3311 13.2539L58.5576 13.4648V13.8516L59.8936 14.625L61.6162 15.1875L62.7764 15.0117L64.499 15.3984V15.7852H65.0615V15.3984L64.8857 16.3477L66.0459 16.7344V16.3477L65.835 15.7852L66.9951 15.3984L67.5576 15.5742L69.2803 15.1875L70.0537 16.3477L69.2803 16.3477V17.5078L68.3311 17.8945L68.1553 18.457L68.3311 19.0547H67.5576L66.9951 17.8945L66.3975 17.6836V18.668H65.2725L64.499 17.5078H63.9365V18.0703L64.499 18.8438H64.1123L62.2139 18.668L62.3897 18.0703L61.0537 17.8945L60.2803 17.2969V17.8945H59.8936L57.6084 16.9102L57.3975 16.3477L56.2725 17.2969H55.8857L55.3232 16.5586L53.3896 15.9609L52.8271 16.9102L53.0029 17.2969H51.667L51.1045 16.5586H50.3311L50.8936 17.8945H51.4912V18.668L51.667 19.6172L52.4404 20.0039H53.3896L54.1631 19.8281V20.3906L55.1123 20.6016V21.9375H54.7256V23.6602H53.2139L53.0029 22.8867H52.4404L52.0537 23.6602L53.2139 24.0469V25.207L54.7256 25.5938V26.1562L53.9521 26.3672L53.7764 27.9141L54.7256 28.0898L54.9365 30.1992L54.7256 30.7969L54.9365 31.5703L54.5498 32.5195H55.1123V32.9062L54.7256 33.6797H55.1123V34.4531L54.5498 35.6133L54.1631 35.7891L53.2139 36.1758V36.7383L55.3232 36.9492V38.1094L54.9365 38.8828H54.5498L54.7256 38.1094L53.2139 37.3359V37.8984L53.6006 38.4961H53.0029V39.832H53.6006L55.1123 39.4453L55.3232 40.6055H54.9365V40.043H53.7764L53.6006 40.6055H51.1045V40.043H50.3311V40.6055H49.9443ZM52.2295 40.2188L51.667 40.043V40.4297L52.2295 40.2188ZM52.6162 38.4961L52.0537 37.7227L51.4912 38.6719L52.6162 38.4961ZM66.3975 37.3359V36.9492L65.835 35.6133C64.6865 35.2148 63.6084 34.7578 62.6006 34.2422V33.6797L62.9522 33.082L61.8272 33.6797L61.4404 34.4531L61.0537 35.4023L59.8936 35.6133L59.5068 34.6289L59.1553 34.4531V33.8555L59.8936 33.6797V33.293L59.5068 32.6953H59.8936L60.667 33.293L61.2295 33.082V32.5195L61.0537 32.1328H61.8272V31.7461L61.4404 31.1836L61.6162 30.5859L61.4404 30.1992L62.3897 29.8125V29.4258L61.0537 29.25C61.3115 28.4766 61.124 28.0312 60.4912 27.9141L60.2803 28.6523L59.7178 26.7539H59.1553L58.9443 27.7031H58.5576L58.1709 26.3672H57.7842L56.4482 26.7539V25.9805L57.0459 25.7695L57.2217 25.207H56.2725V24.8203L56.4482 24.2578L57.3975 24.0469L57.9951 24.2578L58.9443 23.6602L58.7686 24.4336C59.5186 24.4102 60.2217 24.2227 60.8779 23.8711L61.6162 24.0469L61.8272 23.0977L62.7764 22.8867V23.6602H63.5498V23.2734H64.1123L65.2725 23.6602V23.2734H65.6592L66.9951 23.4844V23.0977H67.9443L68.7178 23.6602L68.8936 24.4336L69.8779 25.3828H70.4404L70.6162 26.9297H69.8779L69.1045 26.7539V27.3164L69.4912 28.0898H68.5068V29.25L68.3311 30.4102H67.9443L67.3818 30.1992L67.1709 30.9727L66.7842 31.5703H67.3818L67.9443 31.3594C68.7178 32.3906 69.1631 33.5508 69.2803 34.8398L69.1045 35.4023L69.667 35.6133L68.8936 35.7891L68.5068 36.9492L67.5576 36.1758L66.9951 36.3867L66.7842 37.3359H66.3975ZM53.6006 35.4023L53.7764 35.0156L54.1631 34.2422L53.2139 33.4688L53.0029 32.9062H52.6162L52.2295 33.8555L52.6162 35.0156H52.2295L51.2803 34.6289V35.0156L53.0029 35.7891L53.6006 35.4023ZM53.9521 31.7461L53.6006 31.3594V31.7461H53.9521ZM47.6592 31.3594V30.9727H47.2725V31.3594H47.6592ZM52.4404 30.9727L52.0537 30.5859V30.9727H52.4404ZM53.3896 30.5859V29.8125L52.6162 29.6367V30.5859H53.3896ZM50.3311 30.1992L51.2803 30.0234V29.4258L50.3311 29.25C50.2139 27.8438 49.7686 26.625 48.9951 25.5938H48.0459L47.6592 27.1406L48.2217 27.9141L48.0459 28.4766H47.6592V29.0391L48.2217 30.4102L50.3311 30.1992ZM67.9443 29.4258L67.3818 29.25V29.6367L67.9443 29.4258ZM52.4404 29.0391V28.4766H51.8779V29.0391H52.4404ZM68.1553 28.6523L67.5576 28.4766V28.8633L68.1553 28.6523ZM64.6748 28.3008L64.8857 27.5273L64.3232 27.1406V26.7539L64.6748 26.3672L63.1631 25.7695V25.207H62.6006V25.9805L61.6162 24.9961H60.8779L60.2803 26.543L61.2295 26.7539V27.5273H61.8272L62.3897 27.3164V28.4766L64.1123 28.6523L64.6748 28.3008ZM46.499 27.7031L46.8857 26.9297L46.1123 26.7539L45.3389 28.0898H45.9365L46.499 27.7031ZM58.9443 25.9805V25.207L57.9951 24.9961L57.3975 25.207V25.7695L58.9443 25.9805ZM49.9443 25.7695V25.207L48.6084 24.8203V25.5938L49.9443 25.7695ZM63.3389 24.6094L63.5498 24.0469L62.3897 23.8711V24.4336L63.3389 24.6094ZM51.4912 24.4336L51.667 23.4844L50.8936 23.0977L50.5068 24.4336H51.4912ZM49.1709 24.2578L50.3311 23.4844V22.8867L50.1553 21.3398L50.5068 20.6016L50.1553 20.2148L50.8936 18.8438L50.3311 18.457V18.0703H50.7178V17.5078H49.9443L48.9951 15.5742H48.3975V16.3477H47.6592L47.0615 15.5742H46.3232L45.9365 16.1719L45.1631 15.9609L44.9521 16.7344C45.4678 17.1094 45.7256 17.7539 45.7256 18.668C46.2412 19.4414 47.0146 19.7578 48.0459 19.6172V20.0039L49.1709 19.8281L49.3818 20.3906H48.7842V20.7773L49.5576 20.9531V21.3398L48.9951 21.5508L48.2217 21.1641V21.5508H47.6592V20.9531H46.8857L46.6748 21.9375L47.2725 23.2734L47.0615 24.0469L49.1709 24.2578ZM62.3897 23.6602V23.0977H61.8272V23.6602H62.3897ZM52.0537 22.3242L52.2295 21.7266H51.4912V22.5L52.0537 22.3242ZM52.4404 21.7266L52.8271 20.9531H53.2139V20.2148L51.4912 20.0039V20.7773L52.4404 21.7266ZM53.3896 19.2305L52.6162 18.457L54.1631 17.6836V17.2969L53.9521 16.7344H54.5498V17.6836H54.1631L53.9521 19.2305H53.3896ZM47.2725 17.6836L46.6748 17.5078V16.9102H47.0615L47.2725 17.6836ZM62.7764 17.1211L62.3897 16.7344V17.1211H62.7764ZM61.4404 16.9102L60.4912 16.3477V17.1211L61.4404 17.2969V16.9102ZM67.7686 16.7344V16.3477H67.3818V16.7344H67.7686ZM55.8857 16.1719L55.3232 15.7852V16.1719H55.8857ZM41.7178 15.9609L41.3311 15.5742V15.9609H41.7178ZM56.0615 15.7852V15.3984L55.8857 14.0273H55.499L55.1123 15.1875L56.0615 15.7852ZM42.2803 15.5742V15.1875L41.5068 14.8008V15.5742H42.2803ZM51.4912 15.1875L51.1045 14.8008L50.8936 15.3984L51.4912 15.1875ZM54.5498 15.0117L54.1631 14.625V15.0117H54.5498ZM62.3897 11.918L61.6162 11.5313L61.4404 12.1289L62.3897 11.918ZM55.3232 11.918V11.1445H54.7256V11.918H55.3232ZM49.3818 11.7422V11.3555L48.6084 11.1445L48.3975 11.7422H49.3818ZM51.8779 5.16797L51.2803 4.42969V4.99219L51.8779 5.16797Z" fill="#1A1A1A"/>
<path d="M4.18359 40.8047V40.418L4.74609 37.3242L4.35937 36.375L2.10937 35.2148L1.89844 34.6172L4.74609 33.1055L5.51953 33.4922L6.08203 31.5586H5.13281V30.3984L5.51953 29.625C5.63672 28.2188 5.32031 27 4.57031 25.9688C2.92969 26.1094 1.47656 25.793 0.210937 25.0195L0 24.2461L0.5625 22.875H3.97266L4.74609 23.0859L5.30859 21.5391L4.92188 18.6562L6.43359 17.4961C7.32422 19.3008 7.76953 21.293 7.76953 23.4727L8.33203 23.6484L9.66797 23.0859L9.84375 23.8594H10.2305L10.6172 23.0859L11.3906 22.875L11.0039 21.75L11.1797 21.1523H10.0547C10.5 19.5117 10.6875 17.8477 10.6172 16.1602H11.5664L11.9531 15L12.6914 16.5469H12.1289V17.1094L13.2539 17.3203V18.0938L13.8516 18.2695V18.832L13.2539 19.2188V19.8164L14.0273 24.2461H14.4141L15.1523 23.8594L15.5391 24.6328L15.3633 25.582L15.9258 26.918L15.75 27.3047H15.3633L14.8008 27.1289C13.6523 27.7617 13.207 28.7227 13.4648 30.0117L13.6406 31.9453H15.75V32.7188L14.4141 33.1055L14.0273 34.8281L14.2031 35.7773L13.8516 36.7617L14.0273 37.5352L13.8516 38.3086L14.0273 38.8711L13.6406 39.0469V39.6445L14.0273 40.418L13.0781 40.8047L11.3906 40.418L10.4414 40.5938L10.0547 40.418V39.8203C10.5469 38.9297 10.7344 37.9688 10.6172 36.9375L10.2305 36.1641H7.76953C7.39453 37.5938 6.94922 39.0117 6.43359 40.418L5.30859 40.5938L4.74609 40.418L4.18359 40.8047ZM9.49219 33.1055C10.125 32.8477 10.7578 32.5898 11.3906 32.332L11.5664 31.5586L11.0039 30.3984L10.4414 29.4492L10.6172 27.3047H8.33203C8.16797 28.9922 7.98047 30.668 7.76953 32.332L9.49219 33.1055ZM15.1523 26.5664V26.1797L14.8008 26.5664H15.1523ZM10.0547 25.4062V24.8086H9.49219V25.4062H10.0547ZM5.13281 23.6484L4.74609 23.2617L4.57031 23.8594L5.13281 23.6484ZM12.3398 21.1523L11.7422 20.9766V21.3633L12.3398 21.1523ZM13.8516 16.1602L13.6406 15.3867L14.5898 15.1758V16.1602H13.8516Z" fill="#1A1A1A"/>
</svg>
