<svg width="222" height="83" viewBox="0 0 222 83" fill="none" xmlns="http://www.w3.org/2000/svg">
<path d="M176.303 42.1746L175.732 41.3813L176.435 38.3994L176.824 37.7081L176.453 37.5979C177.228 35.8966 177.758 34.1105 178.046 32.2398L179.228 30.9773L179.219 30.3881L179.558 29.8653L180.097 30.0255L182.588 32.3797L185.2 32.9724L185.831 33.5635L187.019 33.5133L187.509 33.842L188.132 33.8438L188.14 34.4331L188.51 34.5433L189.1 34.535L188.819 36.8357C189.032 37.4368 188.955 38.1475 188.589 38.9678L188.106 39.8513C188.415 40.2119 188.428 40.6193 188.147 41.0735L186.816 40.8614L185.836 42.1839L183.005 42.3326C181.145 41.9265 179.27 41.9807 177.381 42.4951L176.734 42.0826L176.303 42.1746ZM208.163 48.0131L208.063 46.993L207.752 46.6807L207.443 44.3883L206.904 44.228L206.113 44.1762C205.686 43.3893 205.119 42.8295 204.411 42.4968L204.435 38.4694L204.595 37.9302L204.184 36.5978L204.557 36.085C204.637 34.9107 204.773 33.7531 204.965 32.6122L205.338 32.0994L204.765 31.9291L204.167 31.3481L202.885 31.5904L201.975 31.32L201.865 31.6907L201.907 32.29L200.827 32.5924L200.464 33.0715L200.496 33.7045L199.923 33.5342L199.855 34.5042L199.122 34.8731L197.933 34.9233L197.823 35.294L196.853 35.2258C196.179 35.6854 195.451 35.6648 194.671 35.164L194.961 32.8297L196.245 30.6073L195.556 29.5955C195.882 28.9099 195.834 28.3702 195.414 27.9761L194.874 27.8159L194.596 28.1365L194.023 27.9662L193.654 27.2331L193.384 28.1429L192.465 27.2832L192.424 26.6839L193.335 26.3314L193.774 25.4716C195.022 25.3046 196.272 25.3339 197.526 25.5597L199.217 21.8445L199.208 21.2553C199.574 20.4349 200.059 19.7108 200.661 19.083L200.082 17.7005L194.64 15.2764L194.659 14.4749C196.126 13.9818 197.609 13.8848 199.11 14.184L199.622 14.5565L200.222 14.5146L203.641 16.3377L204.264 16.3395L204.103 16.8787C206.553 17.1912 208.727 18.1061 210.623 19.6233C211.624 19.3828 212.587 19.4735 213.513 19.8954C213.693 20.8535 213.506 21.7273 212.954 22.5166L213.325 22.6268L213.214 22.9975L212.581 23.0294L212.141 24.5122L212.241 25.5322C211.982 25.9931 211.569 26.066 211.002 25.7509L210.892 26.1216L211.86 26.8128L211.58 27.7564L210.838 27.536L210.678 28.0752L211.141 28.6162L210.911 30.7483L210.488 31.4296L210.52 32.0626L210.047 32.9124C209.414 35.5361 209.45 38.0896 210.154 40.5729L210.634 40.9353L211.647 39.6228L213.858 38.8494L213.397 41.7566L212.003 44.3497L211.556 44.6202L211.564 45.2095L211.193 45.0993L210.973 45.8407L211.604 46.4318L211.384 47.1731L210.572 48.5457L209.983 48.554L210.203 47.8126L209.833 47.7024L208.981 47.8528L208.871 48.2234L208.163 48.0131ZM177.194 37.8183L177.365 37.2454L176.825 37.0851L176.655 37.658L177.194 37.8183ZM184.078 39.4608C184.805 38.332 185.301 37.0736 185.567 35.6856L184.489 35.3651L181.338 34.6121L180.408 35.7661L180.948 35.9264L180.156 35.8745L180.046 36.2452L180.028 37.0467L180.567 37.2069L180.607 38.4292L183.024 39.5511L184.078 39.4608ZM210.812 46.3799L210.754 45.9591L210.383 45.849L210.213 46.4218L210.812 46.3799ZM205.431 42.3966L205.002 41.8656L204.892 42.2363L205.431 42.3966ZM185.771 29.6945L185.442 28.8266L183.959 28.3859L183.572 28.4542L182.62 27.5845L182.411 26.3121L182.8 25.6208L182.231 22.8476L181.263 22.1564L180.673 22.1646L180.784 21.7939L182.942 20.4549L184.054 20.7855L185.293 21.9238L185.183 22.2945L185.722 22.4548L186.715 22.5668C187.72 23.1344 188.757 23.638 189.824 24.0775L190.413 24.0693L191.584 24.8206L191.473 25.1913L190.275 26.6322L189.642 26.6641L189.752 26.2934L188.842 26.023L188.732 26.3937L188.024 26.1833L187.141 25.7007L186.002 25.5824L184.782 24.9996L184.672 25.3702C185.592 26.304 186.8 26.9318 188.293 27.2535L189.211 28.1132L189.041 28.6861L189.614 28.8563L189.784 28.2834L190.323 28.4437L190.955 29.0348L190.844 29.4054L190.532 29.716L189.57 30.2371L188.23 30.0586L187.751 29.6962L187.422 30.1853L185.771 29.6945ZM187.751 29.6962L187.861 29.3255L187.49 29.2153L187.38 29.586L187.751 29.6962ZM204.859 30.3799L204.456 29.6367L204.236 30.3781L204.859 30.3799ZM204.079 28.3143L204.239 27.7751L204.61 27.8853C204.789 28.5987 205.198 28.9894 205.838 29.0574C207.027 26.8678 208.148 24.6582 209.202 22.4286L208.353 21.9559L206.962 21.946C206.154 21.0456 205.21 20.4352 204.132 20.1146L204.1 19.4817L203.392 19.2713L203.02 19.7841L201.739 19.4035L201.579 19.9427L201.617 21.7879L201.988 21.8981L200.848 23.7598L201.598 24.5694L200.688 24.299L200.517 24.8719L201.317 25.513L201.477 26.3308C202.505 26.9052 203.372 27.5663 204.079 28.3143ZM189.415 20.7651L188.675 19.9217L187.537 19.8034L186.114 19.1605L184.723 19.1506L183.924 18.5095L182.785 18.3911L181.246 16.9067L181.264 16.1052L180.523 15.8849L182.124 15.1871L183.296 15.3154L184.777 16.3791C185.362 16.1374 185.689 15.6966 185.757 15.0566L186.127 15.1668L186.518 13.8525L186.468 12.664L187.067 12.622C187.568 11.8417 188.128 11.0669 188.748 10.2976L188.378 10.1874L187.93 10.458L188.318 10.3896L188.96 8.96695L189.239 8.64634L189.231 8.05707L190.471 7.21543L192.183 7.50403L192.021 8.66618C190.494 11.1709 189.349 13.9115 188.587 16.888C189.366 17.8041 190.399 18.319 191.685 18.4324L193.076 18.4423L193.767 18.8312L194.787 18.7309L195.469 19.1535L195.308 19.6927L194.996 20.0033C194.703 20.5765 194.304 21.0568 193.797 21.4442L192.625 21.3158L191.607 20.7931L190.587 20.8934L190.266 20.6147L189.896 20.5045L189.415 20.7651Z" fill="#1A1A1A"/>
<path d="M140.156 38.5312V37.9336L139.207 37.7578L138.82 37.5469L137.906 37.9336L137.309 37.7578L138.082 37.1602L138.258 36.5977H138.645V36L140.367 34.6641L141.492 34.4531V33.5039H141.879L143.391 32.7305V32.3438H143.777V31.5703L144.902 31.7461L146.414 30.5859L146.59 30.0234C145.723 29.5078 144.844 29.0508 143.953 28.6523L143.566 29.25V28.4766L144.727 28.0898L145.078 25.7695L144.34 25.9453L143.953 24.9961L144.516 22.8516L144.34 22.2891L145.289 21.9023L146.414 22.0781L146.977 21.1289H146.59L145.852 21.3047L145.641 20.3203L144.727 19.9336L144.516 18.2109L145.078 16.6641L144.727 16.4531L145.465 16.6641L146.59 16.2773V15.8906L146.414 15.1172L147.188 14.5195L147.363 12.9727H147.75L148.488 13.1836L148.699 12.5859L148.488 11.8125H149.086V11.25L148.699 9.70313H149.086L149.262 10.2656L150 10.4766V10.0898L149.262 8.33203L149.648 7.55859L150.387 6.01172L149.438 5.83594V4.85156H149.824L150 3.69141L149.438 3.51563L148.875 4.85156L148.312 4.67578V4.28906H147.75C146.977 4.80469 146.66 5.44922 146.801 6.22266H146.414L146.027 8.33203L144.902 8.71875L143.777 7.55859L143.566 6.01172L143.777 5.44922L143.566 4.85156L144.727 4.28906L144.902 3.51563L144.727 2.91797L145.289 1.16016L146.59 1.16016L146.977 1.93359C147.609 2.47266 148.312 2.74219 149.086 2.74219L153.059 1.75781L153.621 1.93359L154.184 1.54688L157.418 0.597656L157.98 0.984375C158.613 0.328125 159.434 0 160.441 0L161.004 0.984375L161.953 1.37109V1.93359L163.078 2.14453V2.53125L162.902 3.12891H163.289L162.727 3.51563V4.07813H163.641L162.516 4.46484V4.85156L162.727 5.23828L162.129 5.44922L161.777 6.22266H161.18L160.828 7.17188C159.047 7.57031 157.594 8.60156 156.469 10.2656L156.258 11.0391L157.418 11.25L158.719 12.5859H159.105L159.316 13.3594L159.105 13.957L159.316 14.3438L160.23 13.957V14.5195L161.18 15.1172L161.391 15.8906H160.23V16.2773L159.492 15.8906L159.316 16.2773L158.93 15.293H158.543L158.156 16.6641H157.77L157.418 15.8906L157.594 15.293H157.207L156.469 15.6797V16.2773L156.645 16.6641C155.895 16.4062 155.449 16.5938 155.309 17.2266L156.469 18L157.207 17.6133L156.82 17.8242L156.469 19.5469C157.102 20.0625 157.289 20.8477 157.031 21.9023L157.77 22.4648V23.0625L157.594 23.4492L156.82 23.8359V23.0625H155.906C155.883 24.0703 156.258 24.9023 157.031 25.5586L156.645 26.543L156.82 27.3164L156.258 27.4922L156.082 28.2656H154.57L153.797 29.4258L150.598 29.8125L150.387 28.8633L149.648 28.6523L149.438 29.6367L149.648 30.0234L148.699 30.1992L148.488 29.4258H147.926L147.188 31.7461L148.312 32.3438V32.9062L148.137 33.293H147.363L147.188 32.7305H146.59V33.5039L146.801 33.8906L145.852 33.6797L145.465 34.8398L145.289 35.6133H144.902V34.4531H144.34L144.129 35.2266L144.34 36.3867L143.953 35.6133H143.18V36.2109L143.391 36.5977L142.441 38.1445H142.055V37.5469H141.316L140.156 38.5312ZM154.57 38.5312V37.9336L154.746 37.1602H155.133V36.5977H154.57L153.234 37.3711L153.059 36.5977L153.41 36.2109L153.234 34.4531L153.621 33.6797H152.672L155.906 32.1328L157.418 32.5195V32.9062H157.98L157.594 33.6797L158.367 33.8906L159.316 35.0508C159.926 35.0508 160.43 35.3672 160.828 36L161.18 36.9844H161.566L162.129 37.9336L162.902 38.1445L156.258 38.5312L155.52 38.1445L154.57 38.5312ZM146.977 31.1836L146.801 30.7969H146.414V31.3594L146.977 31.1836ZM148.488 29.0391V28.6523L148.312 28.0898H147.75L147.539 29.25H147.926L148.488 29.0391ZM151.898 28.6523V28.2656L151.723 27.7031L153.059 27.1055L153.621 25.7695L153.059 25.5586L152.496 26.543L152.848 25.3828H153.234V24.6094H152.848L152.672 23.4492L152.109 23.2383L151.16 23.4492L150.949 24.3984H150.211L150 23.625H149.262C147.996 23.7656 147.047 24.2227 146.414 24.9961L146.977 25.9453L146.238 26.543V26.9297C147.105 27.7031 148.242 27.9609 149.648 27.7031V28.4766H150.211L150.773 27.8789L151.16 28.6523H151.898ZM155.906 25.3828L155.52 24.9961V25.3828H155.906ZM154.957 24.6094L154.57 24.3984V24.7852L154.957 24.6094ZM150.949 23.4492V22.6758L152.109 22.4648L153.797 22.8516V22.2891L152.848 21.6914V20.7422L151.898 20.5312V20.1445L152.672 18.9844H153.059V18.3867H152.672V17.6133L150.387 17.4375L149.824 17.6133L148.137 16.8398C147.621 17.6133 147.363 18.5156 147.363 19.5469L147.539 20.1445H149.648L150.387 20.7422L150.598 19.7578H151.16L151.336 21.3047H150.949L148.312 20.918L147.75 21.1289V22.2891L148.488 22.6758L149.824 22.4648L150.387 22.6758V23.4492H150.949ZM155.695 22.2891V21.1289L154.184 20.7422V21.1289L155.133 21.9023V22.2891H155.695ZM147.363 20.3203V19.7578H146.801V20.1445L147.363 20.3203ZM155.133 19.7578V19.1602L154.008 18.5977V19.1602L155.133 19.7578ZM153.621 19.1602L153.059 18.9844V19.3711L153.621 19.1602ZM132.598 17.6133L132 16.2773L133.547 15.5039L133.723 15.1172C135.621 13.6875 137.766 12.8438 140.156 12.5859C140.789 12.0703 141.609 11.7539 142.617 11.6367L142.828 12.4102L141.879 12.9727L139.98 13.7461L139.418 14.3438V13.957H139.031L138.645 14.7305H139.031C137.25 15.7617 135.352 16.5352 133.336 17.0508L133.16 17.6133H132.598ZM147.188 17.8242V17.2266H146.59V17.8242H147.188ZM146.027 17.4375V16.8398H145.465V17.4375H146.027ZM151.547 16.4531L151.898 15.5039H151.336L150.949 16.2773L151.547 16.4531ZM156.258 15.6797L157.207 15.5039L157.98 15.1172V14.7305H157.031V14.3438H157.594V13.957L156.469 13.7461V13.3594H155.133L155.309 12.5859L154.746 12.4102L154.184 11.8125L153.234 12.1992L152.848 12.0234L151.723 11.0391L151.336 12.0234L152.109 12.4102V12.0234L150.949 14.3438L151.547 14.5195L152.109 14.3438L152.496 15.293L153.059 15.5039L154.957 14.7305L155.309 15.8906L156.258 15.6797ZM149.438 15.5039V14.9063H148.875V15.5039H149.438ZM150.387 14.3438L151.16 12.5859H150.387L149.824 14.1328L150.387 14.3438ZM148.875 14.1328V13.7461L148.137 13.3594V14.1328H148.875ZM151.16 9.49219V9.10547L150.949 8.33203H150.387L150.211 9.49219H151.16ZM154.746 8.92969V7.94531L154.957 7.17188L156.082 6.78516L158.156 5.23828V4.67578L157.207 4.07813L156.82 4.28906L156.082 3.69141L154.957 2.74219L154.57 4.28906H153.621L153.41 3.51563L152.496 3.30469V2.91797L151.723 2.91797L150.598 3.12891L150.387 4.07813H150.949L151.898 3.69141L152.285 3.90234V4.67578L151.336 4.85156V5.23828L153.797 5.625V7.55859L153.059 8.92969L154.184 9.31641L154.746 8.92969ZM152.109 8.71875V8.33203L151.16 7.76953V8.15625L152.109 8.71875ZM152.848 7.55859L153.059 6.99609L152.109 6.60938L151.898 6.01172L150.949 5.83594L150.598 6.78516C151.348 6.92578 152.098 7.18359 152.848 7.55859ZM139.594 7.38281L135.621 6.22266L135.41 5.625H134.285V5.0625C135.551 3.63281 137.133 3.11719 139.031 3.51563L140.543 3.90234V4.67578H141.316L141.668 4.46484V4.85156L140.93 6.60938L140.367 6.78516V6.39844L139.98 6.39844L139.594 7.38281ZM160.23 6.01172L159.879 5.625V6.01172H160.23ZM150.949 5.23828V4.67578H150.211V5.23828H150.949ZM162.516 3.30469V2.74219H161.953V3.30469H162.516Z" fill="#1A1A1A"/>
<path d="M98.5508 42.8828L97.8125 41.5469L98.5508 40.3867L99.5352 40V39.6133L99.3242 39.0156L100.098 38.4531V37.6797L99.7109 36.9062L100.484 36.7305L100.66 34.9727H101.047L101.434 35.1836V34.7969L101.223 33.4609L99.8867 33.25L99.1484 33.6367L97.6016 33.25L97.4258 33.8477L96.0898 34.2344L93.9805 33.25V33.6367L93.0312 33.0742V33.6367L92.4688 32.6875L93.9805 32.3008L95.3164 32.4766C96.6055 32.2188 97.8125 31.832 98.9375 31.3164L99.8867 31.5273V31.9141H100.273L101.047 31.7031L101.609 32.6875L102.77 32.8633V32.0898L101.434 31.1406L101.223 30.5781H101.609L102.172 30.7539V30.3672C101.281 29.7344 100.906 28.9023 101.047 27.8711L100.098 25.375L99.5352 25.1641C99.1367 25.9375 98.9375 26.7109 98.9375 27.4844H98.5508L98.375 26.7109H97.9883C97.4961 27.2266 96.8633 27.4844 96.0898 27.4844L95.9141 28.2578H96.4766L95.3164 28.8203V29.418L94.9648 29.207L95.3164 28.4336L94.9648 27.6602H94.5781L93.6289 28.8203L93.0312 29.0312L92.6797 28.8203L91.1328 29.0312L90.1836 28.8203L90.7461 28.2578L90.957 27.6602L92.293 27.2734L93.0312 26.3242H94.3672V25.5508L94.9648 25.1641L95.1406 24.6016H95.9141L96.0898 23.6172L97.0391 23.4414V22.668H97.4258V21.7188L96.8633 20.9453H96.2656L95.5273 21.1211L92.6797 20.5586L92.4688 19.7852C94.5078 18.8945 96.6641 18.3203 98.9375 18.0625L99.7109 18.625L99.8867 18.2383H100.66L101.047 19.0117H101.609L101.82 18.4492L103.156 18.2383C103.648 19.0117 104.34 19.3281 105.23 19.1875V19.5742L106.18 19.9609L105.617 20.1719V21.1211L105.793 21.5078L105.23 20.9453L104.668 20.7344L104.281 21.7188L103.332 21.8945V22.4922L104.105 23.0547V24.6016C104.738 24.6016 105.242 24.7891 105.617 25.1641V25.5508L105.055 25.7617L104.457 25.5508V26.3242C105.23 26.0664 105.805 26.2539 106.18 26.8867L106.566 28.6445H107.516C109.414 27.4258 111.125 25.9492 112.648 24.2148L114.758 24.0039L115.32 25.1641L114.371 26.5352L113.598 26.3242V26.7109L113.809 27.2734L112.648 27.4844L111.523 27.0977L111.137 28.0469L110.363 28.8203L111.137 29.0312H111.699V30.3672L111.523 30.9297L112.859 31.3164V31.7031H113.598L113.246 31.9141V32.4766L114.582 32.8633L115.531 32.6875L115.707 33.6367L117.605 34.0234L117.992 34.9727L117.219 35.7461H116.094L115.707 36.1328L115.531 35.3594L114.934 35.1836L114.371 36.5195L114.195 35.957L113.035 35.5703L112.648 34.7969L112.086 34.6211C111.336 34.6211 110.891 34.8672 110.75 35.3594L110.961 35.957H110.012V35.5703H110.574V35.1836L110.188 34.4102H109.625V34.9727H109.238L109.027 34.0234H108.465L108.078 34.6211L106.18 34.9727V35.3594H105.441V35.7461L106.18 37.5039H105.441L105.055 38.8398H104.668V39.6133L104.844 40H104.105V40.3867L104.457 40.7734L103.508 41.7227V42.707L102.77 42.3203L102.559 42.8828H101.996V42.4961L100.66 42.1094V42.4961L99.8867 42.707L98.5508 42.8828ZM103.332 41.3359V40.7734H102.77V41.1602L103.332 41.3359ZM94.3672 39.0156C93.9922 38.5234 93.4297 38.3359 92.6797 38.4531V37.8906H92.082L91.5195 37.6797V37.293C93.5586 37.1758 95.5273 36.8594 97.4258 36.3438L98.375 36.5195L97.9883 36.7305V37.293L98.5508 37.8906L98.375 38.4531H97.4258L97.6016 37.8906L96.8633 37.6797L96.6523 38.0664H95.7031V38.4531L94.7539 39.0156H94.3672ZM93.418 38.0664V37.5039H92.8555V37.8906L93.418 38.0664ZM94.9648 38.0664V37.6797H94.1914V38.0664H94.9648ZM105.441 36.9062V36.3438H104.844V36.9062H105.441ZM117.605 35.1836V34.4102H117.043L116.656 35.1836H117.605ZM107.727 34.4102L107.902 33.8477H107.516L107.34 34.4102H107.727ZM109.801 33.6367V33.25H109.414V33.6367H109.801ZM108.852 33.25L109.027 32.4766L108.465 32.3008V33.25H108.852ZM110.961 33.0742L110.574 32.6875L110.363 33.25L110.961 33.0742ZM107.34 32.8633V32.3008H106.742V32.8633H107.34ZM103.332 31.7031V31.3164L102.559 30.9297V31.7031H103.332ZM102.77 30.3672V29.207L103.156 28.4336L102.383 28.2578L101.82 29.9805L102.77 30.3672ZM104.105 29.418L103.508 29.207V29.5938L104.105 29.418ZM103.895 26.7109L103.719 25.7617H103.332L103.156 26.3242L103.332 26.8867L103.895 26.7109ZM98.5508 26.1484L98.7617 25.5508H98.375L98.1992 26.1484H98.5508ZM114.582 26.1484L114.758 24.3906H114.195L113.422 24.6016V25.5508H113.984L114.582 26.1484ZM88.8477 24.9883L88.6719 24.2148H88.0742V24.6016L87.7227 24.3906L88.0742 24.0039L86.3867 23.2305L86 22.668L86.1758 22.2812L86 21.1211L86.5625 20.9453V20.1719L86.3867 19.1875H87.5117V18.625L86.5625 17.6758V17.2891L87.7227 16.9023V16.3047L86.9492 16.1289H87.5117L87.8984 14.793H87.5117L87.3359 15.1445H86.9492V14.582L87.7227 14.0195L87.8984 13.0352L87.125 12.6484L87.8984 12.0859V9.76562L88.8477 9.58984L90.5703 11.3125C93.2891 11.5703 96.0195 11.4414 98.7617 10.9258L99.3242 11.6992H99.7109L104.105 10.9258L104.457 11.1016V11.4883H104.844V11.1016H105.441L106.004 11.4883L110.188 10.5391V11.875L109.801 13.0352L110.961 13.4219H111.523H111.137V14.1953H110.574V14.582L111.137 14.9688V15.3555L111.523 15.7422V16.5156L111.91 17.0781L111.699 17.6758L111.137 17.8516L110.961 18.8359L110.188 19.1875L109.414 19.0117L108.852 19.5742L108.289 18.8359H107.727L107.129 19.0117L106.391 16.9023L106.566 15.918H107.129V15.3555L106.18 14.1953H105.793V13.4219L103.156 13.0352L102.77 14.0195L102.559 13.4219L101.996 13.0352L101.223 12.6484L101.047 13.6328L101.223 14.4062C100.473 13.75 99.6523 13.4922 98.7617 13.6328V14.4062H98.1992L97.4258 13.2461L97.8125 12.8594L97.0391 12.4727L96.4766 13.6328L97.0391 14.1953H96.6523L95.9141 13.0352H95.3164V14.1953L94.9648 13.8086C93.7461 14.0195 92.5391 14.0195 91.3438 13.8086L90.957 14.793L91.1328 15.3555L90.7461 17.8516L90.957 19.0117L90.7461 19.5742H90.3594V20.1719L90.1836 21.1211L90.7461 21.332V23.8281L90.5703 24.6016L88.8477 24.9883ZM89.4102 24.3906L89.0586 24.0039V24.3906H89.4102ZM103.508 23.2305L103.719 22.668H103.156V23.2305H103.508ZM87.5117 20.3477V19.7852H86.9492V20.3477H87.5117ZM111.137 17.6758L111.312 16.6914H110.574L110.363 17.2891L111.137 17.6758ZM109.801 14.9688V14.4063H109.238V14.9688H109.801ZM98.375 12.4727V11.875H97.9883L97.8125 12.6484L98.375 12.4727ZM102.559 12.6484V12.0859L101.996 12.0859V12.6484L102.559 12.6484ZM98.5508 11.6992L98.1992 11.3125V11.6992H98.5508ZM102.945 9.37891L101.047 8.21875L100.66 8.42969L100.484 7.44531L99.3242 7.26953V6.70703H100.098V6.32031L99.8867 5.54688L100.098 4.77344L99.5352 4.38672L100.273 4L100.836 4.17578L101.434 4L101.82 4.77344L105.441 8.42969H103.508L102.945 9.37891Z" fill="#1A1A1A"/>
<path d="M56.6784 57.1818L56.3299 56.0752L55.391 56.3709L55.5599 56.9074L54.6545 57.1925L53.8976 57.2465L54.0137 57.6154L53.1083 57.9005L52.9288 57.3304L53.5802 56.941L53.4641 56.5722L52.6437 56.425L52.4114 55.6873L52.3983 54.4751L51.935 53.589L52.0703 52.1458L52.408 51.2286L51.4058 51.323L52.4596 50.8069L52.3434 50.438L51.7423 49.8165L51.1424 49.7842L51.4584 49.5004L51.3423 49.1315L50.4766 48.3721L50.8454 48.2559L50.7616 47.2872L51.7713 46.7481L51.8563 46.3159L52.3928 46.147L52.9927 46.1792L52.8766 45.8103L53.7186 45.3241L54.0671 46.4307L52.8574 47.6224L53.0369 48.1925L54.11 47.8546L54.5435 48.529L54.9124 48.4128L55.0682 47.7372L55.406 46.8199L54.139 44.7863L54.7091 44.6068L54.5929 44.2379L54.1594 43.5635L53.7906 43.6797L52.3968 39.2533L52.4185 38.6199L52.955 38.4509L52.7227 37.7132L52.1334 37.7145C51.4445 37.2434 51.0122 36.4949 50.8366 35.469L51.3204 35.1324L52.2581 36.2377L53.0592 36.2066L52.5755 36.5432L52.6916 36.9121C53.8421 36.8201 54.8637 36.9039 55.7562 37.1634L56.0723 36.8796L56.4089 37.3634L56.7778 37.2472L57.7981 36.7417C59.2168 36.5652 60.6915 36.3712 62.222 36.1595L62.6748 37.0121L63.4758 36.981L63.4447 36.1799L64.3383 35.272L64.7705 35.357L65.0028 36.0948L64.6986 37.0014L64.2664 36.9164L63.2759 37.6337L60.8758 38.2052L60.1598 37.804L59.5382 38.4052L59.6543 38.7741L59.1812 39.1442L59.1489 39.7441L57.8435 39.3442L57.7703 40.3993L57.4015 40.5155L57.6456 41.8761L58.1821 41.7071L58.3715 41.0209L58.7404 40.9048L59.308 41.5369L59.1522 42.2125L58.6349 42.5597L58.7629 43.5514L61.4791 42.6962L62.1534 42.2627L62.3857 43.0004C63.2199 42.7623 63.946 42.3371 64.5641 41.7247L65.3546 41.6601L66.3749 41.1546L66.491 41.5234L66.1868 42.4301L67.0922 42.145L67.3977 41.8277L67.5772 42.3977L67.4406 43.2516L67.3053 44.6948L67.6525 45.2121L66.7999 45.6648L67.0956 46.6038L67.6656 46.4243L68.086 45.8865L68.7195 47.8984L69.3194 47.9307L69.4884 48.4672C69.2081 48.8258 69.2013 49.2333 69.468 49.69L68.7421 50.5451L68.154 51.1357L67.3001 50.9992L66.6786 51.6003L66.499 51.0303L65.3732 51.2005L64.9925 50.6938L63.5493 50.5585L63.5506 51.1478L64.5193 51.0639L64.6883 51.6004L64.1517 51.7694C63.2239 51.3981 62.2411 51.4373 61.2032 51.8869L61.2977 52.8892L60.0439 52.0677L59.5073 52.2366C59.1862 53.7138 58.7027 55.1438 58.0569 56.5266L57.2031 56.39L56.6784 57.1818ZM45.0628 59.623L44.0412 59.5392L43.7252 59.823L43.6928 58.4326L42.8389 58.2961C43.1408 58.8645 43.0569 59.2226 42.5875 59.3704L42.239 58.2638L43.3121 57.9259L43.1432 57.3894L42.7743 57.5055L43.281 57.1248L43.1649 56.756L42.5624 55.5451L42.6344 53.9007L42.9399 53.5833L42.8237 53.2145L42.3076 52.1607C42.7563 51.4788 42.7975 50.7901 42.4311 50.0946L42.7999 49.9784L43.7172 50.3162L43.601 49.9473L42.8837 48.9569L42.9054 48.3235L43.3891 47.9869C43.3667 46.6671 42.8359 45.6056 41.7967 44.8025L42.1643 44.097L41.7321 44.012L41.6159 43.6431L41.9848 43.527L42.5847 43.5592L42.3524 42.8215L41.4352 42.4837L41.7201 41.3988L42.3524 42.8215L43.1429 42.7569L43.1416 42.1675L42.5622 40.9125L42.931 40.7964L42.8149 40.4275L42.1287 40.2382L41.5922 40.4071L41.119 40.7773L40.7383 40.2705L40.4749 38.7317L39.7372 38.964L39.4316 39.2814L37.1886 39.7665L36.3037 38.8289C38.0937 37.7246 39.9608 36.6698 41.9049 35.6645L42.4942 35.6633L42.9779 35.3267L44.305 35.0931L45.6115 34.092L46.8535 34.2906L46.6212 33.5529C47.4786 33.7006 48.2439 33.5948 48.917 33.2354C50.0124 32.8905 50.9844 32.3878 51.8331 31.7275L52.4224 31.7262L52.9397 31.379L53.2763 31.8628L53.8128 31.6938L53.8451 31.0939L54.3816 30.925C55.5545 30.826 56.7273 30.727 57.9002 30.628L58.4249 29.8362C59.9633 30.0397 61.4766 29.9687 62.9649 29.6229L63.3121 30.1401L64.0498 29.9079L64.3554 29.5905L64.3983 31.0144L63.5457 31.4672L62.051 31.7536L61.8715 31.1835L61.5026 31.2997L61.4809 31.9331L61.112 32.0492L60.4798 30.6266L60.1109 30.7427L59.3745 31.5643L59.4906 31.9332L58.4809 32.4723L56.8259 32.3668L56.3528 32.7369L55.4355 32.3992L55.4474 33.022C55.9041 34.0823 56.5156 34.9709 57.2819 35.6879L56.597 36.0878L55.5755 36.004L55.524 36.4257L54.9874 36.5946L54.4378 35.5514L55.5444 35.203L56.5131 35.1191L56.397 34.7502L55.3754 34.6664L54.9419 33.9921L54.9108 33.191L54.3408 33.3705L54.4067 34.7503L53.4678 35.046L53.3516 34.6771L53.8689 34.3299L53.7527 33.9611L52.53 33.9407L52.4785 34.3623L52.0978 33.8556L50.7192 34.5108L50.1193 34.4786L50.0976 35.112L49.5611 35.2809L48.7923 34.7122L48.2557 34.8811L48.2868 35.6822L47.0138 36.6727L44.8329 36.7697L45.0019 37.3063L45.3707 37.1901L45.9837 38.4346L45.8999 39.4561C46.6584 39.7579 47.0308 40.3163 47.0172 41.1315L45.5753 41.5855L45.6914 41.9544L46.8806 41.9854L47.1967 41.7016L46.9453 42.7759L47.4818 42.6069L48.0613 43.8619L47.5247 44.0309L47.5043 45.2536L48.3054 45.2225L48.4215 45.5914L48.0527 45.7075L48.3807 48.0369L48.0118 48.153L48.2441 48.8908L47.7604 49.2274L47.825 50.0179L48.1722 50.5352L47.4357 51.3568L47.6152 51.9268L48.5206 51.6418L48.5853 52.4323L47.9637 53.0334L48.0403 56.4371L46.9337 56.7856L47.2293 57.7245L47.0629 58.3666L45.7887 58.7678L44.9982 58.8325L45.0628 59.623ZM62.5204 52.9096L62.0882 52.8246L61.9721 52.4557L62.9408 52.3718L62.5204 52.9096ZM58.2654 54.0283L57.6761 54.0296L57.7923 54.3984L58.2654 54.0283ZM68.511 50.3967L68.5098 49.8074L67.9099 49.7751L67.9217 50.398L68.511 50.3967ZM56.4534 54.0091L56.2739 53.4391L55.5697 53.6608L55.7492 54.2309L56.4534 54.0091ZM47.1553 55.4995L46.4691 55.3101L46.6486 55.8802L47.1553 55.4995ZM53.3769 53.135L53.208 52.5984L52.8404 53.3039L53.3769 53.135ZM54.0618 52.735L53.462 52.7027L53.5781 53.0716L54.0618 52.735ZM59.5793 50.5922L61.9266 49.8531L64.7495 47.9322L64.8202 45.6985L64.3041 44.6447L64.2394 43.8542L61.9653 43.5382L61.8288 44.3921L61.5114 44.0866L60.8072 44.3083L60.018 44.9623L59.0467 43.8675L58.4468 43.8353L58.6791 44.573L57.1844 44.8593L56.8466 45.7766L56.0791 45.7971L56.0574 46.4305L56.4909 47.1049L56.122 47.2211L56.0058 46.8522L55.637 46.9683L55.7544 47.9265L56.5351 49.1182L57.2405 49.4858L57.3363 51.0774L58.1901 51.2139L59.0427 50.7612L59.5793 50.5922ZM44.3732 54.9749L44.3949 54.3415L44.026 54.4576L43.3721 53.6684L43.0032 53.7845L43.0045 54.3738L43.4895 54.6266L43.4678 55.26L44.3732 54.9749ZM45.7325 54.1414L45.3841 53.0348L45.0152 53.151L44.9948 54.3737L45.7325 54.1414ZM54.9243 51.026L54.5231 49.7517L54.7124 49.0655L53.522 48.4452L52.9519 48.6247L53.068 48.9936L53.5015 49.6679C53.1646 50.3146 53.1793 50.9857 53.5457 51.6812L54.9243 51.026ZM56.3985 49.9721L55.5961 49.4138L55.0081 50.0044L55.2404 50.7422L55.9446 50.5204L56.3985 49.9721ZM44.583 53.0659L44.2464 52.5822L43.8775 52.6983L44.1098 53.4361L44.583 53.0659ZM46.1087 51.5904L45.9925 51.2215L45.6237 51.3376L45.7398 51.7065L46.1087 51.5904ZM43.6452 51.9606L42.959 51.7712L43.128 52.3078L43.6452 51.9606ZM47.0358 50.6718L46.8668 50.1353L46.2968 50.3148L46.4657 50.8513L47.0358 50.6718ZM52.1831 48.0559L51.9508 47.3182L51.4142 47.4871L51.6465 48.2249L52.1831 48.0559ZM45.2969 49.5976L44.3903 49.2934L44.5064 49.6623L45.2969 49.5976ZM53.2778 47.0846L53.2467 46.2835L52.6239 46.2954L52.8046 47.4547L53.2778 47.0846ZM47.2958 47.7519L47.1797 47.383L46.3258 47.2465L46.4419 47.6153L47.2958 47.7519ZM56.3305 44.7228L55.6778 44.5229L55.794 44.8917L56.3305 44.7228ZM57.8456 43.2137L57.7295 42.8448L57.0253 43.0665L57.1414 43.4354L57.8456 43.2137ZM55.2014 42.4245L55.1069 41.4223L54.3164 41.4869L54.4972 42.6463L55.2014 42.4245ZM45.514 45.2537L45.4494 44.4632L44.544 44.7483L44.7235 45.3184L45.514 45.2537ZM43.8181 45.6035L43.5858 44.8657L43.0493 45.0347L43.2816 45.7724L43.8181 45.6035ZM57.2338 40.5683L57.222 39.9454L56.4314 40.01L56.5489 40.9682L57.2338 40.5683ZM56.0111 40.5478L56.0328 39.9144L55.6639 40.0306L55.5273 40.8845L56.0111 40.5478ZM44.3117 44.0106C44.0099 43.4422 43.5077 43.33 42.8051 43.6741L44.3117 44.0106ZM57.7274 38.9754L56.9586 38.4066L57.1381 38.9767L57.7274 38.9754ZM59.6531 38.1847L58.0831 37.6471L58.3154 38.3848L58.8855 38.2053L59.7692 38.5536L59.6531 38.1847ZM45.0699 42.5555L44.5836 41.7135L44.1117 42.673L45.0699 42.5555ZM46.7334 40.8154L46.6173 40.4466L46.1838 39.7722L44.8567 40.0058L44.9729 40.3746L46.7334 40.8154ZM54.6615 38.1347L53.997 37.312L53.0916 37.597L53.2077 37.9659L54.6615 38.1347ZM42.4664 39.3209L42.8868 38.7831L42.7707 38.4143L42.4018 38.5304L41.7274 38.9639L41.9597 39.7016L42.4664 39.3209ZM45.1298 38.298L44.276 38.1614L44.4449 38.698L45.1298 38.298ZM39.5167 38.8492L38.8833 38.8275L38.9994 39.1963L39.5167 38.8492ZM47.6354 36.0716L47.5193 35.7027L46.7288 35.7673L46.7599 36.5684L47.1287 36.4523L47.6354 36.0716ZM54.3408 33.3705L54.3625 32.7371L53.6247 32.9694L53.7409 33.3382L54.3408 33.3705ZM51.6225 30.3563L49.9147 30.0832L49.3136 29.4616C48.029 29.5958 46.7899 29.4454 45.5963 29.0104L42.3509 27.5997C41.7394 27.3745 41.076 27.3745 40.3606 27.5998L39.7066 26.8105L41.4025 26.4608L42.2551 26.008L44.1834 26.3961L44.5305 26.9133L45.4993 26.8294L45.6154 27.1983L45.9843 27.0821L46.1004 27.451L47.2598 27.2702L50.1866 27.7861L50.989 28.3443L51.2609 28.0375L52.3794 28.312L52.7278 29.4186L51.6225 30.3563Z" fill="#1A1A1A"/>
<path d="M20.5789 79.9248L20.3165 79.6407L18.6311 76.9861L17.7031 76.551L15.2629 77.2249L14.7025 76.9289L15.7692 73.8865L16.5998 73.6459L15.7014 71.8437L15.004 72.4876L14.217 71.6352L13.9765 70.8046C13.1086 69.6919 12.0494 69.0111 10.7988 68.7622C9.68876 69.9785 8.40648 70.7318 6.95192 71.0221L6.27227 70.5969L5.75544 69.2079L8.26095 66.8946L8.97231 66.5249L8.33624 65.0068L6.09649 63.1511L6.42017 61.2732C8.29878 61.9949 9.9774 63.1566 11.456 64.758L11.9886 64.5056L12.5885 63.186L13.2423 63.6351L13.5265 63.3727L13.2859 62.5421L13.7111 61.8625L12.6638 61.2982L12.3875 60.7399L11.561 61.5031C10.7752 59.9956 9.7841 58.6458 8.58769 57.4536L9.2851 56.8097L8.78221 55.695L10.374 56.3307L9.96072 56.7122L10.3423 57.1255L11.312 56.5173L11.8366 57.0856L12.395 56.8093L12.7766 57.2226L12.5998 57.9122L13.0052 58.3513L16.5785 61.0812L16.8626 60.8188L17.1427 60.0339L17.9515 60.3398L18.4663 61.1565L19.7858 61.7564L19.919 62.1598L19.6348 62.4221L19.1023 62.6746C18.6878 63.9186 19.0125 64.9267 20.0764 65.6989L21.5172 67.0003L23.067 65.5694L23.5917 66.1376L22.8725 67.328L23.757 68.856L24.53 69.4342L24.9395 70.3959L25.5933 70.8449L25.9889 71.5324L26.4996 71.8265L26.3347 72.218L26.7401 72.6571L27.549 72.963L27.1139 73.891L25.6117 74.7517L25.0335 75.5247L24.6302 75.6579L24.2247 75.2188C23.9822 74.2306 23.4681 73.3973 22.6824 72.7192L21.8736 72.4132L20.0655 74.0827C20.7598 75.3875 21.3945 76.7314 21.9697 78.1144L21.2623 79.0067L20.7298 79.2591L20.5789 79.9248ZM19.2563 70.6669C19.5464 70.0482 19.8364 69.4295 20.1265 68.8107L19.7309 68.1232L18.5306 67.6524L17.4734 67.3366L16.1478 65.6417L14.4688 67.1919C15.493 68.543 16.4921 69.9015 17.466 71.2672L19.2563 70.6669ZM18.979 62.0228L18.7167 61.7387L18.7207 62.2613L18.979 62.0228ZM14.4467 64.6285L14.0412 64.1894L13.628 64.571L14.0334 65.0101L14.4467 64.6285ZM9.63802 66.6758L9.09155 66.654L9.36783 67.2124L9.63802 66.6758ZM13.2399 59.9529L12.6815 60.2292L12.9439 60.5133L13.2399 59.9529ZM10.9641 55.2595L10.2844 54.8343L10.8387 54.0354L11.5065 54.7587L10.9641 55.2595Z" fill="#1A1A1A"/>
</svg>
