<svg width="309" height="40" viewBox="0 0 309 40" fill="none" xmlns="http://www.w3.org/2000/svg">
<path d="M304.746 39.4453V39.0586H304.359L303.797 39.2695L303.023 38.8828V37.8984L303.586 36.7383L303.973 34.8398H304.359V34.2422H303.797L303.023 34.4531L302.426 34.2422L301.863 34.4531L301.477 33.4688H300.879L300.492 33.6797L299.93 32.3438L301.652 31.7461C302.168 32.1445 302.754 32.2734 303.41 32.1328V31.1836L302.812 30.5859L303.023 30.0234H302.25L302.039 31.1836L301.266 29.25H300.703L300.492 30.1992L297.996 29.8125L297.785 30.7969H297.223L296.625 30.0234H295.676C295.16 30.3984 294.902 30.9141 294.902 31.5703L296.625 32.1328L297.398 31.957L297.785 33.6797L297.609 34.2422L296.836 34.4531V35.0156H296.449L296.238 34.4531L294.902 34.2422L295.078 33.4688L293.742 33.293C294.117 32.4023 294.246 31.5 294.129 30.5859C293.613 29.9531 292.898 29.7656 291.984 30.0234L291.211 29.6367L290.051 30.4102V29.6367H289.664L288.891 30.7969H289.277L288.328 31.1836L287.133 30.9727L285.41 31.1836V31.5703L286.57 31.957V32.6953L285.797 33.6797H285.41C285.527 34.5703 285.199 35.3438 284.426 36L283.477 36.3867L282.879 37.5117L282.316 37.7227L281.93 38.6719H280.172V38.1094H279.785L279.012 38.4961C278.379 37.9805 278.121 37.3359 278.238 36.5625C279.527 35.2734 280.559 33.9258 281.332 32.5195L284.426 31.957L284.637 31.3594L285.41 30.9727L285.586 30.1992H285.199V29.8125L286.184 29.6367C286.816 28.2305 287.332 26.8125 287.73 25.3828L288.328 25.207V24.8203L288.117 24.2578L289.875 22.7109V22.1133H289.488L288.891 22.3242L287.73 21.9375L287.344 22.1133L285.973 21.5508V22.1133C283.793 22.1133 281.93 22.5703 280.383 23.4844L280.945 23.6602V24.0469L279.785 24.2578L280.945 25.5938V26.1562L280.559 27.3164H280.172C280.055 28.3477 279.867 29.25 279.609 30.0234L279.785 30.9727L278.836 30.5859V30.9727L277.676 32.5195H278.238V32.9062H277.676L276.902 32.6953L276.516 34.2422L273.809 35.0156L273.598 34.6289H273.211L272.438 35.2266L272.262 34.4531L273.035 33.8555V33.4688H273.809L274.195 32.1328H274.582C274.441 31.3594 274.57 30.7148 274.969 30.1992L275.355 30.0234L275.742 29.0391C276.633 26.0859 277.148 23.0156 277.289 19.8281L277.078 15.9609L277.289 15.0117C276.773 14.0977 276.516 13.1367 276.516 12.1289L277.078 11.3555H277.852L280.383 12.1289L280.945 11.918L281.719 12.3047L281.93 11.3555L284.426 10.7578L285.023 10.9688L285.973 9.98438L286.359 9.03516C286.758 8.40234 287.344 8.14453 288.117 8.26172C290.695 9.41016 293.402 10.1836 296.238 10.582V11.5312H296.836V10.7578L297.785 10.582L298.172 11.5312H298.559V10.1953L297.996 8.64844C299.168 9.07031 300.328 9.12891 301.477 8.82422L302.039 9.21094L304.184 9.03516L304.746 8.47266L306.328 9.03516L306.504 9.80859H306.891V10.3711L300.703 11.3555L299.332 11.1445V11.5312L299.719 11.7422V12.1289H299.156L298.945 12.8672H298.383V13.8516L299.543 14.0273V14.4141L298.77 14.625V15.1875H299.543L300.316 14.4141H301.477V14.0273L300.703 13.6406L300.879 12.6914L301.477 13.4648L302.039 13.8516H302.637V13.2539L303.586 13.0781L303.199 13.8516L303.973 14.2383V14.625H305.344L305.52 15.7852L305.344 16.3477L306.117 16.7344L306.328 17.2969L305.906 18.8438L306.504 19.8281L305.906 20.0039V20.7773C303.984 20.5898 302.051 20.5898 300.105 20.7773V20.3906H299.543L299.332 20.9531L297.996 21.1641L297.785 20.6016H296.836C296.062 21.2344 295.09 21.4219 293.918 21.1641V21.5508H293.145L292.582 21.3398L291.809 22.7109C291.41 23.3438 291.281 24.0469 291.422 24.8203L292.195 25.3828L293.531 24.8203L294.129 25.3828L294.305 24.8203L295.852 24.6094L297.012 25.207L297.398 24.4336H298.383L298.945 24.6094L300.105 24.2578L300.879 24.4336V25.5938H300.316L299.543 25.3828L299.332 25.9805L298.77 25.7695V24.9961H298.172V25.5938L298.383 26.1562L297.223 26.3672L297.012 25.5938H296.449V26.3672L294.691 26.7539L293.742 26.1562C292.828 26.5547 291.797 26.8125 290.648 26.9297L290.262 28.0898L291.211 28.6523L294.305 28.3008L294.902 28.4766L296.449 28.0898L297.223 28.3008L297.996 28.0898L298.77 28.3008L299.156 27.7031L300.105 27.5273L302.426 28.4766L302.812 27.7031L303.199 28.3008H304.184C304.441 28.6758 304.828 28.793 305.344 28.6523L306.715 28.4766L307.664 28.8633L307.875 29.4258H308.262L308.437 30.9727L308.051 31.7461H307.664V32.3438L307.875 33.293L307.664 33.8555H307.277V34.2422L307.664 34.4531V34.8398L307.488 36.1758L306.715 36.7383C306.27 37.3711 306.199 38.0156 306.504 38.6719L305.906 38.8828V38.1094H305.344L304.746 39.4453ZM282.492 37.7227V36.9492H281.93V37.7227H282.492ZM290.262 37.3359C289.746 36.9375 289.16 36.7383 288.504 36.7383L288.328 35.7891H287.906V35.2266L288.328 34.4531L287.906 32.9062C288.445 32.3906 289.102 32.2031 289.875 32.3438L291.422 32.6953V33.293L291.211 34.2422L291.422 35.0156L290.824 37.125L290.262 37.3359ZM289.488 34.8398V34.4531L289.102 33.4688H288.504V34.2422L289.488 34.8398ZM282.703 33.293L282.879 32.6953H282.316L281.93 32.9062V33.293H282.703ZM301.477 32.9062L300.879 32.6953V33.082L301.477 32.9062ZM304.359 32.5195V31.3594H303.973L303.797 32.5195H304.359ZM291.422 31.3594V30.9727H291.809V31.3594H291.422ZM303.973 30.1992L304.184 29.4258L303.41 29.25L303.199 30.0234L303.973 30.1992ZM298.383 29.25L297.609 28.4766V29.0391L298.383 29.25ZM292.195 26.3672V25.9805H291.809V26.3672H292.195ZM302.039 24.9961L301.863 24.4336H302.25L302.039 24.9961ZM283.477 20.9531L285.586 20.3906L286.184 20.6016L287.133 20.3906L287.52 20.6016L287.906 19.0547L287.52 17.8945L287.73 16.9102L286.746 16.5586L286.57 17.1211L286.746 17.6836L284.812 18.0703V18.457H284.426L284.25 17.6836L283.477 17.5078L281.543 18.2812C281.402 17.7656 281.016 17.5664 280.383 17.6836V18.2812L280.77 19.0547H281.156V19.6172L280.945 20.3906H281.332L281.719 20.9531H283.477ZM279.785 20.3906V19.8281H279.223V20.3906H279.785ZM294.516 19.6172L295.852 19.0547L296.625 19.4414L297.012 18.457C296.121 18.3398 295.348 18.0234 294.691 17.5078L294.516 16.9102L292.582 16.7344C292.066 17.1094 291.867 17.6836 291.984 18.457L292.582 19.4414L294.516 19.6172ZM298.383 19.6172L297.785 19.0547V19.4414L298.383 19.6172ZM300.879 18.668C300.785 17.4492 300.984 16.2891 301.477 15.1875L300.703 14.8008C300.562 15.9727 300.234 17.0625 299.719 18.0703L300.879 18.668ZM282.703 17.6836V17.1211H282.105V17.5078L282.703 17.6836ZM296.238 17.2969L295.676 17.1211V17.5078L296.238 17.2969ZM291.035 16.7344L290.648 16.3477V16.7344H291.035ZM285.586 16.7344V15.3984L287.344 14.625L287.906 13.2539L287.344 13.0781L285.973 12.8672C283.793 13.3828 281.602 13.8398 279.398 14.2383V14.625L280.172 15.0117L280.77 15.7852H281.93L282.703 15.5742V15.9609H283.09L284.812 15.3984V16.7344H285.586ZM293.918 16.5586L294.129 15.1875H293.742L293.355 15.9609L293.918 16.5586ZM292.195 15.3984V14.4141H292.582L293.355 15.0117L293.531 14.2383H294.516L294.691 13.0781L293.918 12.5156L291.598 12.8672L290.262 12.6914L288.891 13.0781V13.8516L289.664 14.0273V15.0117H290.051L291.211 14.8008L291.422 15.3984H292.195ZM288.891 13.0781L288.504 12.6914L288.328 13.2539L288.891 13.0781ZM287.133 12.6914V12.3047L286.359 12.1289V12.5156L287.133 12.6914ZM285.586 11.918V11.3555H285.023V11.918H285.586ZM295.465 11.3555L294.902 10.7578V11.1445L295.465 11.3555ZM288.504 9.59766V9.03516H287.906V9.59766H288.504ZM287.73 9.03516V8.47266H287.133V9.03516H287.73ZM292.195 8.47266V8.08594H291.598L291.035 8.26172L290.648 8.08594V6.71484L291.211 5.16797L289.488 4.99219L288.504 5.37891L287.52 4.99219L286.184 5.55469L285.973 6.53906L284.25 6.71484V7.3125H283.652L282.703 6.92578L281.332 7.3125L280.559 5.55469H279.785L278.449 5.94141L277.852 5.76562L277.289 5.94141L276.129 5.76562L273.211 6.53906L272.648 6.15234V5.76562C275.344 4.73438 278.309 4.21875 281.543 4.21875V3.65625L280.77 3.44531L280.559 2.88281C280.957 2.36719 281.086 1.72266 280.945 0.949219L280.77 0H281.156L281.332 0.738281H281.719V0H283.09C283.723 0.117188 284.297 0.363281 284.812 0.738281V1.72266L284.039 1.125V2.28516H284.426L283.266 2.67188V3.83203H284.637L288.891 3.05859L289.664 3.44531L291.422 2.88281L291.984 3.05859L292.969 0.386719L293.531 0.175781L293.742 0.949219L294.516 1.125L295.078 0.949219L295.676 1.89844H296.062L296.238 0.949219H296.836L297.398 1.125V1.51172L296.449 1.89844L295.852 2.28516C296.367 2.94141 297.012 3.19922 297.785 3.05859L298.945 2.88281L301.266 3.44531C302.555 2.92969 303.973 2.74219 305.52 2.88281L305.73 3.65625C306.387 3.51562 306.715 3.70312 306.715 4.21875L305.906 4.78125V5.37891L304.957 5.76562C302.496 5.60156 300.047 5.40234 297.609 5.16797L296.062 5.76562C296.062 6.53906 295.805 6.98438 295.289 7.10156L294.516 6.32812H293.742V7.10156H294.691V7.48828L294.129 7.69922V8.08594L292.195 8.47266ZM294.691 3.05859L295.289 2.67188V2.28516L294.129 2.10938L293.918 2.88281L294.691 3.05859ZM281.719 3.05859V2.67188H282.492V2.28516L281.93 2.10938L281.156 2.88281L281.719 3.05859ZM283.477 0.949219L283.652 0.386719H282.703V1.125L283.477 0.949219Z" fill="#1A1A1A"/>
<path d="M242.745 37.8984L241.585 36.3867L242.182 33.4688L241.796 32.3438L241.972 30.7969L241.796 30.1992L241.972 29.6367L241.409 28.3008L241.796 27.3164L241.198 25.7695L241.585 24.2578L241.409 23.6602L241.796 23.4844V23.0977L241.022 19.4414L239.651 19.2305V19.8281C238.386 19.3125 237.237 18.9258 236.206 18.668L234.483 19.6172L234.272 20.2148L234.87 20.9531L234.659 22.5L233.499 21.9375L233.323 22.5C233.698 23.1562 234.272 23.4844 235.046 23.4844L235.257 24.0469L235.608 24.2578L234.659 25.207L235.046 25.7695H235.819L234.87 26.1562V26.7539H235.432L236.206 28.0898H236.593L235.257 29.4258V30.1992L235.995 30.0234L235.432 31.957L235.608 32.5195V33.082L236.206 33.4688L235.432 32.9062L235.608 32.1328L235.046 31.5703L235.257 31.1836H234.272L233.886 32.1328L234.659 32.6953L235.046 34.0664L235.995 34.4531L236.206 35.0156L235.257 34.8398L234.87 35.7891H234.272L233.112 35.4023V36H232.163L230.827 36.1758L229.843 35.7891L228.893 36.1758L225.8 35.0156V34.2422H225.413L224.253 34.6289L224.077 33.8555L226.011 33.4688L226.573 33.6797L229.069 33.293C229.21 32.4023 229.339 31.5703 229.456 30.7969H229.843V29.8125H229.28L229.069 28.3008L228.893 27.7031H229.28V28.4766H229.667L230.827 27.7031L231.003 27.1406H230.44L229.667 27.3164L228.507 26.543V26.1562L229.069 25.9805V25.3828H228.682L228.507 24.2578H227.347L226.573 24.6094L226.186 24.4336L225.624 25.5938H225.237L224.85 24.8203H223.866V25.207L224.077 25.7695H223.69C223.315 24.5039 223.186 23.0977 223.304 21.5508L225.237 21.1641L225.8 20.3906L227.733 19.8281L228.12 18.457H228.893V18.0703L228.12 17.6836L227.522 15.9609L225.413 15.5742L223.304 15.7852V13.0781L223.479 12.5156L223.304 11.5312L223.69 11.3555L224.253 12.5156L225.237 12.6914L225.8 12.5156L226.397 12.6914L226.784 11.918H227.171V10.582L229.667 10.9688L230.616 10.7578V10.1953L229.667 9.98438L229.069 10.1953L228.682 9.21094H229.069L229.456 7.69922L229.069 6.92578L229.667 6.71484L230.054 4.21875L229.667 3.65625H230.054V4.04297L231.003 4.21875V3.83203L229.843 3.05859V2.67188L230.44 2.49609V1.72266L229.843 1.33594V0.949219L230.229 0H234.659L234.87 0.738281L234.659 1.51172L235.819 1.89844L235.257 2.49609V3.44531L235.432 4.04297L234.659 4.21875L234.483 4.99219L235.046 5.16797L235.257 6.32812L235.046 7.10156L235.432 7.69922H234.659V8.08594L235.608 8.26172V8.82422L234.659 9.42188L234.272 10.582L235.608 10.7578L236.206 12.3047L235.995 12.8672H236.593V13.4648H235.819V14.0273H236.206V14.4141L235.819 15.1875L234.87 15.9609V16.7344L236.206 16.9102L236.593 15.5742L238.14 15.3984V14.8008L237.366 14.625L237.155 12.5156H237.542L238.913 13.2539L239.3 12.6914L239.651 12.1289H238.913H239.3V11.3555L239.862 10.1953L241.022 9.21094C241.28 8.20312 241.667 7.24219 242.182 6.32812H242.745V5.94141L242.569 5.37891L244.468 1.72266L245.452 1.33594L246.225 1.51172L247.35 1.33594L248.897 2.28516V2.88281L249.671 3.26953L249.882 4.78125L248.722 7.48828L248.897 8.08594L247.948 8.26172V8.64844L248.124 9.21094H247.561V9.98438L247.737 10.582L247.35 11.7422L249.495 11.918L250.655 11.7422L251.042 8.82422H251.604C251.862 7.81641 252.378 6.92578 253.151 6.15234L254.311 4.99219H255.823L256.21 5.94141H255.647L255.085 7.48828L255.261 7.875L254.487 9.59766H253.925V10.3711C254.698 10.8867 255.53 11.1445 256.421 11.1445L258.143 10.582L258.917 11.1445L260.464 10.582L260.85 11.3555C260.335 11.6133 260.136 12.0586 260.253 12.6914H259.866L257.968 11.918V12.5156L255.823 13.0781L255.647 14.4141L255.261 15.0117H255.823L255.647 15.7852L254.311 16.1719L254.1 16.9102L254.874 17.5078L255.085 18.457H256.597C257.886 18.1992 259.175 17.8828 260.464 17.5078V18.2812L260.253 18.8438H260.85L261.237 18.668C260.839 19.1836 260.253 19.3711 259.479 19.2305V19.8281H260.077L259.128 20.2148L258.354 19.8281L257.968 20.6016C256.936 20.7188 256.034 21.1641 255.261 21.9375L255.085 22.3242H254.698L253.925 22.1133V22.5L255.085 23.4844C255.975 23.7422 256.936 23.9297 257.968 24.0469L259.128 23.6602L259.69 23.8711L260.64 23.4844L261.237 24.4336L259.866 24.6094V24.9961H259.304V25.3828H258.917L258.354 25.207L257.968 25.9805L256.983 26.3672L256.421 26.1562L256.034 26.9297L255.436 27.1406V27.7031L255.823 28.4766L254.1 29.25L253.714 30.4102L256.597 30.7969L258.917 30.4102L262.186 31.1836L262.784 31.957V32.5195L262.186 32.6953L262.011 33.4688H261.413L261.237 32.1328H260.64V33.8555L260.85 34.4531L260.077 34.0664L259.304 35.2266H258.741L255.823 34.4531L254.311 34.8398L254.1 34.0664L253.327 33.8555L252.765 34.6289H252.167V33.6797H251.78L251.218 34.4531H250.057L248.897 33.293H249.284V32.3438L248.511 32.1328L248.335 32.6953H247.175L246.999 31.7461H247.561V32.3438H247.948L248.511 31.5703H249.108V30.9727H250.268V30.5859L250.057 26.9297L248.511 26.1562L248.124 26.9297H247.737L247.35 25.7695L247.175 25.207H247.948L248.124 25.9805H248.511L249.108 24.4336L249.671 24.6094C250.327 24.1172 250.585 23.4141 250.444 22.5L249.671 20.9531L249.108 20.7773L248.335 20.9531L247.175 20.3906L246.612 21.1641H246.015L245.241 20.9531L244.854 21.9375L245.065 22.7109L244.854 23.6602L245.452 24.9961L246.612 25.3828V25.9805L245.452 26.3672L244.679 25.9805V26.3672L245.452 27.1406L246.015 28.4766L245.241 29.8125L245.628 30.9727H244.468V31.7461H244.854L245.452 31.5703L246.225 32.6953L246.612 34.2422L245.065 35.2266L244.292 35.7891V36.1758L244.468 36.7383C243.577 36.7383 243.003 36.9961 242.745 37.5117V37.8984ZM244.854 35.0156V34.4531H244.292V34.8398L244.854 35.0156ZM247.737 34.8398L247.35 34.6289L248.124 34.4531L248.511 34.6289L247.737 34.8398ZM253.151 33.8555V33.293H252.554V33.8555H253.151ZM231.003 32.1328L230.616 31.7461V32.1328H231.003ZM243.307 28.8633V28.4766L242.569 28.0898V28.4766L243.307 28.8633ZM254.311 28.6523L255.261 28.3008V27.9141L254.1 27.7031L253.714 28.4766L254.311 28.6523ZM234.87 27.5273V26.9297H234.272V27.5273H234.87ZM231.214 26.7539V26.1562H230.616V26.7539H231.214ZM229.069 23.6602V23.2734L228.507 23.0977V23.4844L229.069 23.6602ZM251.604 22.3242V21.7266H251.042L250.444 21.9375V22.5H250.831L251.604 22.3242ZM234.483 20.9531L234.272 20.3906H233.499V20.7773L234.483 20.9531ZM257.757 20.3906V19.8281H257.194V20.2148L257.757 20.3906ZM235.432 18.8438L235.046 18.457V18.8438H235.432ZM246.788 18.668L249.882 18.0703L250.655 13.0781H250.057L249.108 13.2539L248.335 13.0781C247.304 13.3359 246.272 13.6523 245.241 14.0273L245.065 14.625H245.452V15.0117C244.796 15.3867 244.468 15.9609 244.468 16.7344L244.679 17.8945L244.468 18.8438L245.241 19.2305L246.788 18.668ZM254.487 18.668V18.0703H253.327L253.151 18.668H254.487ZM261.624 17.6836V17.2969H262.011V17.6836H261.624ZM234.87 17.1211V16.7344H234.483V17.1211H234.87ZM254.698 14.8008L255.085 13.8516H254.698L254.1 15.0117L254.698 14.8008ZM226.011 14.8008V14.4141L226.784 13.8516L226.186 13.6406V13.0781H225.624L225.237 14.4141L226.011 14.8008ZM253.151 13.8516L252.378 13.4648V14.0273L253.151 13.8516ZM254.311 13.6406L253.714 13.4648V13.8516L254.311 13.6406ZM259.69 11.7422V11.1445H259.304L259.128 11.7422H259.69ZM230.44 9.80859L229.843 9.21094V9.59766L230.44 9.80859ZM243.694 5.55469L243.132 5.37891V5.76562L243.694 5.55469ZM235.257 3.83203V3.26953H234.483V3.83203H235.257ZM231.952 1.72266V1.125H231.214V1.72266H231.952Z" fill="#1A1A1A"/>
<path d="M183.031 39.6211L182.855 38.4609L183.031 36.9141H182.469V35.3672L183.242 33.8203L182.293 33.4336V32.6602L182.68 30.9375L183.242 30.1641L182.68 29.9531L182.469 28.2305L182.68 27.457L181.52 26.8594C181.027 27.5156 180.395 27.7148 179.621 27.457V28.2305L178.672 28.4062L178.496 29.1797L177.371 29.3906L176.773 29.1797C177.031 30.0938 176.785 30.6797 176.035 30.9375L175.648 30.1641L175.262 29.3906L176.598 28.0195V27.457L177.723 27.2461L177.934 26.4727L179.621 25.5234C180.254 24.4922 181.074 23.6484 182.082 22.9922L183.031 22.6055L183.242 21.4453L183.594 21.0586L183.418 19.5117L183.594 17.7539L182.855 17.3672L182.68 17.9648H181.73L180.57 17.7539C180.57 18.4102 180.254 18.7383 179.621 18.7383C178.613 18.082 177.547 17.6953 176.422 17.5781L175.859 16.0312C177.992 15.1172 180.195 14.2734 182.469 13.5L183.031 13.7109V13.1133L183.98 12.5508L184.191 10.0195L183.98 9.24609L184.754 8.85938L184.93 7.52344L184.367 7.3125L184.191 8.08594H183.242L182.469 7.69922L181.906 7.91016V8.68359L180.957 9.07031L180.57 9.84375H180.008L179.445 9.63281V10.0195L179.621 10.4062L177.547 10.0195L177.371 8.85938L177.934 8.08594L179.059 7.69922L179.27 6.75L181.133 5.97656V5.58984H182.293V5.20312C183.301 4.54688 184.438 4.21875 185.703 4.21875V3.62109H185.141C186.266 3.50391 187.402 3.31641 188.551 3.05859L191.012 5.37891C190.004 5.37891 188.984 5.57812 187.953 5.97656V6.36328L186.266 6.92578L186.09 8.47266H185.703V9.24609H186.441L186.652 11.0039L186.441 11.7773H187.004C187.52 11.3789 188.094 11.25 188.727 11.3906V11.0039H189.289L188.551 11.1797V11.5664L190.238 12.1641L190.414 14.2734H190.801V14.6602L189.5 15.6445L188.727 15.2578L188.551 16.0312H187.777L187.215 18.1406C187.848 18.9141 188.668 19.2422 189.676 19.125L190.238 19.8984C191.762 20.9297 193.344 21.7617 194.984 22.3945L195.371 23.7656C194.48 24.1641 193.531 24.4219 192.523 24.5391V24.9258C190.508 24.8789 188.797 24.1758 187.391 22.8164V22.2188H187.004L186.828 26.0859L187.004 26.6836H186.441V27.2461L186.652 28.793H186.266V30.1641L186.652 31.7109L186.266 33.2578C186.641 34.4062 186.77 35.625 186.652 36.9141L187.215 37.5117L185.879 38.4609L185.703 38.8477C184.695 38.7305 183.805 38.9883 183.031 39.6211ZM191.363 35.3672V34.9805L191.574 34.418L191.363 33.8203L192.91 33.4336L193.086 32.6602C193.977 32.543 194.855 32.3555 195.723 32.0977L196.496 32.2734C198.254 32.0156 199.895 31.5 201.418 30.7266V30.1641L201.242 29.0039L201.594 28.0195L200.855 27.8438L200.68 27.457L200.855 26.4727C200.34 25.957 199.648 25.7695 198.781 25.9102C198.781 26.4258 198.465 26.6836 197.832 26.6836L196.32 26.2969C195.805 26.6719 195.172 26.8008 194.422 26.6836L193.262 26.4727L193.859 26.2969V25.9102L194.984 25.3125H195.547V25.6992H196.109L196.32 25.1367L198.781 24.5391L199.344 24.9258L200.469 23.9766L200.68 22.6055H200.293V21.832L200.469 21.2344L200.082 20.0742L199.52 19.6875H198.957V20.0742L195.723 20.6719L194.984 19.6875L195.371 19.125C197.879 18.0938 200.457 17.3555 203.105 16.9102C205.777 16.4414 208.438 16.0195 211.086 15.6445L211.859 16.8047L210.312 16.9805L210.137 17.5781L207.852 18.7383L206.902 18.5273L205.602 19.125V19.5117L205.777 20.4609L205.602 21.2344L205.953 21.6211L204.652 21.832L204.09 21.6211V22.2188C205.59 22.6172 207.102 22.875 208.625 22.9922L209.012 24.3633L208.414 25.1367L209.012 25.6992L207.676 26.0859L207.113 28.4062L206.164 29.1797L207.676 29.5664L207.852 30.1641C208.742 30.1641 209.445 30.4805 209.961 31.1133V30.1641H210.523L212.035 30.9375V30.3398L211.859 29.7773L213.16 30.5508V30.9375H213.723H212.211V31.5L212.984 32.2734L211.859 32.0977V32.8711L212.773 33.4336C209.375 33.9492 205.965 34.0195 202.543 33.6445V34.0312C201.793 34.0312 201.102 34.1602 200.469 34.418L199.73 33.8203V34.5938H199.344L198.184 34.207L197.445 34.418L196.109 33.2578L195.934 34.5938H194.035C193.027 34.5938 192.137 34.8516 191.363 35.3672ZM194.035 34.0312V33.6445H193.648V34.0312H194.035ZM203.492 31.8867L203.141 31.5V31.8867H203.492ZM206.727 31.7109V31.3242L206.164 31.1133L205.953 31.7109H206.727ZM205.215 31.5V30.9375H204.652V31.5H205.215ZM205.777 28.2305L206.551 27.8438L207.113 28.0195V27.2461L206.164 27.0703V27.457H205.602L205.391 28.2305H205.777ZM201.594 27.6328V27.0703H201.031V27.6328H201.594ZM183.418 27.2461L182.855 26.6836V27.457L183.418 27.2461ZM210.312 24.5391L210.523 24.1523L210.699 24.5391H210.312ZM201.418 24.3633L200.68 23.9766V24.5391L201.418 24.3633ZM190.625 23.2031L190.062 22.9922V23.3789L190.625 23.2031ZM201.594 22.9922V22.6055L201.242 22.9922H201.594ZM206.34 18.7383L206.551 18.1406H205.953V18.7383H206.34ZM189.676 14.8711L189.113 14.6602V15.0469L189.676 14.8711ZM196.32 14.6602L196.109 13.8867H195.723L195.16 14.0977L193.859 13.7109C194.469 13.7109 194.773 13.4531 194.773 12.9375L194.211 12.1641L193.648 11.0039L194.035 10.2305L193.262 9.84375V9.45703H193.648V7.3125L194.422 7.13672L194.598 6.53906C197.129 5.50781 199.66 4.53516 202.191 3.62109L202.367 4.21875H202.754L203.141 3.44531L203.879 3.23438L206.164 3.44531C207.289 2.78906 208.555 2.46094 209.961 2.46094L210.137 3.23438H210.523L210.91 3.05859V3.44531L210.523 4.81641L209.961 4.99219V5.37891L210.312 6.75L209.961 8.08594L209.012 9.07031V9.63281L209.961 10.2305V10.6172L209.012 11.0039L208.625 11.7773L207.676 11.9531L207.5 12.3398C205.836 12.8555 204.066 13.1836 202.191 13.3242L201.031 13.1133L200.469 13.3242V13.8867H199.906L198.57 13.3242V14.0977L196.883 14.2734V14.6602H196.32ZM195.16 12.5508L194.773 12.1641V12.5508H195.16ZM203.879 11.1797L204.266 10.2305H204.652C205.145 8.94141 205.52 7.58203 205.777 6.15234C205.027 5.63672 204.207 5.44922 203.316 5.58984L202.754 5.76562L201.805 5.58984L201.418 6.36328H199.906L199.344 6.15234L198.781 7.13672H198.184V7.52344L196.883 8.08594L196.672 8.85938H197.059L197.832 8.68359L198.184 9.24609L198.008 10.0195H199.133V10.4062L198.395 10.793L198.184 11.3906L201.418 11.5664L203.879 11.1797ZM196.883 10.4062L197.059 9.84375H196.496V10.4062H196.883ZM208.414 9.45703L207.852 8.85938V9.24609L208.414 9.45703ZM196.109 8.68359L196.32 8.08594H195.371V8.47266L196.109 8.68359ZM206.164 5.58984V4.99219H205.602V5.58984H206.164ZM209.363 4.21875L209.574 3.62109H209.188L209.012 4.21875H209.363Z" fill="#1A1A1A"/>
<path d="M152.172 35.2266L151.609 35.0156V34.2422H151.012L150.836 32.5195H150.238V32.1328L150.414 31.5703H150.027L150.238 30.7969H151.223L151.398 28.8633L151.785 29.8125L152.383 30.0234L151.996 30.9727L153.156 31.3594V30.5859H154.141L155.301 31.1836V30.5859L153.754 29.8125V29.4258L155.863 28.4766L156.25 27.7031H156.848L157.445 27.9141V27.5273L157.059 27.3164V26.9297H156.461H157.059L157.445 27.1406V27.5273H158.008V27.1406H158.395L159.379 27.3164L159.59 26.3672H160.363L160.539 28.0898H159.379L158.781 27.7031L158.219 28.6523L157.832 28.3008L157.234 30.4102L156.461 31.1836H156.074L155.477 32.5195L153.93 33.082L153.543 34.0664L152.172 34.4531V34.8398V35.2266ZM158.219 34.4531L158.008 33.6797L158.605 34.4531H158.219ZM160.926 34.0664L161.313 33.6797V34.0664H160.926ZM158.992 33.8555L158.781 33.293L159.59 32.9062V32.3438L158.605 31.1836L159.203 30.5859L158.781 30.1992H159.203V29.0391L160.152 29.6367L161.313 29.0391V29.4258L160.152 29.8125L159.977 30.4102H159.379V30.9727L160.152 33.293L159.977 33.6797L158.992 33.8555ZM161.313 33.293V32.5195H161.699L161.313 33.293ZM139.516 32.6953L139.34 32.1328H138.953L138.355 32.3438L138.18 31.7461C137.523 31.8867 137.066 31.6992 136.809 31.1836L136.598 30.0234L136.809 29.4258L136.598 28.8633L136.809 27.9141C136.551 26.2266 136.223 24.5508 135.824 22.8867L136.598 22.3242C136.48 21.668 136.68 21.2109 137.195 20.9531H137.793C138.309 21.3516 138.566 21.8672 138.566 22.5L140.324 22.8867V21.9375L139.516 21.3398V20.6016L140.324 20.3906L141.871 20.9531V21.5508H142.258C143.172 21.293 144.016 21.0352 144.789 20.7773V20.3906H145.176L146.16 21.1641V20.7773H146.547V22.3242H147.109L146.336 24.2578L146.723 24.4336V25.207L147.32 25.5938L146.934 26.1562H146.547L145.949 25.9805V26.7539L146.16 27.3164H146.723L147.109 27.1406C147.508 27.9141 147.707 28.6758 147.707 29.4258L146.336 29.6367L145.949 30.9727L144.965 31.1836L144.016 30.7969L143.629 31.5703L144.191 32.1328L142.469 32.3438L140.324 32.1328L139.516 32.6953ZM153.156 32.3438L153.332 31.7461L151.996 31.5703L151.785 32.5195L153.156 32.3438ZM160.363 31.957V31.3594H161.137L161.313 31.7461L160.363 31.957ZM168.52 30.1992L166.973 29.6367L166.762 29.0391L162.121 25.3828H160.75V25.9805V25.5938H159.379L158.992 26.1562L157.832 26.543V26.1562H158.219V25.7695L157.832 25.207L158.605 25.3828V24.8203L158.008 24.6094L157.621 23.0977L156.25 22.7109L154.703 22.8867L154.316 21.1641H153.754L153.332 22.5L152.559 22.8867L151.996 21.9375C151.223 21.9375 150.508 21.6797 149.852 21.1641V20.6016H150.238V19.4414L150.027 19.0547H150.414L150.625 19.8281H151.012L152.559 19.6172L153.156 19.8281V19.0547L155.477 18.8438L155.688 19.6172H156.25L156.672 19.4414L156.848 19.8281H157.234L157.445 18.668L157.621 19.0547H158.219L158.605 18.2812H158.008V17.8945L158.395 16.5586L157.445 16.3477C157.563 15.5742 157.305 15.1289 156.672 15.0117L156.25 15.1875L155.688 14.2383H155.301L154.527 14.625V15.0117L154.914 15.1875V15.5742H154.316L153.156 15.0117L152.77 13.8516L152.945 12.8672H153.332L153.543 13.6406H154.316V13.0781L156.672 12.6914L156.848 12.1289H157.621L158.395 12.3047L158.605 11.5312L158.395 10.3711H157.832L157.234 10.582V9.59766H157.621V8.82422L156.848 8.47266V8.08594H155.688L155.477 8.64844L154.703 8.82422L154.316 9.80859L153.543 9.98438L153.332 10.9688L153.543 11.5312L153.156 12.3047H152.383L152.172 12.8672H151.012L150.625 12.1289C150.625 10.6523 150.625 9.17578 150.625 7.69922L150.238 5.76562L150.836 1.89844L151.996 1.51172L152.172 0.949219L153.754 0.738281V1.125L155.301 1.51172L155.477 0.175781C156.555 -0.105469 157.598 -0.0351562 158.605 0.386719V0C159.52 0.0703125 160.422 0.257812 161.313 0.5625L161.523 0H166.199L166.375 0.5625L166.199 0.949219H165.813V1.33594C166.328 3 166.516 4.86328 166.375 6.92578L165.813 8.82422L166.375 10.9688C165.742 11.3438 165.484 11.8594 165.602 12.5156H166.375V13.0781L165.426 13.8516V14.625L165.602 15.0117L163.457 15.3984L163.281 14.8008H162.684L162.297 15.3984L161.313 16.7344L160.363 16.3477V17.6836L161.137 18.668L161.699 18.8438L162.297 18.668V18.0703L163.668 18.668L164.652 18.2812V19.0547H165.215L165.426 17.8945L165.988 17.6836L166.973 18.668H166.199V19.4414L166.973 19.6172V20.0039L165.215 20.7773V21.3398H165.813V21.7266L165.215 21.9375L164.23 21.3398L163.668 20.7773C163.668 21.4102 163.469 21.9844 163.07 22.5H161.91V23.0977L162.121 23.6602H162.508L163.07 23.4844C164.641 25.0078 166.328 26.3555 168.133 27.5273L168.73 27.7031L169.891 28.6523L170.277 29.8125C169.762 30.2109 169.176 30.3398 168.52 30.1992ZM138.355 29.6367L137.793 29.4258V29.8125L138.355 29.6367ZM144.016 29.4258V28.8633H143.418V29.4258H144.016ZM152.945 29.25L152.559 28.3008L153.332 29.0391L152.945 29.25ZM141.484 29.0391L142.469 28.6523L143.629 28.8633L144.402 28.4766C144.332 27.1172 144.461 25.7695 144.789 24.4336L144.402 24.2578V23.4844L144.965 23.2734V22.8867L143.629 22.7109L143.242 23.4844H142.855V23.0977L143.418 22.8867V22.1133L142.469 21.9375L140.887 22.7109L140.711 23.2734L139.938 23.6602L139.727 24.0469L139.516 24.6094L140.113 27.5273L140.711 28.6523L141.484 29.0391ZM153.93 28.6523L153.754 28.0898L154.527 27.7031L154.914 26.9297H155.477L155.301 28.3008L153.93 28.6523ZM139.727 27.7031V27.1406H139.129V27.7031H139.727ZM145.773 26.9297V26.3672H145.176V26.9297H145.773ZM137.406 26.1562V25.5938H136.809V26.1562H137.406ZM159.59 25.3828V24.6094H159.203L158.992 25.207L159.59 25.3828ZM139.129 24.9961L138.742 24.6094V24.9961H139.129ZM144.965 22.5V21.1641H144.016V21.5508L144.402 22.5H144.965ZM155.688 22.5V21.9375L154.703 21.7266V22.1133L155.688 22.5ZM156.672 22.3242V21.9375L156.848 21.3398L156.25 21.1641L155.863 22.3242H156.672ZM140.711 21.7266V21.3398L140.113 21.1641V21.7266H140.711ZM166.375 21.5508V21.1641H166.762V21.5508H166.375ZM151.398 20.3906L150.836 20.2148V20.6016L151.398 20.3906ZM163.844 20.2148V19.8281L164.055 19.0547L163.457 18.8438L163.07 19.6172L163.281 20.2148H163.844ZM162.297 19.8281L162.508 19.2305H162.121L161.699 20.0039L162.297 19.8281ZM161.523 19.6172V19.0547H161.137V19.6172H161.523ZM160.363 19.4414V18.2812H159.766L159.203 18.457V19.0547L160.363 19.4414ZM136.211 18.668V17.8945L135.824 16.7344L139.516 15.9609L140.113 16.3477L140.324 15.3984H140.711V15.7852H141.273V15.3984H141.66L142.258 15.5742L143.242 15.1875L143.805 15.3984L144.402 15.1875L145.773 16.5586L145.387 16.7344L145.176 17.6836H144.578C144.062 17.3086 143.488 17.1797 142.855 17.2969V17.6836L141.098 18.0703L137.02 17.6836V18.0703L136.211 18.668ZM164.23 14.2383L163.668 14.0273V14.4141L164.23 14.2383ZM162.684 14.0273L161.91 13.2539V13.6406L162.684 14.0273ZM164.828 13.8516V13.4648H164.441V13.8516H164.828ZM156.672 13.4648V13.0781H156.25V13.4648H156.672ZM160.539 12.5156L163.457 11.5312C163.527 10.0078 163.598 8.47266 163.668 6.92578H163.281L162.508 7.10156L161.313 6.71484V7.10156L161.523 7.69922L158.605 9.03516V9.59766L159.766 10.582L159.977 9.59766L160.926 9.42188L161.313 9.59766L161.523 10.582L161.313 10.9688V9.98438H160.926L159.977 10.3711V10.7578H159.379L158.992 10.582L158.781 11.1445L160.539 12.5156ZM136.422 12.1289L135.824 11.918V11.1445C137.91 10.3711 140.055 9.85547 142.258 9.59766L143.805 9.80859L145.387 9.42188L146.16 9.80859L146.336 10.582L145.387 10.9688L144.965 11.7422L142.469 11.918L141.66 11.5312L139.727 11.7422L138.953 11.5312L138.742 11.918H138.18L137.406 11.7422L136.422 12.1289ZM153.93 9.21094V8.64844H153.332L153.156 9.21094H153.93ZM165.039 8.64844L164.441 8.08594V8.64844H165.039ZM156.672 7.875V7.3125H156.074V7.69922L156.672 7.875ZM138.742 6.53906V5.94141L135.438 5.55469L135.262 3.83203C136.293 3.45703 137.453 3.32812 138.742 3.44531L139.129 0.5625H140.113V0H141.273L141.484 0.386719H141.871L142.047 0H142.645L143.418 2.67188L146.336 2.88281L147.496 2.67188L148.094 3.26953L148.305 2.67188L148.867 2.49609L149.078 3.65625L148.691 4.42969H148.305C148.422 5.0625 148.223 5.4375 147.707 5.55469L146.723 5.37891V5.76562L146.934 6.32812H146.336L144.965 5.76562L144.191 5.94141L143.418 6.15234L142.645 5.94141V6.32812L141.098 5.94141L140.324 6.32812V5.76562L140.5 5.16797L139.516 4.42969C139.656 5.32031 139.398 6.02344 138.742 6.53906ZM161.523 6.32812L162.121 5.55469L163.668 5.37891L164.055 2.10938L162.508 1.72266V2.10938L163.07 3.44531H162.121L161.137 2.67188L160.926 3.26953L161.137 4.04297L160.363 4.42969V4.99219L161.137 5.37891L160.75 5.55469V6.15234L161.523 6.32812ZM153.156 6.15234L153.332 5.55469H152.77L152.559 6.15234H153.156ZM158.781 5.94141L158.992 4.99219L157.621 4.78125L157.059 4.99219L156.074 2.49609L154.703 2.10938V3.26953L155.477 3.65625V4.04297H155.09L153.93 3.65625L153.156 5.16797L153.332 5.76562C154.246 6.14062 155.289 6.26953 156.461 6.15234L158.219 5.55469L158.781 5.94141ZM143.418 5.76562L144.402 5.55469V4.99219L142.258 4.60547V4.99219L143.031 5.37891L143.418 5.76562ZM147.32 3.83203V3.44531L146.723 3.26953V3.65625L147.32 3.83203ZM153.543 3.05859V2.67188H153.156V3.05859H153.543ZM156.461 1.89844V1.51172L156.074 0.5625H155.477V1.51172L156.461 1.89844ZM160.363 1.33594L159.977 0.949219V1.33594H160.363Z" fill="#1A1A1A"/>
<path d="M93.5977 38.6094L92.4727 37.4492L92.2617 36.1133C92.2617 35.082 92.5195 34.3086 93.0352 33.793H93.4219V33.4062C92.7891 32.8906 92.5898 32.1875 92.8242 31.2969L93.0352 30.5234H93.5977V29.9609L93.0352 29.75V29.1875L94.1602 27.8164L93.4219 27.6406L93.2109 25.918C93.3516 24.7461 93.6094 23.6445 93.9844 22.6133L93.8086 20.1172L94.1602 17.6211H94.7578L94.9336 16.2852L94.3711 16.0742C94.9336 13.8242 94.8633 11.5859 94.1602 9.35937L94.7578 8.58594L93.9844 7.98828V3.55859H94.7578L99.1172 5.10547L100.066 4.92969L101.016 5.31641L101.227 4.71875L102.738 5.87891V5.10547H103.301L104.074 5.31641V4.92969H104.637V5.49219L104.285 6.44141L105.41 6.82812L106.359 6.44141V6.82812L105.234 7.8125V8.375L105.973 8.76172L106.57 8.58594L106.922 9.74609L106.359 10.6953C106.734 11.7266 107.051 12.7578 107.309 13.7891L106.746 13.9648V14.5273C107.379 14.5273 107.953 14.7266 108.469 15.125L109.031 14.9141V15.3008L108.082 16.4609L108.469 17.6211L107.52 18.2187L106.746 17.832V18.2187H105.973V18.7812H105.023L103.301 18.2187L102.949 19.7305L102.352 19.9414L101.965 19.7305V19.3437L103.512 17.4453V16.8477L102.352 16.4609L102.176 17.4453L101.402 16.6719H100.84L101.613 18.7812H100.84L100.277 18.5703V20.3281H99.8906V19.7305H99.1172V19.3437L100.066 18.5703L98.9414 18.0078L97.3945 19.5547L97.7812 20.3281H97.2187L97.043 23.5977L97.2187 24.1602H96.832V24.7578L97.043 25.3203L96.832 26.4805L97.043 27.043C97.043 30.1367 96.7852 33.0898 96.2695 35.9023L96.4453 37.0625L95.707 37.2734L95.4961 37.8359L95.707 38.2227H94.7578L93.9844 37.8359L93.5977 38.6094ZM123.129 35.1289L122.566 34.3555L121.969 34.1797L121.793 32.6328L122.355 31.8594L121.793 31.4727V30.9102L122.355 29.5742L122.742 28.8008L122.566 28.4141L122.742 27.8164L121.969 27.6406V27.043L122.18 26.0937L121.969 25.5312L122.742 23.5977L122.18 23.2109V22.2617L122.355 21.4883H120.844V21.1016H120.457L120.07 21.2773L118.559 21.1016V21.4883H117.785L116.273 20.8906L114.938 21.1016L112.652 20.1172L112.441 18.5703H114.164L115.324 19.168L115.711 18.957L116.273 19.168L116.449 18.3945H116.063V17.832L116.66 17.6211V17.2344L116.449 16.8477L117.609 17.6211L116.836 19.168H117.223L117.609 18.5703L117.785 19.3437L118.945 19.5547L119.332 18.0078L119.895 18.5703H120.457L121.02 17.6211L121.406 18.5703L121.969 18.7812L122.355 17.832L122.18 17.0586L122.742 13.5781L121.793 12.8047L121.617 13.1914H121.23V12.418H120.457V12.0312H121.23V11.6445L120.633 9.92187C120.258 10.6953 119.883 11.4687 119.508 12.2422L119.684 13.0156H118.945L118.172 12.8047L117.609 13.0156L116.66 12.418L116.063 14.3516H116.449V14.7383L116.063 15.3008L116.449 15.8984L116.273 16.2852L115.711 16.4609L115.5 16.8477L113.602 17.2344L112.652 16.6719L111.879 6.65234L112.266 5.70312L113.426 4.92969V4.33203L113.215 3.94531L113.602 3.38281L114.938 3.17187L115.887 3.38281V2.78516H116.273L117.785 3.17187L117.996 2.39844L118.734 2.22266V2.99609H119.508V2.60937C120.258 2.79687 121.02 2.79687 121.793 2.60937L121.969 3.17187H122.566L122.918 2.60937L123.691 2.99609L124.465 2.78516L125.801 3.76953L125.414 4.71875L125.977 4.92969V5.31641L125.801 5.87891L125.203 6.44141L125.801 8.58594L126.188 8.76172V9.14844H125.801V9.74609L126.188 10.4844L125.59 12.0312L126.188 12.418L125.801 13.1914L126.363 14.7383L125.801 14.1758L125.203 13.7891L125.027 14.3516H125.414V14.7383L125.027 15.3008L125.203 15.6875H126.188L126.363 17.4453L125.59 17.6211V18.0078L126.75 18.5703V19.5547H125.801V19.9414L126.926 22.4375L125.59 22.8242V23.3867L126.926 24.5469V25.707L126.363 27.4297L126.75 28.9766L126.539 29.5742L126.75 30.5234L126.539 32.457L126.75 33.0195L125.801 33.2305L125.414 34.5664H124.852L124.078 34.3555L123.129 35.1289ZM123.516 34.3555L122.742 33.6172V34.0039L123.516 34.3555ZM125.977 30.5234L126.363 29.75H125.203V30.1367L125.977 30.5234ZM122.742 27.4297V27.043H122.355V27.4297H122.742ZM116.063 20.7148L116.273 20.1172H115.113V20.7148H116.063ZM119.121 20.7148L118.734 20.3281V20.7148H119.121ZM121.617 20.5039V19.9414H121.02V20.5039H121.617ZM117.996 19.9414L117.398 19.5547V20.1172L117.996 19.9414ZM104.461 19.7305L103.687 19.5547V19.168H104.285L104.461 19.7305ZM113.426 19.5547L113.039 19.168V19.5547H113.426ZM101.016 18.0078L100.84 17.0586H100.277V17.832L101.016 18.0078ZM104.285 18.0078V17.6211H103.898V18.0078H104.285ZM104.848 17.6211L105.234 16.8477H104.848L104.285 17.832L104.848 17.6211ZM118.172 17.2344L119.332 16.6719V17.0586L118.172 17.2344ZM97.6055 16.4609V16.0742H97.2187V16.4609H97.6055ZM99.3281 16.2852L99.5039 15.8984C100.324 15.7812 101.086 15.9102 101.789 16.2852L102.949 15.5117L103.898 15.8984L105.41 14.3516H104.848L104.285 14.5273L104.637 13.7891H104.074L103.687 11.8555H103.301L102.949 12.6289H102.176L101.613 11.082H102.562L102.352 11.8555H102.738L103.125 11.082H103.512L103.898 11.2578L104.074 9.35937L102.738 9.14844L102.176 9.35937L101.965 8.58594C101.215 8.84375 100.781 8.64453 100.664 7.98828L101.402 7.60156L101.613 6.82812L101.227 6.65234V6.26562H100.664L100.277 7.8125L99.6797 7.98828V8.58594L100.277 8.97266H99.6797L97.6055 8.58594L97.3945 10.3086L98.3789 10.6953L99.5039 11.082L99.6797 10.4844L100.277 10.3086V10.6953L100.066 12.0312H100.453V12.418L100.277 14.1758H100.664L100.277 14.5273L98.9414 13.7891H98.5547L97.6055 14.7383V16.2852H98.3789V15.8984L98.7305 16.4609L99.3281 16.2852ZM102.562 14.1758L101.789 13.7891H102.949L102.562 14.1758ZM98.9414 12.2422L98.3789 11.8555V11.082H97.9922L97.6055 12.6289H97.9922L98.9414 12.2422ZM119.121 12.0312V11.4687H118.559V12.0312H119.121ZM118.172 11.6445L118.348 10.8711H117.785V11.6445H118.172ZM122.742 11.6445L122.355 11.2578L122.18 11.8555L122.742 11.6445ZM121.617 10.8711V10.1328L122.18 10.3086C122.672 9.27734 122.918 8.11719 122.918 6.82812C121.395 6.19531 119.754 5.69141 117.996 5.31641L116.66 5.87891L115.711 5.70312L114.551 6.08984L114.375 7.60156L115.113 7.98828L115.5 8.97266L116.66 9.14844L119.332 8.58594L119.684 9.35937L120.457 9.53516L121.02 10.8711H121.617ZM118.172 10.4844V9.92187H117.609V10.4844H118.172ZM113.426 8.58594L113.602 7.8125H113.039L112.652 8.58594H113.426ZM99.6797 7.98828L98.9414 7.60156V8.375H99.6797V7.98828ZM102.738 7.60156L102.176 7.03906V7.8125L102.738 7.60156ZM113.988 7.42578V7.03906L113.777 6.44141H113.215L113.039 7.03906L113.988 7.42578ZM99.3281 7.21484V6.82812H98.9414V7.21484H99.3281ZM114.164 4.92969L113.777 4.54297V4.92969H114.164ZM114.164 4.15625L113.602 3.94531V4.33203L114.164 4.15625Z" fill="#1A1A1A"/>
<path d="M104.13 38.5391L103.88 37.7734L103.614 37.3359L103.692 36.1641V35.8203L103.942 35.2266L103.848 34.0234H104.02V33.8516L103.848 33.4141L103.598 33.3359V32.7266L103.77 32.2109L103.083 32.0391C102.979 31.8099 102.755 31.7266 102.411 31.7891L102.239 31.8672L101.645 31.6953L101.723 31.3516C101.484 31.3307 101.26 31.388 101.052 31.5234L100.786 31.0078H100.958V30.8359C100.624 30.4922 100.484 30.0599 100.536 29.5391L100.114 29.4609L100.192 29.1953L100.88 29.1172L101.302 29.2891V28.9453L101.052 28.6016L101.223 28.5078V28.1641L100.786 27.7422L100.958 27.3047H100.708L100.458 27.3984L100.286 26.9609L100.364 26.6172L100.114 26.5391V26.1953L100.286 25.7578L100.02 24.9922L100.958 24.8984V24.2109H101.473V24.0391H101.645L102.067 24.1328V23.8672H102.239V23.3516L102.755 23.5234L102.927 22.9297L102.833 22.7578H103.177L103.427 22.8359V22.6641L103.348 22.3203H103.692V22.0547L103.598 21.8828C104.109 22.1745 104.505 22.5495 104.786 23.0078V23.2734C104.109 24.0755 103.343 24.763 102.489 25.3359H102.317V25.7578L102.755 26.0234L103.005 25.9297C103.234 26.2734 103.572 26.388 104.02 26.2734L104.192 25.7578L104.88 25.5859L105.13 25.6797C105.359 25.1589 105.588 24.6432 105.817 24.1328H105.989L106.317 24.3047V24.4766L105.817 24.7266L105.723 24.9922L105.989 25.0703L106.239 24.9922L106.317 25.7578L106.583 25.8516L107.005 25.6797V25.8516L106.239 26.1016V25.8516H106.067V25.3359H105.723L105.395 25.5078V25.7578L105.817 26.0234V26.1953L105.723 26.5391L105.895 26.8828L105.817 27.3047L105.552 27.4766L105.223 28.1641H105.052L104.88 27.9141H104.536V28.1641H104.708V28.6016V28.4297H104.364V29.1172H104.114L103.942 29.8047H104.192V29.4609L104.958 29.3672L105.13 29.7109H105.302L105.395 29.1953H105.723L106.067 29.6328H106.583L107.661 29.8828H107.833L107.005 28.7734H106.833L106.489 28.8516L106.239 28.1641H106.489L106.583 28.4297H107.177L107.255 28.7734L106.598 29.8516L107.52 29.2891H107.848L108.114 29.1953L107.942 29.2891V29.7109C107.661 29.6589 107.52 29.7474 107.52 29.9766L107.692 30.3203L107.255 30.4922V30.3203L107.348 29.9766H107.833L107.755 30.3203L107.833 30.5859H107.583V31.1016H107.411L107.161 31.0078L106.895 31.1016V30.9297H106.723C106.39 31.2734 105.281 31.7005 105.395 32.2109C105.614 32.7318 105.723 33.3047 105.723 33.9297L105.645 34.2734L105.895 34.4453V34.7109L105.723 35.5703H105.552V35.8203H105.723L104.895 38.1172L104.552 38.1953L104.473 38.3672L104.13 38.5391ZM101.473 36.8516L100.192 36.0859L100.114 35.3984L100.364 34.9609L100.02 34.7109L100.114 34.4453L99.8484 33.8516L100.02 33.0703L99.9421 32.8203L101.052 33.4141C101.562 34.3932 101.843 35.4557 101.895 36.6016L101.817 36.7734L101.473 36.8516ZM105.223 36.0859V35.5703H104.958V36.0859H105.223ZM104.458 35.6484V35.2266H104.286L103.942 35.8203H104.192L104.458 35.6484ZM100.614 35.3984L100.364 35.3047V35.4766L100.614 35.3984ZM101.13 35.0547L100.958 34.8828V35.0547H101.13ZM104.88 34.8828V34.5391L104.536 34.2734H104.958V34.0234L104.708 33.4141L104.786 33.0703L104.536 32.9922L104.364 33.3359L104.114 33.4141V33.6797H104.364V34.0234L104.286 34.5391L104.88 34.8828ZM100.958 34.7109V34.5391L100.614 34.4453V34.6172L100.958 34.7109ZM109.223 33.3359L108.88 33.0703L109.052 32.4766L108.958 32.3047H108.786V32.5547L108.364 32.3047L107.942 32.3828L107.427 31.1016H107.255V30.9297H107.692C107.692 30.638 107.802 30.4036 108.02 30.2266L108.458 30.1484L108.536 30.3984L108.192 30.4922L108.114 31.1016L108.364 31.1797L108.458 30.7578H108.708L108.88 31.2734L109.13 31.3516V31.1016L109.223 31.3516L109.13 31.9609L109.395 32.8984L109.723 32.9922L109.302 33.0703L109.223 33.3359ZM104.88 32.8203V32.5547L105.052 32.2109L104.958 31.5234H104.786L104.458 32.3047V32.6484L104.88 32.8203ZM105.473 32.8203V32.5547H105.223V32.8203H105.473ZM108.958 32.0391L108.536 31.6953V31.8672L108.958 32.0391ZM108.192 31.6953V31.3516L107.942 31.2734L107.848 31.5234L108.192 31.6953ZM103.177 31.5234V31.2734L102.833 31.1797V31.4453L103.177 31.5234ZM103.005 31.0078V30.7578H102.661V31.0078H103.005ZM105.395 30.8359L105.473 30.4922L105.223 30.3984L105.13 30.9297L105.395 30.8359ZM101.395 30.7578V30.5859H101.223V30.7578H101.395ZM103.52 30.6641V30.4922H103.348V30.6641H103.52ZM105.052 30.4922V30.1484L105.13 29.8047H104.88L104.786 30.1484H104.536V30.3984L105.052 30.4922ZM106.895 30.1484V29.9766H106.723V30.1484H106.895ZM107.489 30.1484V29.9766H107.317V30.1484H107.489ZM107.255 29.7109L107.083 29.5391V29.7109H107.255ZM102.661 29.2891V29.1172H102.489V29.2891H102.661ZM103.692 29.1953L103.77 28.3359H103.255V28.6016H103.427V28.8516L103.348 29.1172L103.692 29.1953ZM106.348 30.1953V30.0234H106.177V30.1953H106.348ZM101.895 28.6797V28.4297L101.645 28.2578V27.9922L101.723 27.6484L101.223 27.5703V27.8203L101.473 28.5078L101.895 28.6797ZM103.348 28.2578V27.9922H103.083V28.2578H103.348ZM105.13 26.8828L104.88 26.7891V26.9609L105.13 26.8828ZM105.052 26.6172V26.4453L105.13 26.1016H104.708V26.3672L104.786 26.6172H105.052ZM104.614 26.1016V25.7578H104.364V26.0234L104.614 26.1016ZM100.708 25.4141V25.2422L100.364 25.1641V25.3359L100.708 25.4141ZM106.833 25.2422V25.0703L106.927 24.8203L106.755 24.5547L107.005 25.0703L106.833 25.2422ZM101.645 25.1641C101.697 24.7578 101.614 24.5286 101.395 24.4766V24.6484L101.645 25.1641ZM102.239 24.7266V24.3828H101.989V24.7266H102.239ZM102.833 24.3047V24.0391H102.583V24.2109L102.833 24.3047ZM103.692 23.9609V23.6953H103.52L103.427 23.9609H103.692ZM103.255 23.6172V23.3516H103.005V23.6172H103.255ZM103.692 23.3516V23.1016H103.255L103.177 23.3516H103.692ZM103.692 22.7578V22.4922H103.427V22.7578H103.692Z" fill="#1A1A1A"/>
<path d="M100.276 35.1456L100.736 35.0153L100.953 35.3922L101.225 35.315L102.248 35.2648C102.052 35.3747 101.831 35.4443 101.583 35.4735L101.272 35.4804L101.255 35.745L101.442 35.6919L101.693 35.5395L101.996 35.8923L102.396 35.8763L103.098 35.4986L103.374 35.7612L104.085 35.7384L104.289 35.4206C103.994 34.8547 103.693 34.377 103.386 33.9876L102.803 34.0717C102.783 33.785 102.648 33.6771 102.399 33.7478L102.446 33.9132L102.173 33.9904L102.08 33.6597L102.148 34.1072L100.574 34.4441L100.408 34.5723L100.416 34.9272L100.276 35.1456Z" fill="#1A1A1A"/>
<path d="M115.13 38.5391L114.88 36.7734L114.614 36.3359L114.692 36.1641V35.8203L114.942 35.2266L114.848 34.0234H115.02V33.8516L114.848 33.4141L114.598 33.3359V32.7266L114.77 32.2109L114.083 32.0391C113.979 31.8099 113.755 31.7266 113.411 31.7891L113.239 31.8672L112.645 31.6953L112.723 31.3516C112.484 31.3307 112.26 31.388 112.052 31.5234L111.786 31.0078H111.958V30.8359C111.624 30.4922 111.484 30.0599 111.536 29.5391L111.114 29.4609L111.192 29.1953L111.88 29.1172L112.302 29.2891V28.9453L112.052 28.6016L112.223 28.5078V28.1641L111.786 27.7422L111.958 27.3047H111.708L111.458 27.3984L111.286 26.9609L111.364 26.6172L111.114 26.5391V26.1953L111.286 25.7578L111.02 24.9922L111.958 24.8984V24.2109H112.473V24.0391H112.645L113.067 24.1328V23.8672H113.239V23.3516L113.755 23.5234L113.927 22.9297L113.833 22.7578H114.177L114.427 22.8359V22.6641L114.348 22.3203H114.692V22.0547L114.598 21.8828C115.109 22.1745 115.505 22.5495 115.786 23.0078V23.2734C115.109 24.0755 114.343 24.763 113.489 25.3359H113.317V25.7578L113.755 26.0234L114.005 25.9297C114.234 26.2734 114.572 26.388 115.02 26.2734L115.192 25.7578L115.88 25.5859L116.13 25.6797C116.359 25.1589 116.588 24.6432 116.817 24.1328H116.989L117.317 24.3047V24.4766L116.817 24.7266L116.723 24.9922L116.989 25.0703L117.239 24.9922L117.317 25.7578L117.583 25.8516L118.005 25.6797V25.8516L117.239 26.1016V25.8516H117.067V25.3359H116.723L116.395 25.5078V25.7578L116.817 26.0234V26.1953L116.723 26.5391L116.895 26.8828L116.817 27.3047L116.552 27.4766L116.223 28.1641H116.052L115.88 27.9141H115.536V28.1641H115.708V28.6016V28.4297H115.364V29.1172H115.114L114.942 29.8047H115.192V29.4609L115.958 29.3672L116.13 29.7109H116.302L116.395 29.1953H116.723L117.067 29.6328H117.583L117.661 29.8828H117.833L118.005 28.7734H117.833L117.489 28.8516L117.239 28.1641H117.489L117.583 28.4297H118.177L118.255 28.7734L118.598 28.8516L118.52 29.2891H118.848L119.114 29.1953L118.942 29.2891V29.7109C118.661 29.6589 118.52 29.7474 118.52 29.9766L118.692 30.3203L118.255 30.4922V30.3203L118.348 29.9766H117.833L117.755 30.3203L117.833 30.5859H117.583V31.1016H117.411L117.161 31.0078L116.895 31.1016V30.9297H116.723C116.39 31.2734 116.281 31.7005 116.395 32.2109C116.614 32.7318 116.723 33.3047 116.723 33.9297L116.645 34.2734L116.895 34.4453V34.7109L116.723 35.5703H116.552V35.8203H116.723L116.895 38.1172L116.552 38.1953L116.473 38.3672L115.13 38.5391ZM120.13 37.3672V36.9453L119.708 36.8516V36.6016L120.052 36.5078L120.395 36.6016V36.0859H120.645L120.723 36.9453L120.645 37.1172L120.302 37.1953L120.13 37.3672ZM119.286 36.6797V36.5078L119.364 36.2578L118.942 36.0859L118.848 35.7422L119.02 35.0547L118.692 34.8828L118.52 32.2734L118.77 32.0234C119.395 32.138 119.937 32.2786 120.395 32.4453L120.473 34.9609C120.755 34.9089 120.895 34.9974 120.895 35.2266H120.723V35.4766H121.067L120.223 35.5703V35.3984H119.614C119.447 35.6797 119.395 35.9922 119.458 36.3359L119.536 36.6016L119.286 36.6797ZM116.223 36.0859V35.5703H115.958V36.0859H116.223ZM115.458 35.6484V35.2266H115.286L114.942 35.8203H115.192L115.458 35.6484ZM119.88 35.2266V34.8828H119.708L119.614 35.1328L119.88 35.2266ZM115.88 34.8828V34.5391L115.536 34.2734H115.958V34.0234L115.708 33.4141L115.786 33.0703L115.536 32.9922L115.364 33.3359L115.114 33.4141V33.6797H115.364L116.364 34.0234L116.286 34.5391L115.88 34.8828ZM120.223 33.3359L119.88 33.0703L120.052 32.4766L119.958 32.3047H119.786V32.5547L119.364 32.3047L118.942 32.3828L118.427 31.1016H118.255V30.9297H118.692C118.692 30.638 118.802 30.4036 119.02 30.2266L119.458 30.1484L119.536 30.3984L119.192 30.4922L119.114 31.1016L119.364 31.1797L119.458 30.7578H119.708L119.88 31.2734L120.13 31.3516V31.1016L120.223 31.3516L120.13 31.9609L120.395 32.8984L120.723 32.9922L120.302 33.0703L120.223 33.3359ZM115.88 32.8203V32.5547L116.052 32.2109L115.958 31.5234H115.786L115.458 32.3047V32.6484L115.88 32.8203ZM116.473 32.8203V32.5547H116.223V32.8203H116.473ZM119.958 32.0391L119.536 31.6953V31.8672L119.958 32.0391ZM119.192 31.6953V31.3516L118.942 31.2734L118.848 31.5234L119.192 31.6953ZM114.177 31.5234V31.2734L113.833 31.1797V31.4453L114.177 31.5234ZM114.005 31.0078V30.7578H113.661V31.0078H114.005ZM116.395 30.8359L116.473 30.4922L116.223 30.3984L116.13 30.9297L116.395 30.8359ZM112.395 30.7578V30.5859H112.223V30.7578H112.395ZM114.52 30.6641V30.4922H114.348V30.6641H114.52ZM116.052 30.4922V30.1484L116.13 29.8047H115.88L115.786 30.1484H115.536V30.3984L116.052 30.4922ZM116.895 30.1484V29.9766H116.723V30.1484H116.895ZM117.489 30.1484V29.9766H117.317V30.1484H117.489ZM118.255 29.7109L118.083 29.5391V29.7109H118.255ZM113.661 29.2891V29.1172H113.489V29.2891H113.661ZM114.692 29.1953L114.77 28.3359H114.255V28.6016H114.427V28.8516L114.348 29.1172L114.692 29.1953ZM118.348 29.1953V29.0234H118.177V29.1953H118.348ZM112.895 28.6797V28.4297L112.645 28.2578V27.9922L112.723 27.6484L112.223 27.5703V27.8203L112.473 28.5078L112.895 28.6797ZM114.348 28.2578V27.9922H114.083V28.2578H114.348ZM116.13 26.8828L115.88 26.7891V26.9609L116.13 26.8828ZM116.052 26.6172V26.4453L116.13 26.1016H115.708V26.3672L115.786 26.6172H116.052ZM115.614 26.1016V25.7578H115.364V26.0234L115.614 26.1016ZM111.708 25.4141V25.2422L111.364 25.1641V25.3359L111.708 25.4141ZM117.833 25.2422V25.0703L117.927 24.8203L117.755 24.5547L118.005 25.0703L117.833 25.2422ZM112.645 25.1641C112.697 24.7578 112.614 24.5286 112.395 24.4766V24.6484L112.645 25.1641ZM113.239 24.7266V24.3828H112.989V24.7266H113.239ZM113.833 24.3047V24.0391H113.583V24.2109L113.833 24.3047ZM114.692 23.9609V23.6953H114.52L114.427 23.9609H114.692ZM114.255 23.6172V23.3516H114.005V23.6172H114.255ZM114.692 23.3516V23.1016H114.255L114.177 23.3516H114.692ZM114.692 22.7578V22.4922H114.427V22.7578H114.692Z" fill="#1A1A1A"/>
<path d="M116.816 34.8678L116.177 36.2168L116.288 36.5515L116.467 36.6127C117.602 36.4504 118.632 36.0681 119.558 35.4657L120.042 34.3043L119.801 34.4061L119.007 34.3103L118.441 34.6319L118.168 34.5642L117.952 34.9304L117.492 34.7238L116.816 34.8678Z" fill="#1A1A1A"/>
<path d="M63.499 33.2578L63.2881 32.6602L64.0615 32.4844V32.0977L63.2881 31.8867V31.3242L62.5498 30.7266L63.2881 29.9531V29.5664L62.9014 29.1797H63.6748V28.6172L62.1631 28.2305L62.7256 25.5234L62.1631 25.1367C61.7881 23.9648 61.1553 22.8633 60.2646 21.832C59.6318 21.3164 58.9404 21.1172 58.1904 21.2344L57.417 22.8164L57.2412 23.3789C57.874 23.8945 58.0615 24.5391 57.8037 25.3125L57.2412 26.0859L57.8037 27.6328L57.5928 28.0195H56.6436V28.4062L57.2412 29.5664H56.6436L55.9053 29.3906L54.7803 29.7773L54.1826 29.5664L53.0576 29.9531V28.793L52.8818 28.2305L53.6201 28.0195C53.5029 27.2461 53.6904 26.6719 54.1826 26.2969L54.9561 26.0859V25.5234L53.4443 25.1367L53.2334 23.5898L52.6709 23.3789L52.4951 22.8164L52.8818 22.2188V23.2031L53.8311 23.5898V23.2031H54.3936V23.5898H54.7803L55.9053 23.2031V22.6055H54.1826V21.6211L54.3936 20.4609H54.0068L51.1592 22.2188L50.9834 21.6211H50.4209L50.0342 23.3789H48.9092L48.6982 24.1523L48.1357 24.75L47.5732 24.9258L47.3623 25.3125L46.624 25.5234L46.2373 25.9102V25.5234L46.4131 24.75H45.8506V25.5234H45.1123V25.1367L45.2881 24.5391H44.7256L44.1631 25.1367V24.3633L43.9521 23.3789C44.4678 22.8633 45.1006 22.5352 45.8506 22.3945L46.0615 21.2344L46.2373 20.6719H46.624V20.2852L48.6982 20.0742C48.4404 18.9258 48.7568 18.2812 49.6475 18.1406L50.9834 18.5273V18.1406L50.21 17.3672H50.7725V16.9805H51.3701L52.3193 17.3672V16.8047L52.1084 16.418C52.7412 16.5352 53.0576 16.3359 53.0576 15.8203L52.8818 15.0469L53.0576 14.4844H52.3193V14.0977L52.4951 13.1133L51.7217 12.7266L50.4209 12.9375C48.5225 12.5391 46.624 12.0234 44.7256 11.3906V11.0039L46.624 10.6172L46.7998 10.2305C47.6201 10.4414 48.4404 10.4414 49.2607 10.2305L50.0342 10.6172L50.7725 10.4062L51.3701 10.6172L52.6709 10.2305L53.2334 10.793L53.6201 9.45703L53.4443 8.08594L53.2334 7.3125L53.8311 5.37891L53.0576 4.60547V3.83203C53.9482 3.94922 54.71 3.82031 55.3428 3.44531L55.5186 4.00781L55.3428 4.60547C55.835 5.26172 56.4678 5.46094 57.2412 5.20312L57.5928 4.99219V5.37891L57.2412 6.36328L57.417 6.92578L56.292 7.3125V7.91016H57.0303V9.07031L57.5928 9.45703L57.417 9.84375H57.0303V10.4062L57.417 11.1797H57.8037L57.9795 10.793H58.3662C58.999 11.1914 59.7607 11.3203 60.6514 11.1797V11.7773L61.9521 11.0039L62.3389 11.7773L61.6006 11.9531V12.5508H62.1631L63.1123 11.9531L63.6748 10.2305H62.9014L62.3389 10.4062L63.1123 10.2305V9.84375L64.2373 9.63281L64.624 8.29688L63.6748 7.69922L64.4131 7.91016C64.9287 7.25391 65.6318 7.05469 66.5225 7.3125L67.8232 7.91016L69.3701 7.3125L68.7725 7.52344V8.08594L69.1592 9.07031L68.9834 9.63281L68.0342 10.0195L67.8232 11.7773L67.4717 11.0039L66.9092 9.63281H65.96V10.0195L64.7998 10.4062L64.2373 10.2305V10.793L64.4131 11.9531H65.5732V12.7266L66.1357 12.9375V13.3242H66.9092L67.2607 12.5508L68.0342 12.9375L68.4209 13.5C70.9287 13.3828 73.2022 13.6406 75.2412 14.2734L75.9795 13.8867C76.3545 12.4805 76.7998 11.1328 77.3154 9.84375L75.417 9.45703L74.6436 9.63281L74.292 9.07031H73.7295L72.9561 9.63281L72.1826 9.45703L71.4443 9.63281V9.07031H71.0576L70.1084 9.45703L69.9326 8.29688L70.1084 7.69922L71.2334 8.08594L72.1826 7.69922L72.3936 7.13672H72.7803L74.292 7.52344V7.13672L75.9795 7.91016L76.542 6.75L77.4912 6.53906L78.2647 7.13672L78.4404 7.69922L79.0029 7.91016L79.2139 7.3125H79.9522L80.1631 6.75H80.5498L81.2881 6.92578L82.0615 6.36328L82.2373 6.92578L81.6748 7.13672L81.2881 8.08594L81.499 9.45703C80.3506 10.8633 79.9639 12.5391 80.3389 14.4844L80.7256 18.1406L80.5498 18.5273L79.7764 18.3516V18.7383L79.9522 19.3008L80.7256 19.5117L80.9014 20.6719L80.5498 21.4453L81.2881 21.2344V22.2188C80.7959 22.7344 80.6084 23.3789 80.7256 24.1523L81.1123 24.75L80.9014 25.9102C81.5342 26.6836 81.9209 27.5859 82.0615 28.6172L81.1123 30.5508L80.9014 29.7773L81.1123 29.1797H80.3389L80.1631 30.3398L79.6006 30.5508V31.1133H78.6514V31.7109H77.8779C76.9873 31.1953 76.0381 30.9375 75.0303 30.9375L74.0811 31.3242C72.9561 30.293 71.7022 29.5781 70.3193 29.1797L70.1084 28.4062H69.7217L69.5459 29.0039L69.7217 29.9531H70.4951L70.8818 30.7266L69.3701 30.5508L68.9834 29.9531H68.21L67.6475 30.1641L66.9092 31.3242L67.085 31.8867C66.335 32.1445 65.5732 32.4023 64.7998 32.6602L64.624 33.0469L63.499 33.2578ZM66.5225 31.3242L65.749 30.9375V31.5L66.5225 31.3242ZM53.8311 29.3906L53.4443 29.0039V29.3906H53.8311ZM55.7295 28.793L55.9053 28.2305H55.1318V28.6172L55.7295 28.793ZM77.4912 28.2305V27.8438L76.542 27.457L77.1397 27.0703L77.3154 25.9102L76.3662 23.9766H75.417V22.9922L75.5928 22.2188H75.0303L74.6436 22.8164L72.7803 22.9922V23.3789C72.7803 22.7227 72.5225 22.3359 72.0068 22.2188L70.8818 22.6055L70.4951 22.3945L69.9326 21.2344L69.1592 21.0586V21.4453L69.5459 21.6211L68.9834 21.832L68.21 22.8164L68.0342 23.3789L67.4717 22.3945H66.9092L66.6982 23.9766L66.9092 24.5391L67.2607 24.9258C66.8857 25.1836 66.7686 25.5703 66.9092 26.0859L66.5225 26.6836L71.0576 27.2461L71.6201 27.0703L72.0068 27.8438L72.5693 28.0195L75.0303 27.6328C75.8037 28.0312 76.624 28.2305 77.4912 28.2305ZM69.9326 28.0195V27.6328H69.5459V28.0195H69.9326ZM57.5928 27.2461L57.0303 27.0703L56.8545 27.6328H57.5928V27.2461ZM54.5693 24.75V23.7656L54.3936 23.3789H54.0068V24.1523L53.8311 24.75H54.5693ZM47.749 23.2031L47.96 22.6055L47.1865 22.2188V22.9922L47.749 23.2031ZM50.0342 23.2031V21.0586H49.6475L49.2607 21.832L49.4717 22.3945H48.6982V22.9922L50.0342 23.2031ZM61.2139 22.0078L61.3896 21.0586H60.6514V21.832L61.2139 22.0078ZM73.7295 22.0078L72.9561 21.4453V21.832L73.7295 22.0078ZM51.9326 21.832V21.2344H51.3701V21.832H51.9326ZM72.5693 21.4453V20.8477H72.1826V21.4453H72.5693ZM52.3193 20.8477L52.4951 20.4609L52.8818 19.8984L54.0068 19.6875V19.125L53.2334 18.7383L52.4951 19.125V18.3516H51.7217V18.7383L51.9326 19.6875L51.7217 20.0742L50.7725 19.6875L50.5967 20.6719L50.21 21.2344L50.9834 21.4453L52.3193 20.8477ZM58.1904 20.8477V20.4609H57.8037V20.8477H58.1904ZM48.9092 20.6719L48.1357 20.2852V20.8477L48.9092 20.6719ZM64.0615 20.4609L63.1123 19.8984V20.4609H64.0615ZM70.4951 20.4609L69.9326 20.2852V20.6719L70.4951 20.4609ZM55.9053 20.4609V19.8984H55.1318V20.4609H55.9053ZM59.7021 20.4609V19.6875H59.1396V20.4609H59.7021ZM73.5186 20.4609L76.9287 20.0742V19.6875L76.3662 18.7383L76.542 16.9805L74.8545 17.1914L73.1318 16.418L72.1826 15.8203V16.8047C71.5498 16.0312 70.7998 15.7031 69.9326 15.8203L68.7725 17.1914L68.9834 17.5781L67.2607 16.8047L66.5225 17.5781H67.6475V17.9648H66.9092V18.5273L67.8232 18.9141L68.21 19.5117C69.9912 19.6289 71.7607 19.9453 73.5186 20.4609ZM50.21 19.8984L49.8232 19.5117V19.8984H50.21ZM57.9795 20.0742V19.6875L57.417 19.5117V19.8984L57.9795 20.0742ZM62.3389 19.8984V19.3008L62.1631 18.7383L62.5498 17.7539L61.9521 17.5781L61.7764 16.207L62.1631 16.0312L62.3389 16.5938H62.7256L63.2881 15.4336L62.5498 15.0469L61.7764 14.8711L62.9014 14.4844C62.7842 13.8281 62.9834 13.5 63.499 13.5L64.4131 13.7109L65.1865 12.9375C64.5537 12.4219 63.8623 12.1641 63.1123 12.1641V12.7266L61.9521 13.3242L61.7764 14.0977L61.0029 13.3242V12.5508L60.0537 13.5L59.4912 12.7266L58.9287 12.5508V13.3242H57.8037L57.417 15.8203L59.1396 17.5781V17.9648L62.3389 19.8984ZM63.8506 19.5117L63.2881 19.125V19.6875L63.8506 19.5117ZM49.8232 19.3008L49.6475 18.5273H49.085V19.5117L49.8232 19.6875V19.3008ZM66.3115 19.5117V18.9141L66.5225 18.1406H66.1357L65.749 19.5117H66.3115ZM54.5693 17.9648L54.0068 17.3672L53.8311 18.1406L54.5693 17.9648ZM64.7998 17.1914V16.8047L64.2373 16.5938V16.9805L64.7998 17.1914ZM69.1592 16.0312V15.4336H68.5967V16.0312H69.1592ZM57.0303 13.8867L56.0811 13.3242V13.7109L57.0303 13.8867ZM66.3115 11.7773L66.1357 11.1797H66.5225L66.3115 11.7773ZM80.1631 11.7773V11.1797H79.6006V11.7773H80.1631ZM66.3115 9.63281V8.85938L65.1865 9.84375L65.96 10.0195L66.3115 9.63281ZM72.0068 9.07031L71.6201 8.68359V9.07031H72.0068ZM73.3428 8.85938V8.47266L72.9561 7.69922H72.3936V8.29688L73.3428 8.85938ZM77.1397 7.52344L77.3154 6.92578H76.9287L76.542 7.69922L77.1397 7.52344ZM57.2412 6.92578V6.36328H56.6436V6.92578H57.2412Z" fill="#1A1A1A"/>
<path d="M4.18359 30.7969V30.4102L4.74609 27.3164L4.35938 26.3672L2.10938 25.207L1.89844 24.6094L4.74609 23.0977L5.51953 23.4844L6.08203 21.5508H5.13281V20.3906L5.51953 19.6172C5.63672 18.2109 5.32031 16.9922 4.57031 15.9609C2.92969 16.1016 1.47656 15.7852 0.210938 15.0117L0 14.2383L0.5625 12.8672H3.97266L4.74609 13.0781L5.30859 11.5312L4.92188 8.64844L6.43359 7.48828C7.32422 9.29297 7.76953 11.2852 7.76953 13.4648L8.33203 13.6406L9.66797 13.0781L9.84375 13.8516H10.2305L10.6172 13.0781L11.3906 12.8672L11.0039 11.7422L11.1797 11.1445H10.0547C10.5 9.50391 10.6875 7.83984 10.6172 6.15234H11.5664L11.9531 4.99219L12.6914 6.53906H12.1289V7.10156L13.2539 7.3125V8.08594L13.8516 8.26172V8.82422L13.2539 9.21094V9.80859L14.0273 14.2383H14.4141L15.1523 13.8516L15.5391 14.625L15.3633 15.5742L15.9258 16.9102L15.75 17.2969H15.3633L14.8008 17.1211C13.6523 17.7539 13.207 18.7148 13.4648 20.0039L13.6406 21.9375H15.75V22.7109L14.4141 23.0977L14.0273 24.8203L14.2031 25.7695L13.8516 26.7539L14.0273 27.5273L13.8516 28.3008L14.0273 28.8633L13.6406 29.0391V29.6367L14.0273 30.4102L13.0781 30.7969L11.3906 30.4102L10.4414 30.5859L10.0547 30.4102V29.8125C10.5469 28.9219 10.7344 27.9609 10.6172 26.9297L10.2305 26.1562H7.76953C7.39453 27.5859 6.94922 29.0039 6.43359 30.4102L5.30859 30.5859L4.74609 30.4102L4.18359 30.7969ZM9.49219 23.0977C10.125 22.8398 10.7578 22.582 11.3906 22.3242L11.5664 21.5508L11.0039 20.3906L10.4414 19.4414L10.6172 17.2969H8.33203C8.16797 18.9844 7.98047 20.6602 7.76953 22.3242L9.49219 23.0977ZM15.1523 16.5586V16.1719L14.8008 16.5586H15.1523ZM10.0547 15.3984V14.8008H9.49219V15.3984H10.0547ZM5.13281 13.6406L4.74609 13.2539L4.57031 13.8516L5.13281 13.6406ZM12.3398 11.1445L11.7422 10.9688V11.3555L12.3398 11.1445ZM13.8516 6.15234L13.6406 5.37891L14.5898 5.16797V6.15234H13.8516Z" fill="#1A1A1A"/>
</svg>
