<svg width="205" height="40" viewBox="0 0 205 40" fill="none" xmlns="http://www.w3.org/2000/svg">
<path d="M177.961 38.4739V37.8705H178.348V38.4739H177.961ZM174.867 37.693L174.305 37.4801L174.094 36.3443L174.867 35.741L175.254 35.1731V34.5697L173.918 34.1793V33.221L174.691 32.0497H174.305L174.094 30.3106L174.691 30.0977V29.5298H174.305V28.9264L174.48 27.9681L174.094 27.1873L174.691 26.4064H174.305L175.078 26.016V24.2769H174.691L173.707 21.544H172.547V22.1473L171.598 21.9344L171.035 22.1473L170.648 21.1536L169.875 20.9761C169.617 20.0769 169.16 19.237 168.504 18.4561L168.89 17.8528C170.32 17.2139 171.668 16.575 172.933 15.9362V15.1553L172.371 14.9424L171.598 15.1553L170.437 14.552L169.875 14.7649C168.844 14.5046 168.328 13.8539 168.328 12.8128C167.953 12.174 167.824 11.4641 167.941 10.6833L168.504 9.90244L170.648 8.73119L170.824 8.34077L173.32 7.55994L173.531 6.99206L174.691 6.38869L174.867 5.99827L176.203 5.82081V4.82702C177.375 4.33013 178.535 3.75042 179.683 3.08789L180.07 4.25914L178.734 6.21123C176.672 7.8912 174.551 9.44104 172.371 10.8607L172.16 11.4641L175.254 12.032L176.027 11.8545L176.59 12.8128H177.961V12.032C178.734 11.2512 179.625 10.9317 180.633 11.0737L181.019 11.2512V11.6416L182.18 12.2449V12.8128C180.89 13.8539 179.672 14.9542 178.523 16.1136V15.7232H178.137L177.961 17.6753L178.348 18.4561L179.121 18.6336L181.23 16.717L181.406 15.5457H182.18L182.39 16.1136H182.953L183.551 15.9362L183.726 16.8945H184.5V17.8528H184.887L185.062 17.4623H185.449C185.449 18.2432 185.648 18.8939 186.047 19.4144H186.433V19.8048L185.836 21.9344L186.433 22.1473V21.7569H186.996V22.1473H186.609V23.1056L186.047 22.9282L184.676 23.8865L184.5 22.7152L184.676 21.9344L183.726 21.7569L183.34 22.5378L182.777 22.7152V22.3248L183.164 21.7569L182.004 21.3665L181.793 20.5857L181.019 20.4082V19.8048L181.406 18.8465H180.844V19.237H179.894V19.6274L180.07 20.1953H179.683L179.508 24.8448C180.14 25.3653 180.844 25.6966 181.617 25.8386L181.793 26.4064H182.777L182.953 27.0098L183.726 27.7906L182.953 28.7489H183.937L184.887 28.3585L186.609 29.7072H185.836L184.676 29.3168L184.5 29.9202H182.953L179.894 28.7489V30.4881H179.508V31.0914H180.07C179.859 32.3928 179.918 33.6824 180.246 34.9601L179.894 35.741L180.246 36.9122L179.894 37.4801C178.98 37.1015 178.078 36.9714 177.187 37.0897C176.531 37.4919 175.758 37.693 174.867 37.693ZM190.652 36.1314L187.945 35.3505V34.1793L188.332 32.2627L187.945 31.4819C188.601 28.7608 189.187 26.0397 189.703 23.3186L193.148 23.1056L193.746 23.3186L195.855 23.1056L196.418 23.3186L197.578 22.7152L198.562 22.9282L199.898 22.5378L200.461 22.9282L201.445 22.5378L202.781 23.3186L203.941 27.5777L203.555 28.3585L203.941 29.1394C203.941 30.701 203.625 32.1917 202.992 33.6114L202.394 33.7889C201.879 34.3094 201.105 34.5697 200.074 34.5697L197.965 33.7889L197.015 34.7827H195.855L195.082 33.7889L194.308 34.0018C194.449 34.6407 194.262 34.9601 193.746 34.9601L192.586 34.7827V35.5635L190.652 36.1314ZM167.941 34.5697V26.4064L168.89 27.1873V27.9681H169.664V27.4002H170.262L170.648 28.5715L170.437 28.9264H169.277V32.4402L167.941 34.5697ZM179.508 34.5697V34.1793H179.121V34.5697H179.508ZM178.348 33.7889V33.3984L177.574 33.008V33.3984L178.348 33.7889ZM196.418 33.6114V33.008H195.855V33.6114H196.418ZM197.965 32.4402L198.176 31.8723H197.789L197.402 32.6531L197.965 32.4402ZM199.898 31.8723V29.9202L199.723 28.9264L200.074 27.4002L199.512 26.229L198.738 26.016V25.2352L197.015 25.0577L196.031 25.6256L194.695 24.6673L193.922 24.8448V25.4481H194.695V26.229L194.308 27.4002L194.695 28.5715L194.133 29.5298L193.535 29.3168L193.148 30.0977H193.535L192.973 30.4881V31.0914L195.469 31.4819L196.031 31.6593L197.015 31.2689L199.898 31.8723ZM202.008 31.6593L202.219 31.0914H201.832L201.445 31.8723L202.008 31.6593ZM185.062 29.1394L184.113 28.7489L183.937 29.5298L184.5 29.7072L185.062 29.1394ZM192.586 29.1394L191.637 28.7489V29.3168L192.586 29.1394ZM192.973 26.016L193.148 25.2352L192.375 26.016H192.973ZM199.723 25.8386L199.125 25.2352V25.6256L199.723 25.8386ZM200.285 24.0994L200.461 23.1056H199.898V23.4961L198.738 23.4961V23.8865L200.285 24.0994ZM201.058 20.4082L200.074 19.6274V18.8465H199.512L198.738 19.237C197.683 17.2257 197.496 15.1435 198.176 12.9903H198.562L198.738 10.4703C198.223 9.83146 197.578 9.57118 196.805 9.68949L196.629 10.8607L196.031 11.0737L195.855 10.0799H195.082C194.449 10.0799 193.933 10.3402 193.535 10.8607V11.4641L192.973 11.8545V12.6354L192.375 12.8128V14.9424L192.762 15.9362L191.988 17.0719V17.4623L192.199 18.6336L190.863 18.8465L189.703 18.4561L189.105 18.8465L188.719 18.0657H187.594V15.9362L187.945 14.9424H188.543V14.3745H188.156V13.2032C188.672 13.0613 188.859 12.6709 188.719 12.032L189.105 11.0737L187.769 9.68949L187.207 9.12161H188.543V8.73119C187.769 8.09233 186.867 7.83205 185.836 7.95036L185.66 6.60164C188.473 5.93912 191.297 5.41856 194.133 5.03998V5.43039H194.695L200.848 4.64956L201.621 5.21744C202.535 6.25855 202.992 7.4298 202.992 8.73119C203.625 8.99147 203.883 9.51203 203.765 10.2929L204.89 11.0737V11.4641L204.328 15.9362C203.437 15.6759 202.863 15.8652 202.605 16.504L203.765 16.8945V17.2849L203.168 18.0657L203.379 18.4561L203.168 19.4144L201.832 19.024L201.234 19.237V19.6274L201.621 20.4082H201.058ZM183.551 19.237L183.937 18.2432H182.777V18.8465L183.551 19.237ZM181.406 18.0657V17.6753H181.019V18.0657H181.406ZM191.426 17.8528L191.637 17.2849H191.039V17.8528H191.426ZM182.004 17.6753V16.8945H181.617L181.23 17.6753H182.004ZM183.34 17.4623L182.777 16.8945L182.566 17.4623H183.34ZM183.34 16.504V16.1136H182.953V16.504H183.34ZM179.894 14.3745V13.5937H178.91V14.3745H179.894ZM192.762 12.6354V12.2449L192.199 12.032V12.4224L192.762 12.6354ZM170.648 10.2929V9.68949H170.051V10.2929H170.648ZM196.242 9.90244V9.51203L195.469 8.90865L195.293 9.51203L196.242 9.90244ZM198.738 9.29907L198.351 8.90865L198.176 9.51203L198.738 9.29907ZM192.762 9.12161L192.973 8.55373L191.426 8.34077V9.12161L192.199 9.51203L192.762 9.12161ZM189.105 8.55373V7.55994L188.543 8.55373H189.105ZM198.562 8.34077L198.949 7.55994H198.176V8.34077H198.562ZM190.652 8.16331L190.265 7.77289V8.16331H190.652ZM196.418 7.77289V7.16952L195.855 6.99206V7.55994L196.418 7.77289ZM202.394 7.77289V7.16952H201.832V7.77289H202.394ZM197.402 5.60786L197.015 5.21744L196.805 5.82081L197.402 5.60786Z" fill="#483D3F"/>
<path d="M149.252 36.3444L148.865 36.1314L148.479 35.5636L146.967 35.1731L146.756 35.5636H146.369V34.5698H146.967V34.0019L146.58 32.8306C147.213 32.9489 147.588 32.7597 147.705 32.2628L146.967 31.6594V29.9203H147.916V29.3169L147.354 28.749L148.654 24.6674L147.705 24.8448L148.654 24.277V23.8865L148.092 23.4961V23.1057L148.865 22.5378L148.479 22.3249V21.544H149.428L149.639 20.5857H149.252L148.303 20.9762V20.5857L148.654 19.237L149.252 19.4145L149.814 18.4562L148.654 17.6754V16.7171L151.15 15.5458L151.326 14.9424L149.99 14.1616L149.639 12.6354H149.041L148.303 10.08H146.967L146.756 9.29914H146.369L141.061 16.7171H140.674L139.162 19.0241L138.002 19.8049L137.615 20.9762L136.877 21.1536C136.408 22.7153 135.518 23.9457 134.205 24.8448L133.818 25.8386L133.256 26.229L131.92 28.9265L130.971 29.1394C130.197 28.6189 129.811 27.909 129.811 27.0099L130.584 25.8386L131.322 25.2353V24.8448H131.709V24.0995L132.307 23.4961L133.818 22.5378V21.544H134.381C134.264 20.9052 134.521 20.5266 135.154 20.4083L136.104 18.8466L139.9 14.765L140.85 14.3746L141.447 13.2033C142.713 11.6416 143.979 10.0208 145.244 8.34085L145.807 8.16338L146.369 5.60793C147.4 5.34765 148.291 4.96906 149.041 4.47217L149.252 5.04005C148.736 5.5606 148.537 6.2113 148.654 6.99213L149.041 7.95043L149.639 7.95043L150.377 9.29914L150.975 10.2929C151.725 11.1921 152.357 12.1622 152.873 13.2033L155.158 15.7233V16.5041H155.545L157.232 18.4562V18.8466H157.619L158.568 20.5857L159.518 20.9762L160.115 22.3249L161.24 23.3187L161.416 24.4899L162.014 24.4899V25.0578L160.854 26.229H161.24L160.854 26.4065L159.904 26.0161V25.6257H159.131V26.229H158.393C157.877 25.0696 157.49 23.8392 157.232 22.5378H156.283L155.896 21.544H155.334L154.771 19.8049L153.998 19.6274L153.049 17.8528L152.486 17.6754L152.1 21.757H151.326V22.1474L151.924 22.3249V23.4961L151.537 24.277L151.15 24.4899L151.537 24.8448V25.8386C151.162 27.4003 150.904 29.0211 150.764 30.7011C150.646 32.3811 150.459 34.0019 150.201 35.5636H149.814L149.252 35.3506V36.3444ZM141.799 32.4402V32.0498H142.186V32.4402H141.799ZM142.396 31.6594V30.7011H140.498V30.0977L140.674 29.3169L140.498 28.3586L140.674 27.0099L140.498 26.4065H141.236V25.0578H140.85L140.498 24.4899H140.111V23.4961L140.498 22.7153H140.111V22.3249L140.85 21.9345L141.061 21.1536L140.287 20.1953L141.623 20.0179L142.572 20.1953L142.783 21.1536H142.186V21.757L142.783 22.9282H142.186L141.623 22.7153L141.236 23.4961V23.8865L142.783 24.277L143.135 23.7091L143.346 24.0995L142.959 25.4482C143.592 26.7496 143.908 28.2403 143.908 29.9203L143.732 31.0915L142.396 31.6594ZM148.479 31.4819V31.0915L147.916 30.3107H147.354L147.143 30.8786L148.479 31.4819ZM141.447 28.9265V28.3586H140.85V28.749L141.447 28.9265ZM143.346 28.1811L142.572 27.4003L142.396 27.9682L143.346 28.1811ZM142.01 24.8448V24.277H141.447V24.8448H142.01ZM141.061 24.0995V23.4961H140.674L140.498 24.0995H141.061ZM149.814 22.3249V21.757H149.252V22.3249H149.814ZM150.201 20.7987L150.377 19.8049L149.814 19.6274V20.7987H150.201ZM149.428 20.1953L148.654 19.6274V20.1953H149.428ZM151.537 20.1953V19.8049H151.15V20.1953H151.537ZM149.639 17.2849L148.865 16.8945V17.4624L149.639 17.2849ZM150.377 13.3808L150.588 12.8129L149.99 13.3808H150.377Z" fill="#483D3F"/>
<path d="M94.0713 39.9999L93.8955 38.8287L94.0713 37.267H93.5088V35.7053L94.2822 34.1437L93.333 33.7532V32.9724L93.7197 31.2333L94.2822 30.4524L93.7197 30.2395L93.5088 28.5003L93.7197 27.7195L92.5596 27.1161C92.0674 27.7787 91.4346 27.9798 90.6611 27.7195V28.5003L89.7119 28.6778L89.5361 29.4586L88.4111 29.6716L87.8135 29.4586C88.0713 30.3814 87.8252 30.973 87.0752 31.2333L86.6885 30.4524L86.3018 29.6716L87.6377 28.2874V27.7195L88.7627 27.5066L88.9736 26.7257L90.6611 25.7674C91.2939 24.7263 92.1143 23.8745 93.1221 23.212L94.0713 22.8216L94.2822 21.6503L94.6338 21.2599L94.458 19.6982L94.6338 17.9236L93.8955 17.5332L93.7197 18.1365H92.7705L91.6104 17.9236C91.6104 18.5861 91.2939 18.9174 90.6611 18.9174C89.6533 18.2549 88.5869 17.8644 87.4619 17.7461L86.8994 16.1845C89.0322 15.2617 91.2354 14.4098 93.5088 13.629L94.0713 13.842V13.2386L95.0205 12.6707L95.2314 10.1153L95.0205 9.33442L95.7939 8.944L95.9697 7.59529L95.4072 7.38233L95.2314 8.16317H94.2822L93.5088 7.77275L92.9463 7.98571V8.76654L91.9971 9.15696L91.6104 9.93779H91.0479L90.4854 9.72484V10.1153L90.6611 10.5057L88.5869 10.1153L88.4111 8.944L88.9736 8.16317L90.0986 7.77275L90.3096 6.81446L92.1729 6.03362V5.6432H93.333V5.25279C94.3408 4.59026 95.4775 4.259 96.7432 4.259V3.65563L96.1807 3.65563C97.3057 3.53732 98.4424 3.34802 99.5908 3.08775L102.052 5.43025C101.044 5.43025 100.024 5.63137 98.9932 6.03362V6.42404L97.3057 6.99192L97.1299 8.55359H96.7432V9.33442H97.4814L97.6924 11.109L97.4814 11.8899H98.0439C98.5596 11.4876 99.1338 11.3575 99.7666 11.4995V11.109H100.329L99.5908 11.2865V11.6769L101.278 12.2803L101.454 14.4098H101.841V14.8003L100.54 15.794L99.7666 15.4036L99.5908 16.1845H98.8174L98.2549 18.314C98.8877 19.0948 99.708 19.4261 100.716 19.3078L101.278 20.0886C102.802 21.1297 104.384 21.9697 106.024 22.6086L106.411 23.9928C105.521 24.3951 104.571 24.6553 103.563 24.7736V25.1641C101.548 25.1167 99.8369 24.4069 98.4307 23.0345V22.4311H98.0439L97.8682 26.3353L98.0439 26.9387H97.4814V27.5066L97.6924 29.0682H97.3057V30.4524L97.6924 32.0141L97.3057 33.5758C97.6807 34.7352 97.8096 35.9656 97.6924 37.267L98.2549 37.8704L96.9189 38.8287L96.7432 39.2191C95.7354 39.1008 94.8447 39.361 94.0713 39.9999ZM102.403 35.7053V35.3149L102.614 34.747L102.403 34.1437L103.95 33.7532L104.126 32.9724C105.017 32.8541 105.896 32.6648 106.763 32.4045L107.536 32.582C109.294 32.3217 110.935 31.8011 112.458 31.0203V30.4524L112.282 29.2812L112.634 28.2874L111.896 28.1099L111.72 27.7195L111.896 26.7257C111.38 26.2052 110.688 26.0159 109.821 26.1578C109.821 26.6784 109.505 26.9387 108.872 26.9387L107.36 26.5483C106.845 26.9268 106.212 27.057 105.462 26.9387L104.302 26.7257L104.899 26.5483V26.1578L106.024 25.5545H106.587V25.9449H107.149L107.36 25.377L109.821 24.7736L110.384 25.1641L111.509 24.2058L111.72 22.8216H111.333V22.0407L111.509 21.4373L111.122 20.2661L110.56 19.8757H109.997V20.2661L106.763 20.8695L106.024 19.8757L106.411 19.3078C108.919 18.2667 111.497 17.5213 114.146 17.0718C116.817 16.5985 119.478 16.1726 122.126 15.794L122.899 16.9653L121.353 17.1428L121.177 17.7461L118.892 18.9174L117.942 18.7044L116.642 19.3078V19.6982L116.817 20.6565L116.642 21.4373L116.993 21.8278L115.692 22.0407L115.13 21.8278V22.4311C116.63 22.8334 118.142 23.0937 119.665 23.212L120.052 24.5962L119.454 25.377L120.052 25.9449L118.716 26.3353L118.153 28.6778L117.204 29.4586L118.716 29.8491L118.892 30.4524C119.782 30.4524 120.485 30.7719 121.001 31.4107V30.4524H121.563L123.075 31.2333V30.6299L122.899 30.062L124.2 30.8429V31.2333H124.763H123.251V31.8011L124.024 32.582L122.899 32.4045V33.1854L123.813 33.7532C120.415 34.2738 117.005 34.3448 113.583 33.9662V34.3566C112.833 34.3566 112.142 34.4867 111.509 34.747L110.771 34.1437V34.9245H110.384L109.224 34.5341L108.485 34.747L107.149 33.5758L106.974 34.9245H105.075C104.067 34.9245 103.177 35.1848 102.403 35.7053ZM105.075 34.3566V33.9662H104.688V34.3566H105.075ZM114.532 32.1916L114.181 31.8011V32.1916H114.532ZM117.767 32.0141V31.6237L117.204 31.4107L116.993 32.0141H117.767ZM116.255 31.8011V31.2333H115.692V31.8011H116.255ZM116.817 28.5003L117.591 28.1099L118.153 28.2874V27.5066L117.204 27.3291V27.7195H116.642L116.431 28.5003H116.817ZM112.634 27.897V27.3291H112.071V27.897H112.634ZM94.458 27.5066L93.8955 26.9387V27.7195L94.458 27.5066ZM121.353 24.7736L121.563 24.3832L121.739 24.7736H121.353ZM112.458 24.5962L111.72 24.2058V24.7736L112.458 24.5962ZM101.665 23.4249L101.103 23.212V23.6024L101.665 23.4249ZM112.634 23.212V22.8216L112.282 23.212H112.634ZM117.38 18.9174L117.591 18.314H116.993V18.9174H117.38ZM100.716 15.0132L100.153 14.8003V15.1907L100.716 15.0132ZM107.36 14.8003L107.149 14.0194H106.763L106.2 14.2324L104.899 13.842C105.509 13.842 105.813 13.5817 105.813 13.0611L105.251 12.2803L104.688 11.109L105.075 10.3282L104.302 9.93779V9.54737H104.688V7.38233L105.462 7.20487L105.638 6.6015C108.169 5.56039 110.7 4.57843 113.231 3.65563L113.407 4.259H113.794L114.181 3.47816L114.919 3.26521L117.204 3.47816C118.329 2.81564 119.595 2.48438 121.001 2.48438L121.177 3.26521H121.563L121.95 3.08775V3.47816L121.563 4.86237L121.001 5.03983V5.43025L121.353 6.81446L121.001 8.16317L120.052 9.15696V9.72484L121.001 10.3282V10.7186L120.052 11.109L119.665 11.8899L118.716 12.0673L118.54 12.4578C116.876 12.9783 115.106 13.3096 113.231 13.4515L112.071 13.2386L111.509 13.4515V14.0194H110.946L109.61 13.4515V14.2324L107.923 14.4098V14.8003H107.36ZM106.2 12.6707L105.813 12.2803V12.6707H106.2ZM114.919 11.2865L115.306 10.3282H115.692C116.185 9.02682 116.56 7.65444 116.817 6.21108C116.067 5.69053 115.247 5.50123 114.356 5.6432L113.794 5.82067L112.845 5.6432L112.458 6.42404H110.946L110.384 6.21108L109.821 7.20487H109.224V7.59529L107.923 8.16317L107.712 8.944H108.099L108.872 8.76654L109.224 9.33442L109.048 10.1153L110.173 10.1153V10.5057L109.435 10.8961L109.224 11.4995L112.458 11.6769L114.919 11.2865ZM107.923 10.5057L108.099 9.93779H107.536V10.5057H107.923ZM119.454 9.54737L118.892 8.944V9.33442L119.454 9.54737ZM107.149 8.76654L107.36 8.16317H106.411V8.55359L107.149 8.76654ZM117.204 5.6432V5.03983H116.642V5.6432H117.204ZM120.403 4.259L120.614 3.65563H120.228L120.052 4.259H120.403Z" fill="#483D3F"/>
<path d="M64.5537 35.5634L63.9912 35.3505V34.5697H63.3936L63.2178 32.8305H62.6201V32.4401L62.7959 31.8722H62.4092L62.6201 31.0914H63.6045L63.7803 29.1393L64.167 30.0976L64.7647 30.3106L64.3779 31.2689L65.5381 31.6593V30.8784H66.5225L67.6826 31.4818V30.8784L66.1357 30.0976V29.7072L68.2451 28.7489L68.6318 27.9681H69.2295L69.8272 28.181V27.7906L69.4404 27.5776V27.1872H68.8428H69.4404L69.8272 27.4002V27.7906H70.3897V27.4002H70.7764L71.7607 27.5776L71.9717 26.6193H72.7451L72.9209 28.3585H71.7607L71.1631 27.9681L70.6006 28.9264L70.2139 28.5714L69.6162 30.701L68.8428 31.4818H68.4561L67.8584 32.8305L66.3115 33.3984L65.9248 34.3922L64.5537 34.7826V35.173V35.5634ZM70.6006 34.7826L70.3897 34.0018L70.9873 34.7826H70.6006ZM73.3076 34.3922L73.6943 34.0018V34.3922H73.3076ZM71.374 34.1792L71.1631 33.6114L71.9717 33.2209V32.6531L70.9873 31.4818L71.585 30.8784L71.1631 30.488H71.585V29.3168L72.5342 29.9201L73.6943 29.3168V29.7072L72.5342 30.0976L72.3584 30.701H71.7607V31.2689L72.5342 33.6114L72.3584 34.0018L71.374 34.1792ZM73.6943 33.6114V32.8305H74.0811L73.6943 33.6114ZM51.8975 33.008L51.7217 32.4401H51.335L50.7373 32.6531L50.5615 32.0497C49.9053 32.1917 49.4482 32.0024 49.1904 31.4818L48.9795 30.3106L49.1904 29.7072L48.9795 29.1393L49.1904 28.181C48.9326 26.4774 48.6045 24.7856 48.2061 23.1056L48.9795 22.5377C48.8623 21.8752 49.0615 21.4138 49.5771 21.1535H50.1748C50.6904 21.5558 50.9482 22.0763 50.9482 22.7152L52.7061 23.1056V22.1473L51.8975 21.5439V20.7986L52.7061 20.5856L54.2529 21.1535V21.7569H54.6396C55.5537 21.4966 56.3975 21.2363 57.1709 20.976V20.5856H57.5576L58.542 21.3665V20.976H58.9287V22.5377H59.4912L58.7178 24.4898L59.1045 24.6673V25.4481L59.7021 25.8385L59.3154 26.4064H58.9287L58.3311 26.2289V27.0098L58.542 27.5776H59.1045L59.4912 27.4002C59.8896 28.181 60.0889 28.95 60.0889 29.7072L58.7178 29.9201L58.3311 31.2689L57.3467 31.4818L56.3975 31.0914L56.0107 31.8722L56.5732 32.4401L54.8506 32.6531L52.7061 32.4401L51.8975 33.008ZM65.5381 32.6531L65.7139 32.0497L64.3779 31.8722L64.167 32.8305L65.5381 32.6531ZM72.7451 32.2626V31.6593H73.5186L73.6943 32.0497L72.7451 32.2626ZM80.9014 30.488L79.3545 29.9201L79.1436 29.3168L74.5029 25.6256H73.1318V26.2289V25.8385H71.7607L71.374 26.4064L70.2139 26.7968V26.4064H70.6006V26.016L70.2139 25.4481L70.9873 25.6256V25.0577L70.3897 24.8447L70.0029 23.3185L68.6318 22.9281L67.085 23.1056L66.6982 21.3665H66.1357L65.7139 22.7152L64.9404 23.1056L64.3779 22.1473C63.6045 22.1473 62.8896 21.887 62.2334 21.3665V20.7986H62.6201V19.6273L62.4092 19.2369H62.7959L63.0068 20.0177H63.3936L64.9404 19.8048L65.5381 20.0177V19.2369L67.8584 19.024L68.0693 19.8048H68.6318L69.0537 19.6273L69.2295 20.0177H69.6162L69.8272 18.8465L70.0029 19.2369H70.6006L70.9873 18.4561H70.3897V18.0657L70.7764 16.7169L69.8272 16.504C69.9443 15.7232 69.6865 15.2736 69.0537 15.1553L68.6318 15.3327L68.0693 14.3744H67.6826L66.9092 14.7649V15.1553L67.2959 15.3327V15.7232H66.6982L65.5381 15.1553L65.1514 13.984L65.3272 12.9902H65.7139L65.9248 13.7711H66.6982V13.2032L69.0537 12.8128L69.2295 12.2449H70.0029L70.7764 12.4224L70.9873 11.6415L70.7764 10.4703H70.2139L69.6162 10.6832V9.68944H70.0029V8.90861L69.2295 8.55368V8.16327H68.0693L67.8584 8.73114L67.085 8.90861L66.6982 9.9024L65.9248 10.0799L65.7139 11.0736L65.9248 11.6415L65.5381 12.4224H64.7647L64.5537 12.9902L63.3936 12.9902L63.0068 12.2449C63.0068 10.7542 63.0068 9.26353 63.0068 7.77285L62.6201 5.82076L63.2178 1.91659L64.3779 1.52618L64.5537 0.958296L66.1357 0.745342V1.13576L67.6826 1.52618L67.8584 0.177462C68.9365 -0.106477 69.9795 -0.0354925 70.9873 0.390417V0C71.9014 0.0709849 72.8037 0.260278 73.6943 0.567879L73.9053 0L78.5811 0L78.7568 0.567879L78.5811 0.958296H78.1943V1.34871C78.71 3.02869 78.8975 4.90979 78.7568 6.99201L78.1943 8.90861L78.7568 11.0736C78.124 11.4522 77.8662 11.9728 77.9834 12.6353H78.7568V13.2032L77.8076 13.984V14.7649L77.9834 15.1553L75.8389 15.5457L75.6631 14.9423H75.0654L74.6787 15.5457L73.6943 16.8944L72.7451 16.504V17.8527L73.5186 18.8465L74.0811 19.024L74.6787 18.8465V18.2431L76.0498 18.8465L77.0342 18.4561V19.2369H77.5967L77.8076 18.0657L78.3701 17.8527L79.3545 18.8465H78.5811V19.6273L79.3545 19.8048V20.1952L77.5967 20.976V21.5439H78.1943V21.9343L77.5967 22.1473L76.6123 21.5439L76.0498 20.976C76.0498 21.6149 75.8506 22.1946 75.4522 22.7152H74.292V23.3185L74.5029 23.8864H74.8897L75.4522 23.709C77.0225 25.247 78.71 26.6075 80.5147 27.7906L81.1123 27.9681L82.2725 28.9264L82.6592 30.0976C82.1436 30.4999 81.5576 30.63 80.9014 30.488ZM50.7373 29.9201L50.1748 29.7072V30.0976L50.7373 29.9201ZM56.3975 29.7072V29.1393H55.7998V29.7072H56.3975ZM65.3272 29.5297L64.9404 28.5714L65.7139 29.3168L65.3272 29.5297ZM53.8662 29.3168L54.8506 28.9264L56.0107 29.1393L56.7842 28.7489C56.7139 27.3765 56.8428 26.016 57.1709 24.6673L56.7842 24.4898V23.709L57.3467 23.496V23.1056L56.0107 22.9281L55.624 23.709H55.2373V23.3185L55.7998 23.1056V22.3248L54.8506 22.1473L53.2686 22.9281L53.0928 23.496L52.3193 23.8864L52.1084 24.2768L51.8975 24.8447L52.4951 27.7906L53.0928 28.9264L53.8662 29.3168ZM66.3115 28.9264L66.1357 28.3585L66.9092 27.9681L67.2959 27.1872H67.8584L67.6826 28.5714L66.3115 28.9264ZM52.1084 27.9681V27.4002H51.5107V27.9681H52.1084ZM58.1553 27.1872V26.6193H57.5576V27.1872H58.1553ZM49.7881 26.4064V25.8385H49.1904V26.4064H49.7881ZM71.9717 25.6256V24.8447H71.585L71.374 25.4481L71.9717 25.6256ZM51.5107 25.2351L51.124 24.8447V25.2351H51.5107ZM57.3467 22.7152V21.3665H56.3975V21.7569L56.7842 22.7152H57.3467ZM68.0693 22.7152V22.1473L67.085 21.9343V22.3248L68.0693 22.7152ZM69.0537 22.5377V22.1473L69.2295 21.5439L68.6318 21.3665L68.2451 22.5377H69.0537ZM53.0928 21.9343V21.5439L52.4951 21.3665V21.9343H53.0928ZM78.7568 21.7569V21.3665H79.1436V21.7569H78.7568ZM63.7803 20.5856L63.2178 20.4082V20.7986L63.7803 20.5856ZM76.2256 20.4082V20.0177L76.4365 19.2369L75.8389 19.024L75.4522 19.8048L75.6631 20.4082H76.2256ZM74.6787 20.0177L74.8897 19.4144H74.5029L74.0811 20.1952L74.6787 20.0177ZM73.9053 19.8048V19.2369H73.5186V19.8048H73.9053ZM72.7451 19.6273V18.4561H72.1475L71.585 18.6335V19.2369L72.7451 19.6273ZM48.5928 18.8465V18.0657L48.2061 16.8944L51.8975 16.1136L52.4951 16.504L52.7061 15.5457H53.0928V15.9361H53.6553V15.5457H54.042L54.6396 15.7232L55.624 15.3327L56.1865 15.5457L56.7842 15.3327L58.1553 16.7169L57.7686 16.8944L57.5576 17.8527H56.96C56.4443 17.4741 55.8701 17.344 55.2373 17.4623V17.8527L53.4795 18.2431L49.4014 17.8527V18.2431L48.5928 18.8465ZM76.6123 14.3744L76.0498 14.1615V14.5519L76.6123 14.3744ZM75.0654 14.1615L74.292 13.3807V13.7711L75.0654 14.1615ZM77.21 13.984V13.5936H76.8232V13.984H77.21ZM69.0537 13.5936V13.2032H68.6318V13.5936H69.0537ZM72.9209 12.6353L75.8389 11.6415C75.9092 10.1035 75.9795 8.55368 76.0498 6.99201H75.6631L74.8897 7.16948L73.6943 6.77906V7.16948L73.9053 7.77285L70.9873 9.12156V9.68944L72.1475 10.6832L72.3584 9.68944L73.3076 9.51198L73.6943 9.68944L73.9053 10.6832L73.6943 11.0736V10.0799H73.3076L72.3584 10.4703V10.8607H71.7607L71.374 10.6832L71.1631 11.2511L72.9209 12.6353ZM48.8037 12.2449L48.2061 12.0319V11.2511C50.292 10.4703 52.4365 9.94972 54.6396 9.68944L56.1865 9.9024L57.7686 9.51198L58.542 9.9024L58.7178 10.6832L57.7686 11.0736L57.3467 11.8545L54.8506 12.0319L54.042 11.6415L52.1084 11.8545L51.335 11.6415L51.124 12.0319H50.5615L49.7881 11.8545L48.8037 12.2449ZM66.3115 9.29902V8.73114H65.7139L65.5381 9.29902H66.3115ZM77.4209 8.73114L76.8232 8.16327V8.73114H77.4209ZM69.0537 7.95031V7.38243H68.4561V7.77285L69.0537 7.95031ZM51.124 6.6016V5.99823L47.8193 5.60781L47.6436 3.86868C48.6748 3.49009 49.835 3.35995 51.124 3.47826L51.5107 0.567879H52.4951V0L53.6553 0L53.8662 0.390417L54.2529 0.390417L54.4287 0L55.0264 0L55.7998 2.69743L58.7178 2.91038L59.8779 2.69743L60.4756 3.3008L60.6865 2.69743L61.249 2.51996L61.46 3.69122L61.0732 4.47205H60.6865C60.8037 5.11091 60.6045 5.4895 60.0889 5.60781L59.1045 5.43035V5.82076L59.3154 6.38864H58.7178L57.3467 5.82076L56.5732 5.99823L55.7998 6.21118L55.0264 5.99823V6.38864L53.4795 5.99823L52.7061 6.38864V5.82076L52.8818 5.21739L51.8975 4.47205C52.0381 5.37119 51.7803 6.08104 51.124 6.6016ZM73.9053 6.38864L74.5029 5.60781L76.0498 5.43035L76.4365 2.12955L74.8897 1.73913V2.12955L75.4522 3.47826H74.5029L73.5186 2.69743L73.3076 3.3008L73.5186 4.08163L72.7451 4.47205V5.03993L73.5186 5.43035L73.1318 5.60781V6.21118L73.9053 6.38864ZM65.5381 6.21118L65.7139 5.60781H65.1514L64.9404 6.21118H65.5381ZM71.1631 5.99823L71.374 5.03993L70.0029 4.82697L69.4404 5.03993L68.4561 2.51996L67.085 2.12955V3.3008L67.8584 3.69122V4.08163H67.4717L66.3115 3.69122L65.5381 5.21739L65.7139 5.82076C66.6279 6.19935 67.6709 6.32949 68.8428 6.21118L70.6006 5.60781L71.1631 5.99823ZM55.7998 5.82076L56.7842 5.60781V5.03993L54.6396 4.64951V5.03993L55.4131 5.43035L55.7998 5.82076ZM59.7021 3.86868V3.47826L59.1045 3.3008V3.69122L59.7021 3.86868ZM65.9248 3.08784V2.69743H65.5381V3.08784H65.9248ZM68.8428 1.91659V1.52618L68.4561 0.567879H67.8584V1.52618L68.8428 1.91659ZM72.7451 1.34871L72.3584 0.958296V1.34871H72.7451Z" fill="#483D3F"/>
<path d="M4.18359 31.0915V30.7011L4.74609 27.5777L4.35937 26.6195L2.10937 25.4482L1.89844 24.8448L4.74609 23.3187L5.51953 23.7091L6.08203 21.757H5.13281V20.5857L5.51953 19.8049C5.63672 18.3852 5.32031 17.1548 4.57031 16.1137C2.92969 16.2557 1.47656 15.9362 0.210937 15.1554L0 14.3746L0.5625 12.9903H3.97266L4.74609 13.2033L5.30859 11.6416L4.92188 8.73125L6.43359 7.56C7.32422 9.38195 7.76953 11.3932 7.76953 13.5937L8.33203 13.7712L9.66797 13.2033L9.84375 13.9841H10.2305L10.6172 13.2033L11.3906 12.9903L11.0039 11.8546L11.1797 11.2512H10.0547C10.5 9.5949 10.6875 7.91493 10.6172 6.21129H11.5664L11.9531 5.04004L12.6914 6.60171H12.1289V7.16959L13.2539 7.38254V8.16338L13.8516 8.34084V8.90872L13.2539 9.29913V9.90251L14.0273 14.3746H14.4141L15.1523 13.9841L15.5391 14.765L15.3633 15.7233L15.9258 17.072L15.75 17.4624H15.3633L14.8008 17.2849C13.6523 17.9238 13.207 18.8939 13.4648 20.1953L13.6406 22.1474H15.75V22.9282L14.4141 23.3187L14.0273 25.0578L14.2031 26.0161L13.8516 27.0099L14.0273 27.7907L13.8516 28.5715L14.0273 29.1394L13.6406 29.3169V29.9203L14.0273 30.7011L13.0781 31.0915L11.3906 30.7011L10.4414 30.8785L10.0547 30.7011V30.0977C10.5469 29.1986 10.7344 28.2284 10.6172 27.1873L10.2305 26.4065H7.76953C7.39453 27.8499 6.94922 29.2814 6.43359 30.7011L5.30859 30.8785L4.74609 30.7011L4.18359 31.0915ZM9.49219 23.3187C10.125 23.0584 10.7578 22.7981 11.3906 22.5378L11.5664 21.757L11.0039 20.5857L10.4414 19.6274L10.6172 17.4624H8.33203C8.16797 19.166 7.98047 20.8578 7.76953 22.5378L9.49219 23.3187ZM15.1523 16.7171V16.3266L14.8008 16.7171H15.1523ZM10.0547 15.5458V14.9424H9.49219V15.5458H10.0547ZM5.13281 13.7712L4.74609 13.3808L4.57031 13.9841L5.13281 13.7712ZM12.3398 11.2512L11.7422 11.0738V11.4642L12.3398 11.2512ZM13.8516 6.21129L13.6406 5.43046L14.5898 5.2175V6.21129H13.8516Z" fill="#483D3F"/>
</svg>
