<svg width="214" height="40" viewBox="0 0 214 40" fill="none" xmlns="http://www.w3.org/2000/svg">
<path d="M209.572 32.6074V31.7461L209.982 32.4023L209.572 32.6074ZM208.465 31.5L208.219 30.8438L208.465 29.9414L208.219 29.0391L208.67 28.1367L207.562 27.8906V27.2344L207.768 24.7734H207.111L206.701 20.7129H206.004L205.799 21.4102H205.143V22.5176H204.691L202.477 21.8613L201.82 22.0664L200.508 21.4102C199.77 22.0117 199.537 22.832 199.811 23.8711H199.154L198.498 27.2344H198.047V27.8906L198.293 28.793L197.637 30.1465L196.939 30.3926L196.734 29.6953H195.832V30.3926H196.283L195.422 30.5977L194.766 29.0391H194.314L193.658 29.2441L194.314 27.6855L193.412 26.7832L194.766 26.332V25.8809L194.52 24.7734H194.971V24.3223L194.766 22.3125L195.832 20.7129L196.529 20.2617L196.939 18.498L197.637 16.8984H197.186V16.2422L198.047 13.3301H198.949V12.4277C199.25 10.3223 199.906 8.36719 200.918 6.5625L201.82 4.75781L202.723 3.89648L205.143 3.44531V5.20898L204.486 7.46484L207.768 7.91602V8.36719L209.121 8.81836V9.26953H208.67V9.7207L209.121 9.92578V10.8281L208.67 11.5254L210.229 12.1816V14.1914L209.982 15.5449H210.68L210.885 18.0469L211.541 18.252L211.09 20.0566H211.992L212.197 21.6152L211.336 21.4102V22.3125L210.68 22.5176L210.229 24.7734L210.885 24.9785V25.4297L212.648 25.6758V26.5781L212.443 27.2344H211.992V27.8906L213.305 28.5879L213.551 29.4902L211.336 30.1465V30.8438L208.465 31.5ZM210.885 29.2441V28.793L209.572 28.3418V28.793L210.885 29.2441ZM212.197 27.2344V26.5781H211.746L211.541 27.2344H212.197ZM198.744 25.6758V24.9785H198.047V25.6758H198.744ZM209.777 23.625V23.1738L208.465 22.3125V22.7637L209.777 23.625ZM206.25 19.3594L205.594 15.791L205.799 14.8887L204.24 10.1719L203.584 9.92578C202.846 13.0703 202.189 16.2148 201.615 19.3594L203.584 19.6055L204.896 19.3594H206.25ZM208.465 17.5957L207.768 17.3496V17.8008L208.465 17.5957ZM208.67 15.9961V15.3398H208.014V15.9961H208.67Z" fill="#1A1A1A"/>
<path d="M173.043 30.1465L172.592 29.0391C171.252 29.1758 170.363 28.875 169.926 28.1367L170.582 26.127L171.033 24.7734L170.787 23.4199L171.936 22.3125H172.387V21.6152H171.936V21.1641L172.838 20.959L173.043 18.9082L173.74 18.498L173.945 17.5957L175.299 17.1445L176.406 13.7812L177.555 13.084L178.908 9.7207C179.646 9.41992 180.234 8.81836 180.672 7.91602V7.25977L181.82 7.01367C181.656 5.97461 181.957 5.1543 182.723 4.55273L183.379 3.44531H185.635V5.45508C185.471 6.19336 185.02 6.5625 184.281 6.5625V7.01367L184.486 7.71094C183.912 8.44922 183.393 9.1875 182.928 9.92578L182.025 10.1719C182.025 11.375 181.725 12.4961 181.123 13.5352L180.221 13.7812L179.359 16.6934C178.457 18.0332 177.705 19.4551 177.104 20.959L175.955 21.4102L175.053 23.4199L173.945 24.3223H174.848C174.109 26.2637 173.508 28.2051 173.043 30.1465ZM176.406 20.959L176.652 19.3594H176.201L175.75 19.6055L175.053 21.1641L175.955 21.4102L176.406 20.959ZM176.857 19.1543V18.252H176.201L175.955 18.9082L176.857 19.1543Z" fill="#1A1A1A"/>
<path d="M160.592 32.1152C160.018 31.9785 159.799 31.5273 159.936 30.7617H159.033L158.582 31.2129L157.721 29.2031L157.27 28.957L156.613 28.5059L155.916 29.6543L154.398 29.8594L155.711 29.4082V28.5059H155.26L154.398 28.752L151.691 27.3984V28.0547L152.84 28.957L152.143 29.2031L151.938 30.1055H151.281L150.584 29.8594L150.379 30.5566H149.723L149.271 30.7617C148.67 29.8594 147.699 29.4902 146.359 29.6543L145.949 28.3008H145.047L144.391 28.5059L143.693 27.3984L144.596 26.7012V25.7988L143.488 22.6406C143.789 20.3711 144.418 18.2656 145.375 16.3242C146.332 14.3555 147.631 12.5508 149.271 10.9102L151.035 10.2129L151.281 11.1152H152.143V10.6641H152.594V11.1152H153.25L153.496 10.0078L155.916 9.76172C156.955 9.32422 158.145 9.17383 159.484 9.31055L160.141 11.3613L159.484 13.3711H160.141L160.387 14.7246L161.043 14.9707C160.988 16.6113 160.988 18.2656 161.043 19.9336H160.592V20.5898H161.043V22.1895L160.387 22.6406L160.141 23.7891L159.936 24.2402L160.838 24.6914L160.141 26.9473H161.043V27.3984L160.592 28.957L161.945 29.2031V30.5566L161.248 31.9102L160.592 32.1152ZM146.605 31.9102V31.2129H147.057V31.6641L146.605 31.9102ZM150.83 29.8594V29.2031L149.723 28.752V29.4082L150.83 29.8594ZM151.938 27.1523V26.4961L150.83 23.0918L151.035 22.4355L150.584 21.5332C151.322 20.7676 152.211 20.4531 153.25 20.5898V21.082L152.594 21.2871V21.9844L153.496 22.6406V23.3379H154.152L154.604 22.1895L154.152 21.2871H154.604L155.506 22.8867L155.916 23.0918V23.543H156.367L157.27 23.0918L157.721 23.3379L157.926 24.2402L159.033 24.6914V23.9941L158.172 21.9844L159.279 19.2363L158.828 16.7754L159.033 15.1758H158.377L157.27 14.0684H155.506L155.26 14.5195L154.604 14.9707L154.152 16.0781L152.143 16.9805C151.568 17.7461 151.199 18.5801 151.035 19.4824L150.379 18.5801L149.723 17.8828L150.174 16.9805L151.281 16.7754V16.3242L150.83 15.4219H149.928L149.477 16.3242L147.262 19.9336C146.523 19.7695 146.154 19.9883 146.154 20.5898H146.605L145.949 22.1895C145.949 23.6934 146.236 25.0469 146.811 26.25L150.379 26.7012L151.035 26.4961L151.938 27.1523ZM155.916 25.3477L156.162 23.3379H154.809L154.152 23.543V23.9941L154.809 24.4453L155.916 25.3477ZM153.25 23.7891L153.045 23.3379L152.84 23.7891H153.25ZM151.691 14.0684L151.281 13.6172V14.0684H151.691Z" fill="#1A1A1A"/>
<path d="M99.0312 39.6211L98.8555 38.4609L99.0312 36.9141H98.4688V35.3672L99.2422 33.8203L98.293 33.4336V32.6602L98.6797 30.9375L99.2422 30.1641L98.6797 29.9531L98.4688 28.2305L98.6797 27.457L97.5195 26.8594C97.0273 27.5156 96.3945 27.7148 95.6211 27.457V28.2305L94.6719 28.4062L94.4961 29.1797L93.3711 29.3906L92.7734 29.1797C93.0312 30.0938 92.7852 30.6797 92.0352 30.9375L91.6484 30.1641L91.2617 29.3906L92.5977 28.0195V27.457L93.7227 27.2461L93.9336 26.4727L95.6211 25.5234C96.2539 24.4922 97.0742 23.6484 98.082 22.9922L99.0312 22.6055L99.2422 21.4453L99.5938 21.0586L99.418 19.5117L99.5938 17.7539L98.8555 17.3672L98.6797 17.9648H97.7305L96.5703 17.7539C96.5703 18.4102 96.2539 18.7383 95.6211 18.7383C94.6133 18.082 93.5469 17.6953 92.4219 17.5781L91.8594 16.0312C93.9922 15.1172 96.1953 14.2734 98.4688 13.5L99.0312 13.7109V13.1133L99.9805 12.5508L100.191 10.0195L99.9805 9.24609L100.754 8.85938L100.93 7.52344L100.367 7.3125L100.191 8.08594H99.2422L98.4688 7.69922L97.9062 7.91016V8.68359L96.957 9.07031L96.5703 9.84375H96.0078L95.4453 9.63281V10.0195L95.6211 10.4062L93.5469 10.0195L93.3711 8.85938L93.9336 8.08594L95.0586 7.69922L95.2695 6.75L97.1328 5.97656V5.58984H98.293V5.20312C99.3008 4.54688 100.438 4.21875 101.703 4.21875V3.62109L101.141 3.62109C102.266 3.50391 103.402 3.31641 104.551 3.05859L107.012 5.37891C106.004 5.37891 104.984 5.57813 103.953 5.97656V6.36328L102.266 6.92578L102.09 8.47266H101.703V9.24609H102.441L102.652 11.0039L102.441 11.7773H103.004C103.52 11.3789 104.094 11.25 104.727 11.3906V11.0039H105.289L104.551 11.1797V11.5664L106.238 12.1641L106.414 14.2734H106.801V14.6602L105.5 15.6445L104.727 15.2578L104.551 16.0312H103.777L103.215 18.1406C103.848 18.9141 104.668 19.2422 105.676 19.125L106.238 19.8984C107.762 20.9297 109.344 21.7617 110.984 22.3945L111.371 23.7656C110.48 24.1641 109.531 24.4219 108.523 24.5391V24.9258C106.508 24.8789 104.797 24.1758 103.391 22.8164V22.2188H103.004L102.828 26.0859L103.004 26.6836H102.441V27.2461L102.652 28.793H102.266V30.1641L102.652 31.7109L102.266 33.2578C102.641 34.4062 102.77 35.625 102.652 36.9141L103.215 37.5117L101.879 38.4609L101.703 38.8477C100.695 38.7305 99.8047 38.9883 99.0312 39.6211ZM107.363 35.3672V34.9805L107.574 34.418L107.363 33.8203L108.91 33.4336L109.086 32.6602C109.977 32.543 110.855 32.3555 111.723 32.0977L112.496 32.2734C114.254 32.0156 115.895 31.5 117.418 30.7266V30.1641L117.242 29.0039L117.594 28.0195L116.855 27.8438L116.68 27.457L116.855 26.4727C116.34 25.957 115.648 25.7695 114.781 25.9102C114.781 26.4258 114.465 26.6836 113.832 26.6836L112.32 26.2969C111.805 26.6719 111.172 26.8008 110.422 26.6836L109.262 26.4727L109.859 26.2969V25.9102L110.984 25.3125H111.547V25.6992H112.109L112.32 25.1367L114.781 24.5391L115.344 24.9258L116.469 23.9766L116.68 22.6055H116.293V21.832L116.469 21.2344L116.082 20.0742L115.52 19.6875H114.957V20.0742L111.723 20.6719L110.984 19.6875L111.371 19.125C113.879 18.0938 116.457 17.3555 119.105 16.9102C121.777 16.4414 124.438 16.0195 127.086 15.6445L127.859 16.8047L126.312 16.9805L126.137 17.5781L123.852 18.7383L122.902 18.5273L121.602 19.125V19.5117L121.777 20.4609L121.602 21.2344L121.953 21.6211L120.652 21.832L120.09 21.6211V22.2188C121.59 22.6172 123.102 22.875 124.625 22.9922L125.012 24.3633L124.414 25.1367L125.012 25.6992L123.676 26.0859L123.113 28.4062L122.164 29.1797L123.676 29.5664L123.852 30.1641C124.742 30.1641 125.445 30.4805 125.961 31.1133V30.1641H126.523L128.035 30.9375V30.3398L127.859 29.7773L129.16 30.5508V30.9375H129.723H128.211V31.5L128.984 32.2734L127.859 32.0977V32.8711L128.773 33.4336C125.375 33.9492 121.965 34.0195 118.543 33.6445V34.0312C117.793 34.0312 117.102 34.1602 116.469 34.418L115.73 33.8203V34.5938H115.344L114.184 34.207L113.445 34.418L112.109 33.2578L111.934 34.5938H110.035C109.027 34.5938 108.137 34.8516 107.363 35.3672ZM110.035 34.0312V33.6445H109.648V34.0312H110.035ZM119.492 31.8867L119.141 31.5V31.8867H119.492ZM122.727 31.7109V31.3242L122.164 31.1133L121.953 31.7109H122.727ZM121.215 31.5V30.9375H120.652V31.5H121.215ZM121.777 28.2305L122.551 27.8438L123.113 28.0195V27.2461L122.164 27.0703V27.457H121.602L121.391 28.2305H121.777ZM117.594 27.6328V27.0703H117.031V27.6328H117.594ZM99.418 27.2461L98.8555 26.6836V27.457L99.418 27.2461ZM126.312 24.5391L126.523 24.1523L126.699 24.5391H126.312ZM117.418 24.3633L116.68 23.9766V24.5391L117.418 24.3633ZM106.625 23.2031L106.062 22.9922V23.3789L106.625 23.2031ZM117.594 22.9922V22.6055L117.242 22.9922H117.594ZM122.34 18.7383L122.551 18.1406H121.953V18.7383H122.34ZM105.676 14.8711L105.113 14.6602V15.0469L105.676 14.8711ZM112.32 14.6602L112.109 13.8867H111.723L111.16 14.0977L109.859 13.7109C110.469 13.7109 110.773 13.4531 110.773 12.9375L110.211 12.1641L109.648 11.0039L110.035 10.2305L109.262 9.84375V9.45703H109.648V7.3125L110.422 7.13672L110.598 6.53906C113.129 5.50781 115.66 4.53516 118.191 3.62109L118.367 4.21875H118.754L119.141 3.44531L119.879 3.23438L122.164 3.44531C123.289 2.78906 124.555 2.46094 125.961 2.46094L126.137 3.23438H126.523L126.91 3.05859V3.44531L126.523 4.81641L125.961 4.99219V5.37891L126.312 6.75L125.961 8.08594L125.012 9.07031V9.63281L125.961 10.2305V10.6172L125.012 11.0039L124.625 11.7773L123.676 11.9531L123.5 12.3398C121.836 12.8555 120.066 13.1836 118.191 13.3242L117.031 13.1133L116.469 13.3242V13.8867H115.906L114.57 13.3242V14.0977L112.883 14.2734V14.6602H112.32ZM111.16 12.5508L110.773 12.1641V12.5508H111.16ZM119.879 11.1797L120.266 10.2305H120.652C121.145 8.94141 121.52 7.58203 121.777 6.15234C121.027 5.63672 120.207 5.44922 119.316 5.58984L118.754 5.76563L117.805 5.58984L117.418 6.36328H115.906L115.344 6.15234L114.781 7.13672H114.184V7.52344L112.883 8.08594L112.672 8.85938H113.059L113.832 8.68359L114.184 9.24609L114.008 10.0195H115.133V10.4062L114.395 10.793L114.184 11.3906L117.418 11.5664L119.879 11.1797ZM112.883 10.4062L113.059 9.84375H112.496V10.4062H112.883ZM124.414 9.45703L123.852 8.85938V9.24609L124.414 9.45703ZM112.109 8.68359L112.32 8.08594H111.371V8.47266L112.109 8.68359ZM122.164 5.58984V4.99219H121.602V5.58984H122.164ZM125.363 4.21875L125.574 3.62109H125.188L125.012 4.21875H125.363Z" fill="#1A1A1A"/>
<path d="M64.5537 35.2266L63.9912 35.0156V34.2422H63.3936L63.2178 32.5195H62.6201V32.1328L62.7959 31.5703H62.4092L62.6201 30.7969H63.6045L63.7803 28.8633L64.167 29.8125L64.7647 30.0234L64.3779 30.9727L65.5381 31.3594V30.5859H66.5225L67.6826 31.1836V30.5859L66.1357 29.8125V29.4258L68.2451 28.4766L68.6318 27.7031H69.2295L69.8272 27.9141V27.5273L69.4404 27.3164V26.9297H68.8428H69.4404L69.8272 27.1406V27.5273H70.3897V27.1406H70.7764L71.7607 27.3164L71.9717 26.3672H72.7451L72.9209 28.0898H71.7607L71.1631 27.7031L70.6006 28.6523L70.2139 28.3008L69.6162 30.4102L68.8428 31.1836H68.4561L67.8584 32.5195L66.3115 33.082L65.9248 34.0664L64.5537 34.4531V34.8398V35.2266ZM70.6006 34.4531L70.3897 33.6797L70.9873 34.4531H70.6006ZM73.3076 34.0664L73.6943 33.6797V34.0664H73.3076ZM71.374 33.8555L71.1631 33.293L71.9717 32.9062V32.3438L70.9873 31.1836L71.585 30.5859L71.1631 30.1992H71.585V29.0391L72.5342 29.6367L73.6943 29.0391V29.4258L72.5342 29.8125L72.3584 30.4102H71.7607V30.9727L72.5342 33.293L72.3584 33.6797L71.374 33.8555ZM73.6943 33.293V32.5195H74.0811L73.6943 33.293ZM51.8975 32.6953L51.7217 32.1328H51.335L50.7373 32.3438L50.5615 31.7461C49.9053 31.8867 49.4482 31.6992 49.1904 31.1836L48.9795 30.0234L49.1904 29.4258L48.9795 28.8633L49.1904 27.9141C48.9326 26.2266 48.6045 24.5508 48.2061 22.8867L48.9795 22.3242C48.8623 21.668 49.0615 21.2109 49.5771 20.9531H50.1748C50.6904 21.3516 50.9482 21.8672 50.9482 22.5L52.7061 22.8867V21.9375L51.8975 21.3398V20.6016L52.7061 20.3906L54.2529 20.9531V21.5508H54.6396C55.5537 21.293 56.3975 21.0352 57.1709 20.7773V20.3906H57.5576L58.542 21.1641V20.7773H58.9287V22.3242H59.4912L58.7178 24.2578L59.1045 24.4336V25.207L59.7021 25.5938L59.3154 26.1562H58.9287L58.3311 25.9805V26.7539L58.542 27.3164H59.1045L59.4912 27.1406C59.8896 27.9141 60.0889 28.6758 60.0889 29.4258L58.7178 29.6367L58.3311 30.9727L57.3467 31.1836L56.3975 30.7969L56.0107 31.5703L56.5732 32.1328L54.8506 32.3438L52.7061 32.1328L51.8975 32.6953ZM65.5381 32.3438L65.7139 31.7461L64.3779 31.5703L64.167 32.5195L65.5381 32.3438ZM72.7451 31.957V31.3594H73.5186L73.6943 31.7461L72.7451 31.957ZM80.9014 30.1992L79.3545 29.6367L79.1436 29.0391L74.5029 25.3828H73.1318V25.9805V25.5938H71.7607L71.374 26.1562L70.2139 26.543V26.1562H70.6006V25.7695L70.2139 25.207L70.9873 25.3828V24.8203L70.3897 24.6094L70.0029 23.0977L68.6318 22.7109L67.085 22.8867L66.6982 21.1641H66.1357L65.7139 22.5L64.9404 22.8867L64.3779 21.9375C63.6045 21.9375 62.8896 21.6797 62.2334 21.1641V20.6016H62.6201V19.4414L62.4092 19.0547H62.7959L63.0068 19.8281H63.3936L64.9404 19.6172L65.5381 19.8281V19.0547L67.8584 18.8438L68.0693 19.6172H68.6318L69.0537 19.4414L69.2295 19.8281H69.6162L69.8272 18.668L70.0029 19.0547H70.6006L70.9873 18.2812H70.3897V17.8945L70.7764 16.5586L69.8272 16.3477C69.9443 15.5742 69.6865 15.1289 69.0537 15.0117L68.6318 15.1875L68.0693 14.2383H67.6826L66.9092 14.625V15.0117L67.2959 15.1875V15.5742H66.6982L65.5381 15.0117L65.1514 13.8516L65.3272 12.8672H65.7139L65.9248 13.6406H66.6982V13.0781L69.0537 12.6914L69.2295 12.1289H70.0029L70.7764 12.3047L70.9873 11.5313L70.7764 10.3711H70.2139L69.6162 10.582V9.59766H70.0029V8.82422L69.2295 8.47266V8.08594H68.0693L67.8584 8.64844L67.085 8.82422L66.6982 9.80859L65.9248 9.98438L65.7139 10.9688L65.9248 11.5313L65.5381 12.3047H64.7647L64.5537 12.8672L63.3936 12.8672L63.0068 12.1289C63.0068 10.6523 63.0068 9.17578 63.0068 7.69922L62.6201 5.76563L63.2178 1.89844L64.3779 1.51172L64.5537 0.949219L66.1357 0.738281V1.125L67.6826 1.51172L67.8584 0.175781C68.9365 -0.105469 69.9795 -0.0351562 70.9873 0.386719V0C71.9014 0.0703125 72.8037 0.257813 73.6943 0.5625L73.9053 0L78.5811 0L78.7568 0.5625L78.5811 0.949219H78.1943V1.33594C78.71 3 78.8975 4.86328 78.7568 6.92578L78.1943 8.82422L78.7568 10.9688C78.124 11.3438 77.8662 11.8594 77.9834 12.5156H78.7568V13.0781L77.8076 13.8516V14.625L77.9834 15.0117L75.8389 15.3984L75.6631 14.8008H75.0654L74.6787 15.3984L73.6943 16.7344L72.7451 16.3477V17.6836L73.5186 18.668L74.0811 18.8438L74.6787 18.668V18.0703L76.0498 18.668L77.0342 18.2812V19.0547H77.5967L77.8076 17.8945L78.3701 17.6836L79.3545 18.668H78.5811V19.4414L79.3545 19.6172V20.0039L77.5967 20.7773V21.3398H78.1943V21.7266L77.5967 21.9375L76.6123 21.3398L76.0498 20.7773C76.0498 21.4102 75.8506 21.9844 75.4522 22.5H74.292V23.0977L74.5029 23.6602H74.8897L75.4522 23.4844C77.0225 25.0078 78.71 26.3555 80.5147 27.5273L81.1123 27.7031L82.2725 28.6523L82.6592 29.8125C82.1436 30.2109 81.5576 30.3398 80.9014 30.1992ZM50.7373 29.6367L50.1748 29.4258V29.8125L50.7373 29.6367ZM56.3975 29.4258V28.8633H55.7998V29.4258H56.3975ZM65.3272 29.25L64.9404 28.3008L65.7139 29.0391L65.3272 29.25ZM53.8662 29.0391L54.8506 28.6523L56.0107 28.8633L56.7842 28.4766C56.7139 27.1172 56.8428 25.7695 57.1709 24.4336L56.7842 24.2578V23.4844L57.3467 23.2734V22.8867L56.0107 22.7109L55.624 23.4844H55.2373V23.0977L55.7998 22.8867V22.1133L54.8506 21.9375L53.2686 22.7109L53.0928 23.2734L52.3193 23.6602L52.1084 24.0469L51.8975 24.6094L52.4951 27.5273L53.0928 28.6523L53.8662 29.0391ZM66.3115 28.6523L66.1357 28.0898L66.9092 27.7031L67.2959 26.9297H67.8584L67.6826 28.3008L66.3115 28.6523ZM52.1084 27.7031V27.1406H51.5107V27.7031H52.1084ZM58.1553 26.9297V26.3672H57.5576V26.9297H58.1553ZM49.7881 26.1562V25.5938H49.1904V26.1562H49.7881ZM71.9717 25.3828V24.6094H71.585L71.374 25.207L71.9717 25.3828ZM51.5107 24.9961L51.124 24.6094V24.9961H51.5107ZM57.3467 22.5V21.1641H56.3975V21.5508L56.7842 22.5H57.3467ZM68.0693 22.5V21.9375L67.085 21.7266V22.1133L68.0693 22.5ZM69.0537 22.3242V21.9375L69.2295 21.3398L68.6318 21.1641L68.2451 22.3242H69.0537ZM53.0928 21.7266V21.3398L52.4951 21.1641V21.7266H53.0928ZM78.7568 21.5508V21.1641H79.1436V21.5508H78.7568ZM63.7803 20.3906L63.2178 20.2148V20.6016L63.7803 20.3906ZM76.2256 20.2148V19.8281L76.4365 19.0547L75.8389 18.8438L75.4522 19.6172L75.6631 20.2148H76.2256ZM74.6787 19.8281L74.8897 19.2305H74.5029L74.0811 20.0039L74.6787 19.8281ZM73.9053 19.6172V19.0547H73.5186V19.6172H73.9053ZM72.7451 19.4414V18.2812H72.1475L71.585 18.457V19.0547L72.7451 19.4414ZM48.5928 18.668V17.8945L48.2061 16.7344L51.8975 15.9609L52.4951 16.3477L52.7061 15.3984H53.0928V15.7852H53.6553V15.3984H54.042L54.6396 15.5742L55.624 15.1875L56.1865 15.3984L56.7842 15.1875L58.1553 16.5586L57.7686 16.7344L57.5576 17.6836H56.96C56.4443 17.3086 55.8701 17.1797 55.2373 17.2969V17.6836L53.4795 18.0703L49.4014 17.6836V18.0703L48.5928 18.668ZM76.6123 14.2383L76.0498 14.0273V14.4141L76.6123 14.2383ZM75.0654 14.0273L74.292 13.2539V13.6406L75.0654 14.0273ZM77.21 13.8516V13.4648H76.8232V13.8516H77.21ZM69.0537 13.4648V13.0781H68.6318V13.4648H69.0537ZM72.9209 12.5156L75.8389 11.5313C75.9092 10.0078 75.9795 8.47266 76.0498 6.92578H75.6631L74.8897 7.10156L73.6943 6.71484V7.10156L73.9053 7.69922L70.9873 9.03516V9.59766L72.1475 10.582L72.3584 9.59766L73.3076 9.42188L73.6943 9.59766L73.9053 10.582L73.6943 10.9688V9.98438H73.3076L72.3584 10.3711V10.7578H71.7607L71.374 10.582L71.1631 11.1445L72.9209 12.5156ZM48.8037 12.1289L48.2061 11.918V11.1445C50.292 10.3711 52.4365 9.85547 54.6396 9.59766L56.1865 9.80859L57.7686 9.42188L58.542 9.80859L58.7178 10.582L57.7686 10.9688L57.3467 11.7422L54.8506 11.918L54.042 11.5312L52.1084 11.7422L51.335 11.5312L51.124 11.918H50.5615L49.7881 11.7422L48.8037 12.1289ZM66.3115 9.21094V8.64844H65.7139L65.5381 9.21094H66.3115ZM77.4209 8.64844L76.8232 8.08594V8.64844H77.4209ZM69.0537 7.875V7.3125H68.4561V7.69922L69.0537 7.875ZM51.124 6.53906V5.94141L47.8193 5.55469L47.6436 3.83203C48.6748 3.45703 49.835 3.32812 51.124 3.44531L51.5107 0.5625H52.4951V0L53.6553 0L53.8662 0.386719L54.2529 0.386719L54.4287 0L55.0264 0L55.7998 2.67188L58.7178 2.88281L59.8779 2.67188L60.4756 3.26953L60.6865 2.67188L61.249 2.49609L61.46 3.65625L61.0732 4.42969H60.6865C60.8037 5.0625 60.6045 5.4375 60.0889 5.55469L59.1045 5.37891V5.76563L59.3154 6.32813H58.7178L57.3467 5.76563L56.5732 5.94141L55.7998 6.15234L55.0264 5.94141V6.32812L53.4795 5.94141L52.7061 6.32812V5.76562L52.8818 5.16797L51.8975 4.42969C52.0381 5.32031 51.7803 6.02344 51.124 6.53906ZM73.9053 6.32813L74.5029 5.55469L76.0498 5.37891L76.4365 2.10938L74.8897 1.72266V2.10938L75.4522 3.44531H74.5029L73.5186 2.67188L73.3076 3.26953L73.5186 4.04297L72.7451 4.42969V4.99219L73.5186 5.37891L73.1318 5.55469V6.15234L73.9053 6.32813ZM65.5381 6.15234L65.7139 5.55469H65.1514L64.9404 6.15234H65.5381ZM71.1631 5.94141L71.374 4.99219L70.0029 4.78125L69.4404 4.99219L68.4561 2.49609L67.085 2.10938V3.26953L67.8584 3.65625V4.04297H67.4717L66.3115 3.65625L65.5381 5.16797L65.7139 5.76563C66.6279 6.14063 67.6709 6.26953 68.8428 6.15234L70.6006 5.55469L71.1631 5.94141ZM55.7998 5.76563L56.7842 5.55469V4.99219L54.6396 4.60547V4.99219L55.4131 5.37891L55.7998 5.76563ZM59.7021 3.83203V3.44531L59.1045 3.26953V3.65625L59.7021 3.83203ZM65.9248 3.05859V2.67188H65.5381V3.05859H65.9248ZM68.8428 1.89844V1.51172L68.4561 0.5625H67.8584V1.51172L68.8428 1.89844ZM72.7451 1.33594L72.3584 0.949219V1.33594H72.7451Z" fill="#1A1A1A"/>
<path d="M4.18359 30.7969V30.4102L4.74609 27.3164L4.35937 26.3672L2.10937 25.207L1.89844 24.6094L4.74609 23.0977L5.51953 23.4844L6.08203 21.5508H5.13281V20.3906L5.51953 19.6172C5.63672 18.2109 5.32031 16.9922 4.57031 15.9609C2.92969 16.1016 1.47656 15.7852 0.210937 15.0117L0 14.2383L0.5625 12.8672H3.97266L4.74609 13.0781L5.30859 11.5312L4.92188 8.64844L6.43359 7.48828C7.32422 9.29297 7.76953 11.2852 7.76953 13.4648L8.33203 13.6406L9.66797 13.0781L9.84375 13.8516H10.2305L10.6172 13.0781L11.3906 12.8672L11.0039 11.7422L11.1797 11.1445H10.0547C10.5 9.50391 10.6875 7.83984 10.6172 6.15234H11.5664L11.9531 4.99219L12.6914 6.53906H12.1289V7.10156L13.2539 7.3125V8.08594L13.8516 8.26172V8.82422L13.2539 9.21094V9.80859L14.0273 14.2383H14.4141L15.1523 13.8516L15.5391 14.625L15.3633 15.5742L15.9258 16.9102L15.75 17.2969H15.3633L14.8008 17.1211C13.6523 17.7539 13.207 18.7148 13.4648 20.0039L13.6406 21.9375H15.75V22.7109L14.4141 23.0977L14.0273 24.8203L14.2031 25.7695L13.8516 26.7539L14.0273 27.5273L13.8516 28.3008L14.0273 28.8633L13.6406 29.0391V29.6367L14.0273 30.4102L13.0781 30.7969L11.3906 30.4102L10.4414 30.5859L10.0547 30.4102V29.8125C10.5469 28.9219 10.7344 27.9609 10.6172 26.9297L10.2305 26.1562H7.76953C7.39453 27.5859 6.94922 29.0039 6.43359 30.4102L5.30859 30.5859L4.74609 30.4102L4.18359 30.7969ZM9.49219 23.0977C10.125 22.8398 10.7578 22.582 11.3906 22.3242L11.5664 21.5508L11.0039 20.3906L10.4414 19.4414L10.6172 17.2969H8.33203C8.16797 18.9844 7.98047 20.6602 7.76953 22.3242L9.49219 23.0977ZM15.1523 16.5586V16.1719L14.8008 16.5586H15.1523ZM10.0547 15.3984V14.8008H9.49219V15.3984H10.0547ZM5.13281 13.6406L4.74609 13.2539L4.57031 13.8516L5.13281 13.6406ZM12.3398 11.1445L11.7422 10.9688V11.3555L12.3398 11.1445ZM13.8516 6.15234L13.6406 5.37891L14.5898 5.16797V6.15234H13.8516Z" fill="#1A1A1A"/>
</svg>
