<svg width="316" height="513" viewBox="0 0 316 513" fill="none" xmlns="http://www.w3.org/2000/svg">
<path d="M161.215 285.138C151.223 315.136 139.669 344.573 126.602 373.329C113.565 402.209 99.2055 430.477 83.8555 458.157C75.3291 473.385 66.568 488.464 57.5723 503.394C56.4142 505.304 59.4561 506.963 60.6142 505.054C76.886 478.208 92.2956 450.828 106.605 422.801C121.111 394.407 134.496 365.402 146.297 335.864C152.894 319.405 158.994 302.737 164.598 285.862C165.286 283.744 161.917 282.963 161.235 285.07L161.215 285.138Z" fill="#663F1D"/>
<path d="M162.112 276.41C162.153 277.158 162.175 277.911 162.16 278.675C162.149 279.079 162.138 279.483 162.115 279.88C162.11 280.035 162.094 280.184 162.078 280.333L162.057 280.637C161.895 282.142 161.626 283.634 161.25 285.099C161.152 285.546 161.231 286.015 161.472 286.406C161.712 286.797 162.094 287.077 162.535 287.188C162.98 287.28 163.443 287.198 163.828 286.956C164.212 286.715 164.49 286.333 164.603 285.89C165.407 282.763 165.722 279.527 165.539 276.296C165.522 275.836 165.325 275.4 164.991 275.084C164.656 274.768 164.212 274.599 163.756 274.613C163.3 274.628 162.87 274.824 162.559 275.16C162.248 275.496 162.083 275.943 162.1 276.404L162.112 276.41Z" fill="#663F1D"/>
<path d="M138.968 264.692C141.421 260.777 143.639 256.718 145.612 252.535L152.024 240.251C152.24 239.845 152.287 239.369 152.155 238.927C152.022 238.485 151.721 238.113 151.318 237.893C150.915 237.673 150.442 237.623 150.005 237.754C149.567 237.885 149.2 238.186 148.984 238.592L142.572 250.875C140.599 255.059 138.381 259.118 135.928 263.033C134.668 264.87 137.715 266.517 138.968 264.692Z" fill="#663F1D"/>
<path d="M151.792 240.534L152.113 240.253L151.773 240.539C152.288 240.146 152.844 239.81 153.431 239.539L153.039 239.719C153.632 239.452 154.258 239.264 154.9 239.16L154.474 239.227C154.844 239.164 155.22 239.147 155.595 239.178L155.153 239.125L155.335 239.225C155.773 239.311 156.225 239.234 156.609 239.007C156.815 238.886 156.993 238.722 157.132 238.527C157.271 238.331 157.367 238.108 157.415 237.872C157.504 237.431 157.432 236.972 157.211 236.579C157.089 236.371 156.925 236.191 156.729 236.051C156.534 235.912 156.311 235.816 156.076 235.77C154.85 235.596 153.602 235.751 152.458 236.219C151.284 236.644 150.205 237.295 149.28 238.137C149.111 238.308 148.981 238.512 148.896 238.737C148.811 238.962 148.775 239.203 148.788 239.444C148.796 239.668 148.848 239.889 148.941 240.094C149.033 240.299 149.165 240.483 149.328 240.637C149.659 240.949 150.098 241.119 150.55 241.11C151.002 241.101 151.432 240.914 151.747 240.588L151.792 240.534Z" fill="#663F1D"/>
<path d="M154.493 239.719C159.565 242.693 164.752 245.478 170.013 248.067C170.313 248.26 170.648 248.389 170.999 248.446C171.349 248.503 171.707 248.486 172.051 248.397C172.394 248.308 172.714 248.148 172.993 247.928C173.271 247.707 173.501 247.431 173.669 247.117C173.836 246.802 173.937 246.455 173.966 246.099C173.994 245.742 173.95 245.383 173.835 245.043C173.72 244.704 173.536 244.392 173.297 244.126C173.057 243.861 172.766 243.648 172.442 243.5C167.182 240.911 161.994 238.126 156.923 235.153C156.327 234.882 155.653 234.848 155.036 235.058C154.42 235.268 153.906 235.706 153.598 236.284C153.291 236.862 153.212 237.538 153.378 238.175C153.544 238.812 153.942 239.364 154.493 239.719Z" fill="#663F1D"/>
<path d="M163.655 275.721C165.235 271.803 167.051 267.988 169.092 264.296L174.902 252.553C175.118 252.148 175.164 251.672 175.032 251.229C174.9 250.787 174.599 250.415 174.196 250.195C173.793 249.975 173.32 249.925 172.883 250.056C172.445 250.187 172.078 250.489 171.862 250.894L165.824 263.096C163.745 266.922 161.899 270.874 160.295 274.929C160.21 275.372 160.299 275.832 160.543 276.212C160.787 276.592 161.168 276.862 161.604 276.965C162.041 277.067 162.499 276.995 162.882 276.763C163.264 276.531 163.542 276.157 163.655 275.721Z" fill="#663F1D"/>
<path d="M175.072 251.404C175.101 250.791 175.043 250.176 174.901 249.578C174.789 249.011 174.63 248.455 174.424 247.916C174.006 246.647 173.313 245.488 172.395 244.523C172.062 244.222 171.626 244.062 171.18 244.079C170.734 244.095 170.313 244.287 170.006 244.612C169.699 244.937 169.53 245.371 169.534 245.822C169.539 246.273 169.718 246.705 170.032 247.027L170.371 247.418L170.092 247.061C170.496 247.586 170.831 248.161 171.091 248.772L170.918 248.362C171.254 249.126 171.501 249.927 171.652 250.748L171.571 250.31C171.644 250.713 171.668 251.122 171.642 251.53C171.66 251.978 171.849 252.403 172.169 252.716C172.341 252.885 172.544 253.016 172.767 253.103C172.99 253.19 173.228 253.229 173.466 253.22C173.91 253.204 174.329 253.016 174.637 252.694L174.851 252.291C175.003 252.019 175.075 251.71 175.06 251.397L175.072 251.404Z" fill="#663F1D"/>
<path d="M277.047 14.3786C261.004 43.1636 245.249 72.0955 229.783 101.174C214.222 130.391 198.947 159.758 183.958 189.276C175.552 205.827 167.23 222.435 158.993 239.099C158.159 240.665 160.587 242.005 161.428 240.427C176.056 210.839 190.953 181.423 206.119 152.181C221.285 122.938 236.795 93.7098 252.649 64.4948C261.493 48.2037 270.427 31.9613 279.45 15.7676C279.622 15.4431 279.66 15.062 279.554 14.708C279.448 14.354 279.207 14.0563 278.884 13.8802C278.561 13.7041 278.183 13.6641 277.832 13.7691C277.482 13.874 277.188 14.1153 277.015 14.4397L277.047 14.3786Z" fill="#663F1D"/>
<path d="M277.802 12.8824C264.028 43.1528 249.945 73.2966 235.552 103.314C221.159 133.331 206.403 163.234 191.284 193.023C182.841 209.646 174.293 226.227 165.642 242.768C165.47 243.093 165.432 243.474 165.538 243.828C165.644 244.182 165.885 244.48 166.208 244.656C166.531 244.832 166.909 244.872 167.259 244.767C167.61 244.662 167.904 244.421 168.076 244.096C183.508 214.625 198.623 184.933 213.42 155.021C228.218 125.109 242.672 95.1044 256.783 65.0073C264.704 48.068 272.521 31.1356 280.236 14.2101C280.972 12.5911 278.545 11.2511 277.802 12.8824Z" fill="#663F1D"/>
<path d="M153.685 245.311C151.732 248.805 149.925 252.379 148.154 255.972C147.237 257.696 146.435 259.498 145.584 261.274C144.653 263.023 143.896 264.861 143.323 266.762C142.506 270.008 147.537 271.192 148.373 267.941C148.9 266.278 149.591 264.673 150.436 263.15C151.254 261.435 152.078 259.739 152.914 258.05C154.613 254.591 156.361 251.159 158.242 247.799C159.81 244.853 155.301 242.391 153.685 245.311Z" fill="#663F1D"/>
<path d="M152.383 241.658L141.955 261.746C141.88 261.945 141.879 262.165 141.953 262.365C142.027 262.566 142.17 262.732 142.357 262.834C142.543 262.936 142.76 262.966 142.966 262.918C143.172 262.871 143.353 262.749 143.476 262.575L153.903 242.487C153.979 242.289 153.98 242.068 153.906 241.868C153.832 241.667 153.688 241.501 153.502 241.399C153.315 241.297 153.098 241.267 152.892 241.315C152.686 241.362 152.505 241.484 152.383 241.658Z" fill="#663F1D"/>
<path d="M153.762 242.43L156.636 240.47C156.826 240.346 156.962 240.153 157.016 239.931C157.07 239.709 157.038 239.474 156.928 239.274C156.804 239.079 156.61 238.94 156.388 238.886C156.165 238.832 155.931 238.868 155.735 238.985L152.868 240.933C152.703 241.065 152.592 241.254 152.556 241.464C152.52 241.675 152.561 241.891 152.671 242.074C152.782 242.256 152.955 242.392 153.157 242.455C153.359 242.519 153.577 242.505 153.769 242.418L153.762 242.43Z" fill="#663F1D"/>
<path d="M159.132 246.28C159.165 246.204 159.204 246.13 159.249 246.06L158.84 246.625C159.226 246.084 159.68 245.596 160.191 245.173C160.423 244.911 160.59 244.597 160.678 244.257C160.822 243.945 160.887 243.601 160.865 243.256C160.866 242.919 160.777 242.588 160.609 242.297C160.502 241.976 160.315 241.689 160.065 241.464L159.504 241.047C159.081 240.812 158.605 240.693 158.123 240.702L157.474 240.804C157.048 240.937 156.662 241.176 156.353 241.5C155.619 242.146 154.982 242.897 154.463 243.729C154.287 244.027 154.193 244.367 154.19 244.714C154.126 245.046 154.155 245.389 154.274 245.705C154.359 246.031 154.522 246.331 154.748 246.579C154.939 246.87 155.205 247.103 155.517 247.252L156.169 247.498C156.605 247.598 157.059 247.585 157.487 247.461L158.086 247.19C158.475 246.954 158.795 246.617 159.011 246.214L159.132 246.28Z" fill="#663F1D"/>
<path d="M236.646 93.8439C216.861 132.586 197.195 171.381 177.647 210.23C172.173 221.117 166.703 232.017 161.237 242.929C161.151 243.092 161.132 243.282 161.185 243.459C161.238 243.636 161.359 243.785 161.52 243.873C161.682 243.961 161.871 243.981 162.046 243.929C162.221 243.876 162.368 243.756 162.455 243.593C181.905 204.732 201.5 165.903 221.24 127.106C226.755 116.221 232.296 105.354 237.863 94.5078C237.95 94.3456 237.968 94.155 237.915 93.978C237.862 93.801 237.742 93.6522 237.58 93.5641C237.419 93.4761 237.23 93.4561 237.055 93.5086C236.879 93.561 236.732 93.6817 236.646 93.8439Z" fill="#663F1D"/>
<path d="M166.596 250.041L156.637 270.461C156.116 271.439 157.667 272.301 158.158 271.29L168.072 250.925C168.593 249.947 167.036 249.097 166.551 250.096L166.596 250.041Z" fill="#663F1D"/>
<path d="M168.422 250.224L169.365 246.86C169.403 246.744 169.417 246.622 169.405 246.5C169.394 246.378 169.357 246.26 169.298 246.154C169.239 246.047 169.158 245.954 169.061 245.88C168.964 245.806 168.853 245.754 168.736 245.726C168.618 245.698 168.496 245.695 168.377 245.718C168.258 245.74 168.146 245.788 168.046 245.857C167.947 245.926 167.863 246.016 167.801 246.119C167.738 246.223 167.697 246.34 167.682 246.461L166.751 249.831C166.701 250.056 166.741 250.292 166.863 250.489C166.984 250.685 167.177 250.825 167.4 250.879C167.622 250.924 167.852 250.88 168.042 250.758C168.232 250.636 168.368 250.445 168.422 250.224Z" fill="#663F1D"/>
<path d="M143.648 266.62L142.26 269.02C137.331 278.958 130.886 287.91 124.592 296.961C83.0709 356.826 48.0078 421.014 19.9952 488.441C15.5874 484.295 12.0874 479.266 9.72225 473.68L8.83823 473.277C40.8269 400.08 80.9008 330.792 128.303 266.723L128.133 266.631C129.94 264.477 132.119 262.672 134.565 261.301L135.646 261.481L139.407 263.911C140.84 264.788 142.253 265.701 143.648 266.62Z" fill="#663F1D"/>
<path d="M8.47542 474.126C8.60571 473.881 8.74252 473.624 8.8728 473.379C40.864 400.149 80.9481 330.828 128.368 266.727" stroke="#6F595D" stroke-width="0.5" stroke-miterlimit="10"/>
<path d="M128.084 266.717L128.182 266.533C129.986 264.382 132.16 262.578 134.602 261.208" stroke="#6F595D" stroke-width="0.5" stroke-miterlimit="10"/>
<path d="M135.712 261.394L139.451 263.81C140.857 264.717 142.262 265.625 143.681 266.477C149.985 270.096 156.521 273.284 163.245 276.019" stroke="#6F595D" stroke-width="3" stroke-miterlimit="10"/>
<path d="M9.65527 473.78C12.0082 479.339 15.4901 484.344 19.8752 488.47C24.6239 492.956 29.919 496.812 35.6314 499.946C42.453 503.795 51.2933 504.819 59.0347 504.269" stroke="#6F595D" stroke-width="3" stroke-miterlimit="10"/>
<path d="M142.258 268.974C137.326 278.913 130.877 287.868 124.58 296.921C83.0329 356.799 47.9485 421 19.9188 488.44C19.7559 488.746 19.6604 489.073 19.5219 489.392" stroke="#6F595D" stroke-width="0.5" stroke-miterlimit="10"/>
<path d="M142.988 283.911C126.813 310.189 110.646 336.461 94.4868 362.727C78.6512 388.465 62.8675 414.341 49.9374 441.727C46.3119 449.393 42.9118 457.166 39.8167 465.074C38.3291 468.871 33.9381 477.65 39.9642 479.865C40.1478 479.907 40.3397 479.888 40.5111 479.811C40.6824 479.734 40.8239 479.602 40.9144 479.437C47.5779 465.71 54.132 451.923 60.9293 438.27C64.2338 431.303 68.1807 424.669 72.7182 418.453C77.0949 412.926 81.8108 407.681 86.8384 402.75C92.026 397.657 96.891 392.241 101.405 386.532C105.784 380.558 109.729 374.27 113.209 367.719C120.612 354.285 127.893 340.784 135.234 327.317L147.577 304.661C151.557 297.362 155.853 289.999 158.592 282.023C158.967 280.965 157.273 280.578 156.917 281.63C154.407 288.911 150.543 295.61 146.876 302.322L135.853 322.556C128.557 335.948 121.265 349.332 113.977 362.708C110.463 369.418 106.597 375.934 102.394 382.226C98.1466 388.153 93.4217 393.715 88.267 398.857C83.272 404.024 78.1522 409.012 73.6347 414.549C69.0968 420.187 65.1432 426.28 61.8352 432.734C53.9134 447.763 46.8357 463.3 39.4126 478.601L40.3693 478.16C37.7477 477.188 38.6806 473.135 39.3766 471.179C40.5408 467.694 42.006 464.264 43.4022 460.874C46.1554 454.169 49.1098 447.557 52.2223 441.032C58.519 427.847 65.4734 414.989 72.804 402.368C87.3874 377.037 103.034 352.333 118.352 327.449L144.613 284.782C145.194 283.836 143.674 283.007 143.092 283.952L142.988 283.911Z" fill="#663F1D"/>
<path d="M129.328 318.764L107.186 354.233L96.2458 371.841L93.514 376.236C92.577 377.517 91.7526 378.879 91.0503 380.305C90.521 381.595 90.4454 383.889 92.3104 384.07C92.4934 384.1 92.6808 384.076 92.8495 384C93.0182 383.923 93.161 383.799 93.2603 383.642C104.294 367.568 115.332 351.497 126.375 335.428C126.998 334.522 125.478 333.692 124.855 334.599C113.82 350.672 102.782 366.743 91.7403 382.812L92.6967 382.372C91.5885 382.272 93.7685 379.09 93.9239 378.827L96.4874 374.718L101.246 367.104L111.132 351.272L130.811 319.574C131.405 318.635 129.885 317.805 129.291 318.744L129.328 318.764Z" fill="#663F1D"/>
<path d="M131.929 313.907L131.155 315.774L132.743 316.388C137.168 303.301 147.117 293.165 152.559 280.585C152.994 279.56 151.48 278.718 151.038 279.755C145.511 292.525 135.553 302.735 131.068 315.995C130.753 316.912 132.286 317.512 132.676 316.604L133.45 314.737C133.879 313.724 132.352 312.876 131.929 313.907Z" fill="#663F1D"/>
<path d="M108.515 376.148C108.712 376.225 108.929 376.227 109.127 376.154C109.325 376.08 109.489 375.937 109.588 375.749C109.688 375.562 109.716 375.344 109.668 375.137C109.62 374.929 109.498 374.746 109.326 374.621C109.129 374.544 108.911 374.542 108.714 374.615C108.516 374.689 108.352 374.832 108.253 375.02C108.153 375.207 108.125 375.425 108.173 375.632C108.221 375.84 108.343 376.023 108.515 376.148Z" fill="#663F1D"/>
<path d="M125.78 353.432C115.734 373.57 101.267 390.837 87.387 408.33C73.7236 425.562 60.5561 443.396 52.6357 464.172C48.1499 475.931 44.5553 488.728 35.4437 497.853C35.2869 498.018 35.202 498.24 35.2079 498.47C35.2137 498.699 35.3097 498.918 35.4748 499.077C35.6399 499.236 35.8605 499.323 36.0881 499.319C36.3158 499.314 36.5318 499.218 36.6886 499.053C44.5622 491.163 48.4359 480.554 52.2086 470.253C55.9919 459.639 60.8473 449.452 66.6984 439.85C78.5897 420.609 93.7613 403.758 107.329 385.732C114.893 375.859 121.556 365.316 127.239 354.229C127.315 354.03 127.316 353.81 127.242 353.609C127.168 353.409 127.024 353.242 126.838 353.14C126.651 353.039 126.435 353.009 126.229 353.056C126.023 353.104 125.841 353.226 125.719 353.399L125.78 353.432Z" fill="#663F1D"/>
<path d="M119.936 378.483C96.1375 406.063 76.0063 436.662 60.0462 469.513C55.529 478.824 51.3711 488.315 47.5369 497.935C47.4631 498.087 47.4339 498.258 47.4529 498.426C47.472 498.595 47.5384 498.755 47.6444 498.888C47.7504 499.02 47.8915 499.12 48.0512 499.174C48.2109 499.229 48.3824 499.236 48.5456 499.196C49.6215 498.915 50.6171 498.387 51.4546 497.653C52.2921 496.919 52.9488 495.998 53.3734 494.963C53.8027 493.951 52.2885 493.109 51.8527 494.134C51.5304 494.962 51.0184 495.7 50.3584 496.289C49.6985 496.878 48.9091 497.301 48.0546 497.523L49.0576 498.765C62.5351 464.831 80.3439 432.836 102.035 403.585C108.127 395.386 114.513 387.421 121.193 379.69C121.92 378.856 120.699 377.669 119.936 378.483Z" fill="#663F1D"/>
<path d="M71.8204 466.426C69.2049 472.304 65.977 477.882 62.1909 483.067L63.5768 484.092C74.7395 461.12 90.671 440.781 100.257 416.997C100.595 416.155 99.5663 415.168 98.871 415.972C91.2722 424.832 85.0285 434.79 80.3449 445.519C79.8969 446.538 81.4178 447.367 81.8659 446.349C86.4804 435.758 92.6352 425.927 100.128 417.179L98.7359 416.167C89.1988 439.978 73.2186 460.29 62.0558 483.262C61.626 484.069 62.8389 485.094 63.4482 484.274C67.333 478.972 70.6491 473.267 73.3413 467.255C73.8558 466.289 72.2806 465.414 71.8204 466.426Z" fill="#663F1D"/>
<path d="M70.068 392.708C81.2869 378.891 89.2803 362.904 97.7019 347.293C101.883 339.44 106.296 331.681 111.286 324.316C116.275 316.951 122.19 310.028 126.504 302.073C128.752 297.925 130.662 293.598 132.215 289.135C132.819 287.381 134.006 285.092 133.632 283.199C133.411 282.052 132.617 281.066 131.381 281.529C130.146 281.991 130.849 283.59 131.891 283.196C132.184 283.088 131.498 285.792 131.458 285.896C131.166 286.858 130.856 287.794 130.528 288.735C129.79 290.858 128.96 292.947 128.058 294.996C126.4 298.743 124.474 302.361 122.294 305.822C117.979 312.687 112.707 318.903 108.271 325.702C99.3732 339.317 92.4198 354.088 84.3666 368.211C79.8245 376.388 74.6283 384.175 68.8294 391.495C68.1323 392.362 69.3101 393.541 70.068 392.708Z" fill="#663F1D"/>
<path d="M63.2796 395.948C57.2416 408.652 51.3495 421.436 45.6032 434.299C40.1922 446.415 34.0738 458.68 32.1951 471.998C31.2484 478.84 31.3186 485.792 32.4035 492.625C32.577 493.714 34.3118 493.667 34.1261 492.571C32.2712 479.919 33.7875 467.016 38.519 455.19C43.3227 442.506 49.2822 430.185 54.9393 417.873C58.1856 410.809 61.4808 403.761 64.8249 396.729C65.3454 395.751 63.7839 394.883 63.3056 395.899L63.2796 395.948Z" fill="#663F1D"/>
<path d="M60.0311 488.592C59.6761 488.493 59.513 488.593 59.5109 488.892L59.3951 489.286L59.0921 490.21C58.8568 490.917 58.6483 491.545 58.356 492.301C57.8514 493.603 57.3428 494.824 56.7847 496.05C56.2267 497.276 55.5931 498.555 54.9817 499.704C54.676 500.279 54.3702 500.854 54.0645 501.428C53.7588 502.003 53.5311 502.431 52.9909 502.562C51.9114 502.793 52.4205 504.459 53.5 504.228C55.1198 503.866 55.9192 501.715 56.6152 500.407C57.6105 498.536 58.502 496.625 59.3085 494.667C59.6917 493.74 60.0507 492.8 60.3789 491.859C60.7603 490.958 61.0626 490.025 61.2823 489.07C61.3896 488.715 61.3809 488.333 61.2573 487.982C61.1338 487.63 60.902 487.327 60.596 487.118C60.3227 486.958 60.004 486.897 59.6929 486.946C59.3819 486.994 59.0972 487.149 58.8864 487.384C58.1602 488.218 59.3731 489.416 60.13 488.583L60.0311 488.592Z" fill="#663F1D"/>
<path d="M144.399 271.13C143.436 272.765 142.436 274.379 141.539 276.066C140.837 277.386 140.59 279.206 142.081 280.115C142.378 280.287 142.715 280.375 143.057 280.371C143.399 280.366 143.732 280.268 144.022 280.087C144.234 279.993 144.428 279.865 144.6 279.709C144.409 279.478 144.33 279.42 144.357 279.576C144.38 279.634 144.385 279.697 144.37 279.757C144.312 279.867 144.325 280.048 144.273 280.177C143.938 280.939 143.547 281.674 143.103 282.376L141.68 285.053C141.604 285.252 141.603 285.472 141.677 285.672C141.751 285.872 141.894 286.039 142.08 286.14C142.267 286.242 142.483 286.272 142.688 286.224C142.894 286.177 143.075 286.055 143.197 285.882L144.562 283.315C144.978 282.533 145.407 281.727 145.823 280.945C146.285 279.81 146.139 277.963 144.524 277.996C144.22 278.011 143.927 278.106 143.672 278.272C143.515 278.36 143.173 278.709 142.965 278.658C142.261 278.479 142.881 277.225 143.044 276.919C143.941 275.233 144.94 273.618 145.903 271.984C145.979 271.785 145.98 271.565 145.906 271.365C145.832 271.165 145.689 270.998 145.502 270.896C145.316 270.795 145.1 270.765 144.894 270.812C144.689 270.86 144.508 270.982 144.386 271.155L144.399 271.13Z" fill="#663F1D"/>
<path d="M129.015 351.368C133.387 343.289 138.746 335.799 144.968 329.075L143.51 328.279C138.457 342.67 127.985 354.308 123.144 368.831C123.11 368.978 123.116 369.132 123.159 369.278C123.203 369.423 123.283 369.555 123.392 369.66C124.12 370.324 125.008 370.781 125.966 370.985C126.924 371.189 127.917 371.133 128.843 370.822C129.894 370.497 129.404 368.825 128.334 369.156C127.7 369.376 127.018 369.424 126.358 369.293C125.697 369.163 125.082 368.859 124.574 368.412L124.829 369.23C129.638 354.737 140.118 343.056 145.19 328.659C145.49 327.829 144.259 327.283 143.731 327.863C137.396 334.705 131.939 342.327 127.49 350.551C127.414 350.749 127.414 350.97 127.487 351.17C127.561 351.37 127.705 351.537 127.891 351.639C128.078 351.74 128.294 351.77 128.5 351.723C128.705 351.675 128.887 351.553 129.009 351.38L129.015 351.368Z" fill="#663F1D"/>
<path d="M133.788 282.223C133.866 281.963 133.89 281.691 133.859 281.421C133.828 281.151 133.742 280.891 133.606 280.656C133.471 280.421 133.29 280.216 133.073 280.054C132.856 279.892 132.609 279.777 132.347 279.716C130.69 279.237 129.536 280.816 128.648 281.955C125.583 285.95 122.445 289.884 119.236 293.757C112.732 301.584 105.933 309.14 98.8397 316.424C98.7071 316.595 98.6427 316.81 98.659 317.028C98.6753 317.245 98.7712 317.449 98.9279 317.599C99.0847 317.75 99.2911 317.837 99.5068 317.842C99.7226 317.848 99.9322 317.772 100.095 317.63C105.704 311.859 111.132 305.927 116.38 299.833C118.934 296.858 121.428 293.85 123.891 290.81C125.149 289.241 126.407 287.672 127.647 286.078C128.254 285.289 128.88 284.495 129.494 283.695C129.763 283.337 130.032 282.979 130.339 282.579C130.484 282.37 130.646 282.174 130.823 281.992C131.057 281.551 131.54 281.499 132.142 281.781C131.768 282.839 133.447 283.219 133.814 282.174L133.788 282.223Z" fill="white"/>
<path d="M104.175 321.546L67.6781 374.936C67.0545 375.842 68.5745 376.672 69.1982 375.765L105.695 322.375C106.325 321.457 104.799 320.639 104.175 321.546Z" fill="white"/>
<path d="M64.1688 381.003C59.2157 393.779 53.6086 406.284 47.3701 418.467C45.8178 421.502 44.2126 424.519 42.5544 427.517C41.806 428.923 41.0511 430.342 40.2298 431.708C39.847 432.501 39.3967 433.258 38.8839 433.972C38.7506 434.178 38.5729 434.35 38.364 434.477C37.6456 434.795 37.5768 434.158 37.6231 433.599C37.8259 432.737 38.1457 431.908 38.5734 431.135L39.4439 428.88C40.1084 427.16 40.7851 425.446 41.4878 423.684C42.7491 420.458 44.0365 417.184 45.2774 414.027C48.1269 406.766 51.0155 399.5 53.9434 392.229C54.3667 391.197 52.847 390.368 52.4237 391.399C49.4437 398.768 46.4922 406.152 43.569 413.552C42.0957 417.303 40.6202 421.059 39.1426 424.818C38.4659 426.532 37.8014 428.252 37.1109 430.021C36.3917 431.36 35.9089 432.816 35.6841 434.324C35.6744 436.465 37.7541 437.127 39.3044 435.953C40.2454 435.084 40.999 434.03 41.5187 432.853C42.4818 431.044 43.5439 429.225 44.5053 427.477C48.2585 420.562 51.8043 413.555 55.1429 406.455C58.9194 398.396 62.4194 390.217 65.643 381.918C66.0477 380.893 64.5345 380.051 64.1233 381.089L64.1688 381.003Z" fill="white"/>
<path d="M33.5865 432.028C25.633 446.622 21.5108 462.771 17.4724 478.792C17.4446 479.008 17.4975 479.227 17.6209 479.406C17.7443 479.586 17.9293 479.713 18.1398 479.763C18.3503 479.813 18.5712 479.782 18.7594 479.676C18.9476 479.57 19.0897 479.397 19.1579 479.191C23.1491 463.318 27.2305 447.305 35.1059 432.857C35.1815 432.659 35.1824 432.438 35.1085 432.238C35.0346 432.038 34.891 431.871 34.7046 431.769C34.5182 431.667 34.3017 431.638 34.0959 431.685C33.8901 431.733 33.709 431.855 33.5865 432.028Z" fill="white"/>
<path d="M136.174 265.529C131.377 269.772 127.892 275.204 123.739 280.066C119.497 285.091 114.898 289.797 109.978 294.148C109.144 294.891 110.399 296.097 111.227 295.366C116.143 291.005 120.743 286.295 124.994 281.272C129.141 276.422 132.657 270.991 137.429 266.735C138.257 266.004 137.002 264.798 136.174 265.529Z" fill="white"/>
</svg>
